<svg id="ARTWORK" xmlns="http://www.w3.org/2000/svg" xmlns:xlink="http://www.w3.org/1999/xlink" viewBox="0 0 160 160"><defs><style>.cls-1{fill:none;}.cls-2{clip-path:url(#clip-path);}.cls-3{fill:#002173;}.cls-4{clip-path:url(#clip-path-2);}.cls-5{fill:#fff;}.cls-6{fill:#c61018;}.cls-7{clip-path:url(#clip-path-3);}.cls-8{fill:#008a66;}.cls-9{fill:#d01618;}</style><clipPath id="clip-path"><circle class="cls-1" cx="269.34" cy="80" r="80"/></clipPath><clipPath id="clip-path-2"><rect class="cls-1" x="149.34" width="240" height="160"/></clipPath><clipPath id="clip-path-3"><circle class="cls-1" cx="80" cy="80" r="80"/></clipPath></defs><g id="FLAGS"><g class="cls-2"><rect class="cls-3" x="149.34" width="240" height="160"/><g class="cls-4"><polygon class="cls-5" points="407.08 189.72 120.87 -1.09 131.6 -29.72 417.82 161.09 407.08 189.72"/><polygon class="cls-6" points="122.66 -5.87 265.76 89.54 269.34 80 126.23 -15.4 122.66 -5.87"/><polygon class="cls-5" points="417.82 -1.09 131.6 189.72 120.87 161.09 407.08 -29.72 417.82 -1.09"/><polygon class="cls-6" points="129.81 184.95 272.92 89.54 269.34 80 126.23 175.41 129.81 184.95"/><polygon class="cls-5" points="409.34 53.33 289.34 53.33 289.34 -26.67 249.34 -26.67 249.34 53.33 129.34 53.33 129.34 106.67 249.34 106.67 249.34 186.67 289.34 186.67 289.34 106.67 409.34 106.67 409.34 53.33"/><polygon class="cls-6" points="409.34 64 281.34 64 281.34 -26.67 257.34 -26.67 257.34 64 129.34 64 129.34 96 257.34 96 257.34 186.67 281.34 186.67 281.34 96 409.34 96 409.34 64"/></g></g><g class="cls-7"><rect class="cls-5" width="160" height="53.34"/><rect class="cls-8" y="53.33" width="160" height="53.34"/><rect class="cls-9" y="106.66" width="160" height="53.34"/></g></g></svg>