<svg xmlns="http://www.w3.org/2000/svg" xmlns:xlink="http://www.w3.org/1999/xlink" height="512" style="enable-background:new 0 0 512 512;" version="1.1" width="512" xml:space="preserve"><rect id="backgroundrect" width="100%" height="100%" x="0" y="0" fill="none" stroke="none"/><g class="currentLayer" style=""><title>Layer 1</title><g id="svg_1" class="selected" fill-opacity="1" fill="#8393a7"><path d="M367.4350282549858,112 c-11,1.4 -24.9,3.5 -39.7,3.5 c-23.1,0 -44,-5.7 -65.2,-10.2 c-21.5,-4.6 -43.7,-9.3 -67.2,-9.3 c-46.9,0 -62.8,10.1 -64.4,11.2 l-3.4,2.4 v2.6 v161.7 V416 h16 V272.7 c6,-2.5 21.8,-6.9 51.9,-6.9 c21.8,0 42.2,8.3 63.9,13 c22,4.7 44.8,9.6 69.5,9.6 c14.7,0 27.7,-2 38.7,-3.3 c6,-0.7000000000000001 11.3,-1.4 16,-2.2 V126 v-16.5 C378.8350282549858,110.4 373.4350282549858,111.2 367.4350282549858,112 z" id="svg_2" fill="#8393a7"/></g></g></svg>