<svg xmlns="http://www.w3.org/2000/svg" xmlns:xlink="http://www.w3.org/1999/xlink" height="512" style="enable-background:new 0 0 512 512;" version="1.1" width="512" xml:space="preserve"><rect id="backgroundrect" width="100%" height="100%" x="0" y="0" fill="none" stroke="none"/><g class="currentLayer" style=""><title>Layer 1</title><g id="_x31_3_x2C__ambulance_x2C__truck_x2C__medical_x2C__help_x2C__van" class="" fill-opacity="1" fill="#8393a7"><g id="svg_1" fill="#8393a7"><path d="M349.56807222270965,381.27 c0,13.439 5.464,25.604 14.238,34.378 c8.616,8.575 20.418,13.999 33.46,14.237 h1.8730000000000002 c13.084,-0.23800000000000002 24.89,-5.623 33.464,-14.197 c8.812,-8.814 14.237,-20.979 14.237,-34.418 c0,-13.441 -5.426,-25.605 -14.237,-34.418 c-2.7520000000000002,-2.7520000000000002 -5.822,-5.145 -9.174,-7.18 l-0.2,-0.15800000000000003 l-0.277,-0.16000000000000003 l-0.2,-0.12100000000000001 l-0.31900000000000006,-0.15700000000000003 c-0.6780000000000002,-0.4 -1.354,-0.7590000000000001 -2.074,-1.118 l-0.2,-0.11900000000000002 l-0.31900000000000006,-0.16000000000000003 l-0.19600000000000004,-0.11900000000000002 l-0.31900000000000006,-0.15900000000000003 l-0.2,-0.07900000000000001 l-0.8770000000000001,-0.4 l-0.16200000000000003,-0.07800000000000001 l-0.3960000000000001,-0.16000000000000003 l-0.16100000000000003,-0.08000000000000002 l-0.35800000000000004,-0.15800000000000003 l-0.15700000000000003,-0.08100000000000002 l-0.4,-0.15900000000000003 l-0.16100000000000003,-0.04100000000000001 l-0.3960000000000001,-0.15800000000000003 l-0.559,-0.24000000000000002 l-0.16100000000000003,-0.04000000000000001 l-0.3960000000000001,-0.15800000000000003 l-0.11900000000000002,-0.04000000000000001 l-0.43900000000000006,-0.16000000000000003 l-0.12200000000000001,-0.04000000000000001 l-0.43900000000000006,-0.15900000000000003 l-0.11900000000000002,-0.03900000000000001 l-0.43800000000000006,-0.12100000000000001 l-0.15800000000000003,-0.07900000000000001 l-0.3990000000000001,-0.11900000000000002 l-0.15800000000000003,-0.04000000000000001 l-0.43800000000000006,-0.11900000000000002 l-0.12000000000000001,-0.04100000000000001 l-0.43800000000000006,-0.16000000000000003 h-0.11900000000000002 l-0.48000000000000004,-0.15900000000000003 h-0.11900000000000002 l-0.43900000000000006,-0.11900000000000002 l-0.11900000000000002,-0.04000000000000001 l-0.47800000000000004,-0.11900000000000002 l-0.11900000000000002,-0.04100000000000001 l-0.48000000000000004,-0.11900000000000002 h-0.08100000000000002 l-0.47800000000000004,-0.11900000000000002 h-0.11900000000000002 l-0.47800000000000004,-0.11900000000000002 l-0.11900000000000002,-0.04100000000000001 l-0.48000000000000004,-0.07800000000000001 h-0.08100000000000002 l-0.516,-0.12100000000000001 h-0.08100000000000002 l-0.52,-0.08000000000000002 l-0.07700000000000001,-0.04000000000000001 l-0.519,-0.07900000000000001 h-0.08100000000000002 l-0.558,-0.08000000000000002 h-0.03900000000000001 l-0.558,-0.07900000000000001 h-0.04300000000000001 l-0.558,-0.08100000000000002 h-0.03900000000000001 l-0.558,-0.07900000000000001 h-0.08100000000000002 l-0.558,-0.04000000000000001 h-0.04200000000000001 l-0.559,-0.03900000000000001 h-0.038000000000000006 l-0.6010000000000001,-0.04000000000000001 h-0.038000000000000006 l-0.558,-0.04000000000000001 h-0.03900000000000001 l-0.6000000000000001,-0.04100000000000001 h-0.03900000000000001 h-0.6000000000000001 l0,0 l-0.5980000000000001,-0.038000000000000006 h-0.038000000000000006 h-0.6010000000000001 c-13.441,0 -25.605,5.462 -34.417,14.237 C355.03207222270964,355.664 349.56807222270965,367.828 349.56807222270965,381.27 M79.64807222270966,333.611 c1.913,-1.357 3.906,-2.633 5.98,-3.75 l0,0 c1.039,-0.559 2.116,-1.076 3.151,-1.596 h0.03900000000000001 c1.478,-0.6780000000000002 2.9939999999999998,-1.316 4.587,-1.9140000000000001 l0,0 c0.8770000000000001,-0.31800000000000006 1.7970000000000002,-0.6370000000000001 2.713,-0.916 l0,0 l0.6770000000000002,-0.2 l0,0 l0.6780000000000002,-0.2 h0.04200000000000001 l0.6770000000000002,-0.19800000000000004 l0,0 l0.6770000000000002,-0.2 h0.04200000000000001 l1.3940000000000001,-0.31800000000000006 l0,0 l0.6770000000000002,-0.16000000000000003 h0.04200000000000001 l0.6770000000000002,-0.16000000000000003 h0.03900000000000001 l0.6810000000000002,-0.11900000000000002 l0,0 l0.7160000000000001,-0.16000000000000003 l0,0 l0.7190000000000001,-0.11900000000000002 l0,0 l0.7160000000000001,-0.11900000000000002 h0.04200000000000001 l0.7160000000000001,-0.08000000000000002 l0,0 l0.7200000000000001,-0.11900000000000002 l0,0 l0.7160000000000001,-0.08000000000000002 l0,0 l0.7580000000000001,-0.08000000000000002 l0,0 l0.7200000000000001,-0.07900000000000001 l0,0 l0.7580000000000001,-0.04000000000000001 l0,0 l1.474,-0.11900000000000002 l0,0 l0.7580000000000001,-0.04100000000000001 h0.7580000000000001 l0,0 l0.7580000000000001,-0.03900000000000001 l0,0 h0.7580000000000001 h0.7160000000000001 l0.7580000000000001,0.03900000000000001 h0.7580000000000001 l0.7200000000000001,0.04100000000000001 l0.7580000000000001,0.04000000000000001 l0.7160000000000001,0.07900000000000001 l0.7200000000000001,0.04000000000000001 h0.03900000000000001 l0.7190000000000001,0.07900000000000001 l0.7160000000000001,0.08000000000000002 l0,0 l0.7190000000000001,0.08000000000000002 l0.7160000000000001,0.08000000000000002 l0,0 l0.7200000000000001,0.11900000000000002 l0.7160000000000001,0.11900000000000002 l0.7190000000000001,0.11900000000000002 l0.7160000000000001,0.12100000000000001 l0.7190000000000001,0.15800000000000003 l0,0 l0.7190000000000001,0.12100000000000001 l0.6780000000000002,0.16000000000000003 l0,0 l0.7160000000000001,0.15800000000000003 l0.6810000000000002,0.19900000000000004 l0,0 l0.7160000000000001,0.16000000000000003 l0.6780000000000002,0.19900000000000004 l0.6770000000000002,0.19900000000000004 l0,0 l0.6810000000000002,0.19900000000000004 l0,0 l0.6770000000000002,0.201 l0,0 l0.6780000000000002,0.23800000000000002 l0.6770000000000002,0.23800000000000002 l0.6770000000000002,0.24000000000000002 l0,0 l0.6390000000000001,0.23800000000000002 l0.6770000000000002,0.23900000000000002 l0,0 l0.6390000000000001,0.279 l0.6780000000000002,0.28 l0,0 l0.6390000000000001,0.279 l0,0 l0.6390000000000001,0.279 l0.6390000000000001,0.279 l0,0 l0.6390000000000001,0.278 l0,0 l0.6390000000000001,0.31900000000000006 l0,0 l0.6350000000000001,0.31900000000000006 l0.6000000000000001,0.31700000000000006 l0.6390000000000001,0.32000000000000006 l0.5970000000000001,0.35900000000000004 l0.6000000000000001,0.31900000000000006 l0.6350000000000001,0.35800000000000004 l0.6000000000000001,0.35900000000000004 l0.5970000000000001,0.35700000000000004 l0.6000000000000001,0.35900000000000004 l0.558,0.3980000000000001 l0.5970000000000001,0.36000000000000004 l0.558,0.3980000000000001 l0.6000000000000001,0.3970000000000001 l0.558,0.3980000000000001 l0.558,0.43900000000000006 l0.558,0.4 l0.558,0.43800000000000006 l0.558,0.3980000000000001 l0.519,0.47900000000000004 l0.558,0.43800000000000006 l0.52,0.43900000000000006 l0.52,0.43800000000000006 l0.516,0.47900000000000004 l0.52,0.47700000000000004 l0.52,0.43800000000000006 l0.47700000000000004,0.47900000000000004 l0.52,0.518 l0.31900000000000006,0.281 l0.43800000000000006,0.43800000000000006 l0.03900000000000001,0.03900000000000001 l0.4,0.4 l0.08100000000000002,0.11900000000000002 l0.35800000000000004,0.31900000000000006 l0.12000000000000001,0.15900000000000003 l0.277,0.31800000000000006 l0.2,0.19900000000000004 l0.23900000000000002,0.279 l0.24200000000000002,0.279 l0.15800000000000003,0.2 l0.31900000000000006,0.31900000000000006 l0.12000000000000001,0.16000000000000003 l0.31900000000000006,0.35700000000000004 l0.08100000000000002,0.11900000000000002 l0.35800000000000004,0.43900000000000006 l0.03900000000000001,0.03900000000000001 l0.4,0.47900000000000004 l0,0 l0.4,0.47800000000000004 l0.03900000000000001,0.08000000000000002 l0.35800000000000004,0.43900000000000006 l0.08100000000000002,0.11900000000000002 l0.281,0.35900000000000004 l0.15800000000000003,0.19900000000000004 l0.23900000000000002,0.31800000000000006 l0.16100000000000003,0.24000000000000002 l0.2,0.279 l0.19600000000000004,0.279 l0.43900000000000006,0.5990000000000001 l0.08100000000000002,0.15900000000000003 l0.31900000000000006,0.3980000000000001 l0.03900000000000001,0.11900000000000002 l0.31900000000000006,0.47900000000000004 l0.04200000000000001,0.038000000000000006 l0.35800000000000004,0.52 v0.04100000000000001 l0.31900000000000006,0.518 l0.03900000000000001,0.08000000000000002 l0.281,0.43900000000000006 l0.11900000000000002,0.15900000000000003 l0.23900000000000002,0.3980000000000001 l0.11900000000000002,0.19800000000000004 l0.2,0.31900000000000006 l0.15800000000000003,0.279 l0.16200000000000003,0.278 l0.15800000000000003,0.36000000000000004 l0.12000000000000001,0.2 l0.24200000000000002,0.3980000000000001 l0.07700000000000001,0.15900000000000003 l0.23900000000000002,0.47900000000000004 l0.08100000000000002,0.07800000000000001 l0.281,0.559 l0,0 l0.277,0.558 l0.04200000000000001,0.04000000000000001 l0.23900000000000002,0.559 l0.03900000000000001,0.08000000000000002 l0.23900000000000002,0.47900000000000004 l0.08100000000000002,0.15800000000000003 l0.2,0.3990000000000001 l0.08100000000000002,0.279 l0.15800000000000003,0.32000000000000006 l0.16200000000000003,0.31600000000000006 l0.11900000000000002,0.281 l0.15800000000000003,0.35700000000000004 l0.08100000000000002,0.201 l0.2,0.47700000000000004 l0.03900000000000001,0.12100000000000001 l0.2,0.518 l0.03900000000000001,0.08100000000000002 l0.23800000000000002,0.5970000000000001 l0,0 l0.24200000000000002,0.6790000000000002 l0.19700000000000004,0.558 l0.04200000000000001,0.12000000000000001 l0.15800000000000003,0.47900000000000004 l0.08100000000000002,0.19900000000000004 l0.11900000000000002,0.3980000000000001 l0.12000000000000001,0.279 l0.08100000000000002,0.31900000000000006 l0.11900000000000002,0.35800000000000004 l0.08100000000000002,0.278 l0.11900000000000002,0.4 l0.07700000000000001,0.19800000000000004 l0.12300000000000001,0.47900000000000004 l0.03900000000000001,0.16000000000000003 l0.15800000000000003,0.559 v0.03900000000000001 l0.2,0.6390000000000001 l0,0 l0.16100000000000003,0.6380000000000001 v0.08100000000000002 l0.15800000000000003,0.558 v0.15900000000000003 l0.11900000000000002,0.47900000000000004 l0.04200000000000001,0.23900000000000002 l0.07800000000000001,0.3980000000000001 l0.08100000000000002,0.278 l0.08100000000000002,0.36000000000000004 l0.07700000000000001,0.35700000000000004 l0.04200000000000001,0.279 l0.08100000000000002,0.43800000000000006 l0.03900000000000001,0.2 l0.08100000000000002,0.52 l0.03900000000000001,0.11900000000000002 l0.08100000000000002,0.6370000000000001 v0.04100000000000001 l0.11900000000000002,0.6390000000000001 v0.04000000000000001 l0.08100000000000002,0.6370000000000001 v0.08100000000000002 l0.07700000000000001,0.558 v0.15900000000000003 l0.08100000000000002,0.518 v0.24100000000000002 l0.03900000000000001,0.3970000000000001 l0.04200000000000001,0.32000000000000006 l0.03900000000000001,0.35700000000000004 h9.174 V357.42 v-0.15800000000000003 v-0.12100000000000001 V237.895 H24.970072222709657 v20.777 h123.513 c2.6710000000000003,0 4.906,2.193 4.906,4.906 c0,2.712 -2.235,4.905 -4.906,4.905 H24.970072222709657 v107.88 h30.27 l0.03900000000000001,-0.35700000000000004 l0.04200000000000001,-0.32000000000000006 l0.03900000000000001,-0.3970000000000001 v-0.24100000000000002 l0.08100000000000002,-0.47900000000000004 v-0.19800000000000004 l0.08100000000000002,-0.558 v-0.08100000000000002 l0.07700000000000001,-0.6370000000000001 v-0.04000000000000001 l0.11900000000000002,-0.6390000000000001 v-0.04100000000000001 l0.08100000000000002,-0.6370000000000001 l0.03900000000000001,-0.08100000000000002 l0.08100000000000002,-0.558 l0.04200000000000001,-0.2 l0.07700000000000001,-0.43800000000000006 l0.04200000000000001,-0.279 l0.07800000000000001,-0.35700000000000004 l0.08100000000000002,-0.32000000000000006 l0.03900000000000001,-0.31800000000000006 l0.12300000000000001,-0.3980000000000001 l0.03900000000000001,-0.23900000000000002 l0.11900000000000002,-0.47900000000000004 l0.11900000000000002,-0.558 l0.03900000000000001,-0.15900000000000003 v-0.08100000000000002 l0.16200000000000003,-0.5990000000000001 v-0.03900000000000001 l0.2,-0.6390000000000001 v-0.03900000000000001 l0.15800000000000003,-0.559 l0.04200000000000001,-0.11900000000000002 l0.12000000000000001,-0.52 l0.07700000000000001,-0.19800000000000004 l0.2,-0.6790000000000002 l0.11900000000000002,-0.35800000000000004 l0.08100000000000002,-0.31900000000000006 l0.12000000000000001,-0.279 l0.11900000000000002,-0.3980000000000001 l0.08100000000000002,-0.19900000000000004 l0.15800000000000003,-0.47900000000000004 l0.04200000000000001,-0.12000000000000001 l0.43800000000000006,-1.236 l0,0 l0.23900000000000002,-0.5970000000000001 l0.03900000000000001,-0.08100000000000002 l0.2,-0.518 l0.03900000000000001,-0.12100000000000001 l0.2,-0.47700000000000004 l0.08100000000000002,-0.201 l0.15800000000000003,-0.35700000000000004 l0.12300000000000001,-0.281 l0.31600000000000006,-0.6370000000000001 l0.08100000000000002,-0.279 l0.2,-0.3990000000000001 l0.08100000000000002,-0.15800000000000003 l0.23900000000000002,-0.44000000000000006 l0.03900000000000001,-0.11900000000000002 l0.23900000000000002,-0.518 l0.04200000000000001,-0.08100000000000002 l0.277,-0.558 l0,0 l0.281,-0.559 l0.08100000000000002,-0.07800000000000001 l0.23900000000000002,-0.47900000000000004 l0.08100000000000002,-0.15900000000000003 l0.23900000000000002,-0.3980000000000001 l0.08100000000000002,-0.2 l0.19700000000000004,-0.36000000000000004 l0.16100000000000003,-0.278 l0.15800000000000003,-0.279 l0.2,-0.31900000000000006 l0.12000000000000001,-0.19800000000000004 l0.23900000000000002,-0.3980000000000001 l0.11900000000000002,-0.15900000000000003 l0.24200000000000002,-0.43900000000000006 l0.07700000000000001,-0.08000000000000002 l0.31900000000000006,-0.518 l0.36100000000000004,-0.561 l0.03900000000000001,-0.038000000000000006 l0.31900000000000006,-0.47900000000000004 l0.03900000000000001,-0.11900000000000002 l0.31900000000000006,-0.3980000000000001 l0.08100000000000002,-0.15900000000000003 l0.43800000000000006,-0.5990000000000001 l0.2,-0.279 l0.19700000000000004,-0.279 l0.16100000000000003,-0.24000000000000002 l0.23900000000000002,-0.31800000000000006 l0.16200000000000003,-0.19900000000000004 l0.277,-0.35900000000000004 l0.08100000000000002,-0.11900000000000002 l0.35800000000000004,-0.43900000000000006 l0.03900000000000001,-0.08000000000000002 l0.4,-0.47800000000000004 l0,0 l0.4,-0.47900000000000004 l0.03900000000000001,-0.03900000000000001 l0.35800000000000004,-0.43900000000000006 l0.08100000000000002,-0.11900000000000002 l0.31900000000000006,-0.35700000000000004 l0.11900000000000002,-0.16000000000000003 l0.32000000000000006,-0.31900000000000006 l0.15800000000000003,-0.2 l0.24200000000000002,-0.279 l0.23900000000000002,-0.279 l0.2,-0.19900000000000004 l0.277,-0.31800000000000006 l0.12000000000000001,-0.15900000000000003 l0.36100000000000004,-0.31900000000000006 l0.07700000000000001,-0.11900000000000002 l0.4,-0.4 l0.03900000000000001,-0.03900000000000001 l0.43900000000000006,-0.43800000000000006 l0.52,-0.52 l0.47700000000000004,-0.47900000000000004 h0.04200000000000001 l0.47800000000000004,-0.47800000000000004 l0,0 l0.52,-0.47900000000000004 l0.519,-0.47900000000000004 l0.558,-0.43800000000000006 l0,0 l0.516,-0.47900000000000004 l0,0 l1.077,-0.8780000000000001 l0,0 l1.116,-0.8780000000000001 l0,0 L79.64807222270966,333.611 zM100.74407222270966,334.288 c-0.7580000000000001,0.24000000000000002 -1.5550000000000002,0.43800000000000006 -2.271,0.7180000000000001 h-0.04200000000000001 l-1.116,0.35900000000000004 l0,0 c-6.938,2.433 -13.122,6.421 -18.225,11.486 c-2.194,2.232 -4.19,4.626 -5.945,7.218 l0,0 l-0.9550000000000001,1.476 l0,0 l-0.281,0.47900000000000004 l0,0 l-0.31900000000000006,0.518 l0,0 l-0.277,0.52 l0,0 l-0.31900000000000006,0.47900000000000004 l0,0 l-0.281,0.518 l0,0 l-0.277,0.519 l0,0 l-0.281,0.519 l0,0 l-0.23800000000000002,0.558 l0,0 l-0.281,0.519 l0,0 l-0.23900000000000002,0.518 l0,0 l-0.23900000000000002,0.559 l0,0 l-0.23900000000000002,0.52 l0,0 l-0.23800000000000002,0.559 l-0.24200000000000002,0.558 l0,0 l-0.19700000000000004,0.519 v0.03900000000000001 l-0.24200000000000002,0.52 l-0.19600000000000004,0.559 l0,0 l-0.2,0.558 l-0.2,0.5990000000000001 l-0.2,0.558 l-0.15800000000000003,0.558 l-0.2,0.561 l-0.16200000000000003,0.5980000000000001 l0,0 l-0.15800000000000003,0.559 l0,0 l-0.15800000000000003,0.5980000000000001 l-0.12300000000000001,0.5990000000000001 l-0.15800000000000003,0.558 l-0.11900000000000002,0.6000000000000001 l-0.12000000000000001,0.5980000000000001 l-0.11900000000000002,0.5990000000000001 l-0.11900000000000002,0.5970000000000001 l-0.12000000000000001,0.5980000000000001 l-0.08100000000000002,0.5990000000000001 l-0.08100000000000002,0.5990000000000001 l-0.08100000000000002,0.5980000000000001 l-0.07700000000000001,0.6390000000000001 l-0.08100000000000002,0.6000000000000001 l-0.03900000000000001,0.5980000000000001 l-0.04200000000000001,0.6370000000000001 l-0.08100000000000002,0.5990000000000001 v0.6390000000000001 l-0.03900000000000001,0.6390000000000001 l-0.03900000000000001,0.5970000000000001 v0.6390000000000001 v0.6390000000000001 c0,13.439 5.422,25.604 14.238,34.378 c8.612,8.575 20.418,13.999 33.459,14.237 h1.874 c13.08,-0.23800000000000002 24.886,-5.623 33.459,-14.197 c8.816,-8.814 14.238,-20.979 14.238,-34.418 c0,-13.441 -5.461,-25.605 -14.238,-34.418 l-0.277,-0.28 l-0.4,-0.3980000000000001 l-0.3960000000000001,-0.3970000000000001 l-0.43900000000000006,-0.36000000000000004 l-0.43800000000000006,-0.3980000000000001 l-0.43900000000000006,-0.3980000000000001 l-0.4,-0.35900000000000004 l-0.43800000000000006,-0.3980000000000001 l-0.47800000000000004,-0.36000000000000004 l-0.43800000000000006,-0.35700000000000004 l-0.43900000000000006,-0.35900000000000004 l-0.48000000000000004,-0.35800000000000004 l-0.43900000000000006,-0.31900000000000006 l-0.47700000000000004,-0.35900000000000004 l-0.47800000000000004,-0.31800000000000006 l-0.48000000000000004,-0.31800000000000006 l-0.47800000000000004,-0.36000000000000004 l-0.48100000000000004,-0.31900000000000006 l-0.47700000000000004,-0.279 l-0.52,-0.31800000000000006 l-0.47700000000000004,-0.31800000000000006 l-0.52,-0.281 l-0.47800000000000004,-0.278 l-0.519,-0.31700000000000006 l-0.52,-0.281 l-0.516,-0.23800000000000002 l-0.519,-0.279 l-0.52,-0.279 l-0.52,-0.23800000000000002 l-0.516,-0.24000000000000002 l-0.558,-0.23800000000000002 l-0.52,-0.24000000000000002 l-0.558,-0.23900000000000002 l-0.52,-0.2 l-0.558,-0.23800000000000002 l0,0 l-0.558,-0.2 l0,0 l-0.558,-0.19800000000000004 l-0.558,-0.2 l-0.558,-0.19800000000000004 l0,0 l-0.558,-0.2 l0,0 l-0.562,-0.15900000000000003 l-0.558,-0.16000000000000003 l-0.558,-0.16000000000000003 l-0.5970000000000001,-0.15900000000000003 l-0.558,-0.15900000000000003 l0,0 l-0.6000000000000001,-0.16000000000000003 l-0.558,-0.11900000000000002 l0,0 l-0.5970000000000001,-0.11900000000000002 l0,0 l-0.6000000000000001,-0.16000000000000003 l-0.5970000000000001,-0.07800000000000001 l-0.558,-0.12100000000000001 l-0.6000000000000001,-0.12000000000000001 l-0.5970000000000001,-0.07900000000000001 l-0.6000000000000001,-0.08000000000000002 l-0.5970000000000001,-0.07900000000000001 l-0.6390000000000001,-0.08100000000000002 l-0.5970000000000001,-0.07900000000000001 l-0.6000000000000001,-0.04000000000000001 l0,0 l-0.5970000000000001,-0.03900000000000001 l-0.6390000000000001,-0.04000000000000001 l-0.6000000000000001,-0.04000000000000001 l-0.6390000000000001,-0.04100000000000001 h-0.5970000000000001 l-0.6390000000000001,-0.038000000000000006 h-0.5970000000000001 H112.86907222270966 l-0.6390000000000001,0.038000000000000006 h-0.6390000000000001 l-0.5970000000000001,0.04100000000000001 l0,0 l-0.6390000000000001,0.04000000000000001 l-1.235,0.07900000000000001 l0,0 l-0.6000000000000001,0.04000000000000001 l0,0 l-0.5970000000000001,0.07900000000000001 h-0.04200000000000001 l-1.7930000000000001,0.24000000000000002 l0,0 l-0.5970000000000001,0.11900000000000002 l0,0 l-0.6000000000000001,0.08000000000000002 h-0.03900000000000001 l-0.558,0.12100000000000001 l0,0 l-0.6000000000000001,0.11900000000000002 l0,0 l-0.5970000000000001,0.11900000000000002 l0,0 l-0.6000000000000001,0.11900000000000002 l0,0 l-0.5970000000000001,0.16000000000000003 l0,0 L100.74407222270966,334.288 L100.74407222270966,334.288 zM342.94807222270964,362.166 H190.71707222270965 v14.197 h149.238 l0.04200000000000001,-0.35700000000000004 l0.038000000000000006,-0.32000000000000006 l0.03900000000000001,-0.3970000000000001 l0.04200000000000001,-0.24100000000000002 l0.038000000000000006,-0.47900000000000004 v-0.19800000000000004 l0.08100000000000002,-0.558 v-0.08100000000000002 l0.12000000000000001,-0.6370000000000001 v-0.04000000000000001 l0.08000000000000002,-0.6390000000000001 v-0.04100000000000001 l0.11900000000000002,-0.6370000000000001 v-0.08100000000000002 l0.08100000000000002,-0.558 l0.038000000000000006,-0.2 l0.08100000000000002,-0.43800000000000006 l0.07700000000000001,-0.279 l0.04300000000000001,-0.35700000000000004 l0.07600000000000001,-0.32000000000000006 l0.08100000000000002,-0.31800000000000006 l0.08100000000000002,-0.3980000000000001 l0.038000000000000006,-0.23900000000000002 l0.12000000000000001,-0.47900000000000004 l0.11900000000000002,-0.558 l0.04100000000000001,-0.15900000000000003 l0.03900000000000001,-0.08100000000000002 l0.16200000000000003,-0.5990000000000001 v-0.03900000000000001 l0.15700000000000003,-0.6390000000000001 v-0.03900000000000001 l0.16100000000000003,-0.559 l0.03900000000000001,-0.11900000000000002 l0.11900000000000002,-0.52 l0.08100000000000002,-0.19800000000000004 l0.2,-0.6790000000000002 l0.11900000000000002,-0.35800000000000004 l0.11900000000000002,-0.31900000000000006 l0.07700000000000001,-0.279 l0.12300000000000001,-0.3980000000000001 l0.07700000000000001,-0.19900000000000004 L342.94807222270964,362.166 zM449.0330722227097,352.355 h35.935 V109.873 H456.76907222270967 v132.17 c0,2.7110000000000003 -2.232,4.904 -4.902,4.904 c-2.713,0 -4.907,-2.193 -4.907,-4.904 v-132.17 H227.96707222270965 v132.17 c0,2.7110000000000003 -2.193,4.904 -4.864,4.904 c-2.713,0 -4.906,-2.193 -4.906,-4.904 v-132.17 h-27.479 v20.818 v0.11900000000000002 v102.059 v0.11900000000000002 v0.11900000000000002 v119.248 h156.657 l0.16100000000000003,-0.2 l0.11900000000000002,-0.279 l0.19700000000000004,-0.31900000000000006 l0.16100000000000003,-0.19800000000000004 l0.2,-0.3980000000000001 l0.11900000000000002,-0.15900000000000003 l0.277,-0.43900000000000006 l0.04200000000000001,-0.08000000000000002 l0.31900000000000006,-0.518 l0.35700000000000004,-0.561 l0.03900000000000001,-0.038000000000000006 l0.31900000000000006,-0.47900000000000004 l0.08100000000000002,-0.11900000000000002 l0.277,-0.3980000000000001 l0.12300000000000001,-0.15900000000000003 l0.3960000000000001,-0.5990000000000001 l0.19900000000000004,-0.279 l0.2,-0.279 l0.2,-0.24000000000000002 l0.19700000000000004,-0.31800000000000006 l0.16000000000000003,-0.19900000000000004 l0.277,-0.35900000000000004 l0.12300000000000001,-0.11900000000000002 l0.31600000000000006,-0.43900000000000006 l0.04200000000000001,-0.08000000000000002 l0.3960000000000001,-0.47800000000000004 l0,0 l0.3990000000000001,-0.47900000000000004 l0.03900000000000001,-0.03900000000000001 l0.36100000000000004,-0.43900000000000006 l0.07800000000000001,-0.11900000000000002 l0.31800000000000006,-0.35700000000000004 l0.16200000000000003,-0.16000000000000003 l0.277,-0.31900000000000006 l0.16100000000000003,-0.2 l0.23900000000000002,-0.279 l0.23800000000000002,-0.279 l0.19900000000000004,-0.19900000000000004 l0.281,-0.31800000000000006 l0.15800000000000003,-0.15900000000000003 l0.31900000000000006,-0.31900000000000006 l0.08100000000000002,-0.11900000000000002 l0.3960000000000001,-0.4 l0.04100000000000001,-0.03900000000000001 l0.43900000000000006,-0.43800000000000006 l0.516,-0.52 l0.52,-0.47900000000000004 l0.48000000000000004,-0.47800000000000004 l0.516,-0.47900000000000004 l0.52,-0.47900000000000004 l0.559,-0.43800000000000006 l0.52,-0.47900000000000004 l0.558,-0.43900000000000006 l0.52,-0.43800000000000006 l0.558,-0.43800000000000006 l0.559,-0.43900000000000006 l0.559,-0.43800000000000006 l0,0 l0.558,-0.3970000000000001 l0.558,-0.3980000000000001 l0.6000000000000001,-0.3980000000000001 l0.559,-0.4 l0.5970000000000001,-0.3980000000000001 l0,0 l0.6010000000000001,-0.3980000000000001 l0,0 l0.5960000000000001,-0.35900000000000004 l0,0 l0.5980000000000001,-0.35800000000000004 l0.6000000000000001,-0.3990000000000001 l0,0 l0.5970000000000001,-0.31800000000000006 l0.6390000000000001,-0.35900000000000004 l0.6010000000000001,-0.35900000000000004 l0.6390000000000001,-0.31800000000000006 l0,0 l0.6350000000000001,-0.31800000000000006 l0.6000000000000001,-0.32000000000000006 h0.03900000000000001 l0.6000000000000001,-0.31900000000000006 l0,0 l0.6360000000000001,-0.31900000000000006 l0.6810000000000002,-0.279 l0,0 l0.6350000000000001,-0.278 l0,0 l0.6390000000000001,-0.31900000000000006 l0,0 l0.6780000000000002,-0.23800000000000002 l0,0 l0.6390000000000001,-0.279 l0,0 l0.6780000000000002,-0.24000000000000002 l0,0 l0.6810000000000002,-0.279 l0,0 l0.6780000000000002,-0.23800000000000002 l0,0 l0.6770000000000002,-0.23900000000000002 l0,0 l0.6780000000000002,-0.2 l0,0 l0.6780000000000002,-0.23800000000000002 l0,0 l0.6800000000000002,-0.2 l0,0 l0.6780000000000002,-0.2 h0.03900000000000001 l0.6780000000000002,-0.19800000000000004 l0,0 l0.6800000000000002,-0.2 h0.03900000000000001 l0.6780000000000002,-0.15900000000000003 l0,0 l0.7190000000000001,-0.15900000000000003 l0,0 l0.7170000000000001,-0.16000000000000003 l0,0 l0.6770000000000002,-0.16000000000000003 h0.04200000000000001 l0.6780000000000002,-0.11900000000000002 l0,0 l0.7160000000000001,-0.16000000000000003 l0,0 l0.7200000000000001,-0.11900000000000002 h0.038000000000000006 l0.7200000000000001,-0.11900000000000002 l0,0 l0.7160000000000001,-0.08000000000000002 l0.7200000000000001,-0.11900000000000002 l0.7190000000000001,-0.08000000000000002 h0.03900000000000001 l0.7190000000000001,-0.08000000000000002 l0,0 l0.7170000000000001,-0.07900000000000001 l0.7580000000000001,-0.04000000000000001 l0.7580000000000001,-0.07900000000000001 l0,0 l0.7170000000000001,-0.04000000000000001 l0,0 l0.7580000000000001,-0.04100000000000001 h0.7580000000000001 l0.7580000000000001,-0.03900000000000001 l0,0 h0.7580000000000001 h0.7200000000000001 h0.038000000000000006 l0.7210000000000001,0.03900000000000001 h0.038000000000000006 h0.7160000000000001 l0,0 l0.7200000000000001,0.04100000000000001 h0.038000000000000006 l0.7200000000000001,0.04000000000000001 h0.038000000000000006 l0.6820000000000002,0.07900000000000001 h0.038000000000000006 l0.7160000000000001,0.04000000000000001 h0.04300000000000001 l0.6770000000000002,0.07900000000000001 h0.03900000000000001 l0.6810000000000002,0.08000000000000002 h0.07700000000000001 l0.6390000000000001,0.08000000000000002 h0.08100000000000002 l0.6770000000000002,0.08000000000000002 l0.08100000000000002,0.03900000000000001 l0.6390000000000001,0.08000000000000002 h0.07700000000000001 l0.6390000000000001,0.11900000000000002 h0.08100000000000002 l0.5970000000000001,0.11900000000000002 h0.11900000000000002 l0.6000000000000001,0.12100000000000001 l0.12000000000000001,0.03900000000000001 l0.5960000000000001,0.11900000000000002 h0.12000000000000001 l0.6000000000000001,0.12100000000000001 l0.11900000000000002,0.03900000000000001 l0.559,0.12100000000000001 l0.11900000000000002,0.03900000000000001 l0.6000000000000001,0.11900000000000002 l0.12000000000000001,0.04000000000000001 l0.558,0.15900000000000003 h0.15800000000000003 l0.558,0.16000000000000003 l0.12300000000000001,0.04000000000000001 l0.558,0.15900000000000003 l0.6780000000000002,0.19900000000000004 l0.15800000000000003,0.04000000000000001 l0.519,0.15900000000000003 l0.15800000000000003,0.04100000000000001 l0.52,0.16000000000000003 l0.16100000000000003,0.07800000000000001 l0.517,0.16000000000000003 l0.16100000000000003,0.04000000000000001 l0.52,0.19800000000000004 l0.15800000000000003,0.04100000000000001 l0.519,0.19900000000000004 l0.15800000000000003,0.03900000000000001 l0.48000000000000004,0.19900000000000004 l0.6780000000000002,0.23900000000000002 l0.2,0.08100000000000002 l0.43800000000000006,0.19800000000000004 l0.19600000000000004,0.08100000000000002 l0.48100000000000004,0.19900000000000004 l0.2,0.07900000000000001 l0.43800000000000006,0.2 l0.19600000000000004,0.07900000000000001 l0.43800000000000006,0.2 l0.2,0.07800000000000001 l0.43800000000000006,0.201 l0.23900000000000002,0.07800000000000001 l0.3990000000000001,0.2 l0.6390000000000001,0.31900000000000006 l0.23900000000000002,0.11900000000000002 l0.3990000000000001,0.2 l0.5970000000000001,0.31700000000000006 l0.23900000000000002,0.12100000000000001 l0.4,0.19900000000000004 l0.23800000000000002,0.11900000000000002 l0.35700000000000004,0.24000000000000002 l0.8780000000000001,0.47900000000000004 l0.36100000000000004,0.19900000000000004 l0.23800000000000002,0.15900000000000003 l0.35800000000000004,0.2 l0.23800000000000002,0.15900000000000003 l0.36100000000000004,0.19800000000000004 l0.23900000000000002,0.16000000000000003 l0.35700000000000004,0.19900000000000004 l0.23900000000000002,0.16000000000000003 l0.36100000000000004,0.23800000000000002 l0.23800000000000002,0.16000000000000003 l0.31900000000000006,0.2 l0.277,0.19800000000000004 l0.31900000000000006,0.2 l0.23900000000000002,0.2 l0.31900000000000006,0.19700000000000004 l0.28,0.201 l0.277,0.19700000000000004 l1.6780000000000002,1.2770000000000001 l0.277,0.19900000000000004 l0.28,0.19900000000000004 l0.517,0.47900000000000004 l0.31900000000000006,0.19800000000000004 l0.24200000000000002,0.24000000000000002 l0.277,0.19900000000000004 l0.23800000000000002,0.24000000000000002 l0.28,0.23800000000000002 l0.23900000000000002,0.2 l0.31900000000000006,0.278 l0.2,0.201 l0.31900000000000006,0.23800000000000002 l0.19600000000000004,0.23800000000000002 l0.31900000000000006,0.24000000000000002 l0.2,0.19800000000000004 l0.28,0.279 l0.23900000000000002,0.2 l0.277,0.279 l0.19900000000000004,0.23800000000000002 h0.04300000000000001 l0.276,0.281 c2.236,2.193 4.268,4.625 6.104,7.178 l0.23800000000000002,0.279 l0.11900000000000002,0.23800000000000002 c0.48100000000000004,0.6780000000000002 0.9580000000000001,1.357 1.436,2.074 v0.04100000000000001 l0.6390000000000001,1.037 l0.12000000000000001,0.15900000000000003 l0.23800000000000002,0.3980000000000001 l0.11900000000000002,0.19800000000000004 l0.2,0.31900000000000006 l0.16100000000000003,0.279 L449.0330722227097,352.355 zM484.9680722227097,362.166 H453.45907222270966 l0.04200000000000001,0.16000000000000003 l0.07700000000000001,0.19900000000000004 l0.11900000000000002,0.3980000000000001 l0.12000000000000001,0.279 l0.12200000000000001,0.31900000000000006 l0.07800000000000001,0.35800000000000004 l0.08000000000000002,0.278 l0.11900000000000002,0.4 l0.08100000000000002,0.19800000000000004 l0.11900000000000002,0.47900000000000004 l0.03900000000000001,0.16000000000000003 l0.16100000000000003,0.559 l0.03900000000000001,0.03900000000000001 l0.16100000000000003,0.6390000000000001 l0,0 l0.15800000000000003,0.6380000000000001 v0.08100000000000002 l0.15700000000000003,0.558 v0.15900000000000003 l0.12300000000000001,0.47900000000000004 l0.03900000000000001,0.23900000000000002 l0.11900000000000002,0.3980000000000001 l0.038000000000000006,0.278 l0.08100000000000002,0.36000000000000004 l0.08100000000000002,0.35700000000000004 l0.038000000000000006,0.279 l0.08100000000000002,0.43800000000000006 l0.038000000000000006,0.2 l0.08100000000000002,0.52 l0.03900000000000001,0.11900000000000002 l0.08000000000000002,0.6370000000000001 v0.04100000000000001 l0.11900000000000002,0.6390000000000001 v0.04000000000000001 l0.08100000000000002,0.6370000000000001 v0.08100000000000002 l0.08100000000000002,0.558 v0.15900000000000003 l0.07700000000000001,0.518 v0.24100000000000002 l0.08000000000000002,0.3970000000000001 v0.32000000000000006 l0.03900000000000001,0.35700000000000004 h28.519 V362.166 zM143.45807222270966,125.906 v-16.152 c0,-3.59 -1.474,-6.859 -3.829,-9.213 c-2.394,-2.3930000000000002 -5.664,-3.869 -9.251,-3.869 c-3.59,0 -6.861,1.477 -9.254,3.829 c-2.394,2.394 -3.8680000000000003,5.663 -3.8680000000000003,9.253 v16.152 H143.45807222270966 zM148.36507222270964,135.717 h-35.973 h-0.519 H74.18407222270966 L27.999072222709657,228.084 h152.909 v-92.367 h-32.066 H148.36507222270964 zM91.61207222270966,359.374 c5.584,-5.6240000000000006 13.319,-9.093 21.896,-9.093 c8.535,0 16.27,3.469 21.896,9.093 c5.583,5.583 9.051,13.36 9.051,21.896 s-3.467,16.271 -9.051,21.895 c-5.626,5.583 -13.361,9.055 -21.896,9.055 c-8.577,0 -16.312,-3.472 -21.896,-9.055 c-5.622,-5.623 -9.093,-13.359 -9.093,-21.895 S85.99007222270966,364.957 91.61207222270966,359.374 zM113.50807222270966,360.092 c-5.864,0 -11.167,2.394 -14.996,6.223 c-3.829,3.7880000000000003 -6.184,9.093 -6.184,14.955 c0,5.822 2.354,11.127 6.184,14.956 s9.132,6.182 14.996,6.182 c5.822,0 11.125,-2.353 14.954,-6.182 c3.829,-3.829 6.184,-9.134 6.184,-14.956 c0,-5.862 -2.355,-11.167 -6.184,-14.955 C124.63307222270966,362.485 119.33007222270966,360.092 113.50807222270966,360.092 zM376.32707222270966,359.374 c5.584,-5.6240000000000006 13.36,-9.093 21.896,-9.093 s16.274,3.469 21.896,9.093 c5.583,5.583 9.055,13.36 9.055,21.896 s-3.472,16.271 -9.055,21.895 c-5.622,5.583 -13.361,9.055 -21.896,9.055 s-16.312,-3.472 -21.896,-9.055 c-5.622,-5.623 -9.093,-13.359 -9.093,-21.895 S370.70507222270965,364.957 376.32707222270966,359.374 zM398.2230722227097,360.092 c-5.86,0 -11.125,2.394 -14.953,6.223 c-3.829,3.7880000000000003 -6.223,9.093 -6.223,14.955 c0,5.822 2.394,11.127 6.223,14.956 c3.8280000000000003,3.829 9.093,6.182 14.953,6.182 c5.822,0 11.129,-2.353 14.958,-6.182 s6.18,-9.134 6.18,-14.956 c0,-5.862 -2.351,-11.167 -6.18,-14.955 C409.35207222270964,362.485 404.0450722227097,360.092 398.2230722227097,360.092 zM350.88307222270964,213.686 h21.419 c2.6710000000000003,0 4.9030000000000005,2.193 4.9030000000000005,4.904 v16.272 c0,2.713 -2.232,4.906 -4.9030000000000005,4.906 h-21.419 v21.417 c0,2.7110000000000003 -2.193,4.904 -4.906,4.904 h-16.27 c-2.713,0 -4.906,-2.193 -4.906,-4.904 v-21.417 h-21.415 c-2.713,0 -4.906,-2.193 -4.906,-4.906 V218.59 c0,-2.7110000000000003 2.193,-4.904 4.906,-4.904 h21.415 V192.27 c0,-2.7110000000000003 2.193,-4.904 4.906,-4.904 h16.27 c2.713,0 4.906,2.193 4.906,4.904 V213.686 zM367.3960722227097,223.496 h-21.419 c-2.709,0 -4.902,-2.193 -4.902,-4.906 v-21.414 h-6.461 v21.414 c0,2.713 -2.193,4.906 -4.906,4.906 H308.28907222270965 v6.461 h21.418 c2.713,0 4.906,2.194 4.906,4.905 v21.417 h6.461 v-21.417 c0,-2.7110000000000003 2.193,-4.905 4.902,-4.905 h21.419 V223.496 zM291.73807222270966,180.623 c11.768,-11.764 28.118,-19.103 46.104,-19.103 s34.299,7.339 46.104,19.103 c11.765,11.806000000000001 19.063,28.118 19.063,46.104 c0,17.986 -7.299,34.299 -19.063,46.104 c-11.806000000000001,11.806000000000001 -28.118,19.104 -46.104,19.104 s-34.337,-7.298 -46.104,-19.104 c-11.802,-11.805 -19.102,-28.117 -19.102,-46.104 C272.63607222270963,208.741 279.93607222270964,192.429 291.73807222270966,180.623 zM337.84207222270965,171.332 c-15.314,0 -29.153,6.221 -39.162,16.23 c-10.052,10.012 -16.231,23.89 -16.231,39.164 c0,15.316 6.18,29.154 16.231,39.165 c10.009,10.011 23.848,16.231 39.162,16.231 c15.273,0 29.154,-6.221 39.163,-16.231 c10.013,-10.011 16.235,-23.849 16.235,-39.165 c0,-15.274000000000001 -6.223,-29.152 -16.235,-39.164 C366.99607222270964,177.553 353.11507222270967,171.332 337.84207222270965,171.332 zM82.79707222270966,172.009 c-1.7930000000000001,-1.9929999999999999 -1.6320000000000001,-5.104 0.36100000000000004,-6.899 c2.032,-1.7930000000000001 5.103,-1.596 6.899,0.4 l28.715,32.104 c1.7930000000000001,1.9929999999999999 1.6360000000000001,5.104 -0.35800000000000004,6.899 c-1.9969999999999999,1.7930000000000001 -5.106,1.596 -6.899,-0.4 L82.79707222270966,172.009 zM115.74007222270966,181.66 c-1.7930000000000001,-1.994 -1.593,-5.064 0.4,-6.859 c1.9929999999999999,-1.795 5.103,-1.6360000000000001 6.899,0.35900000000000004 l28.715,32.105 c1.7930000000000001,1.9929999999999999 1.6350000000000002,5.104 -0.4,6.899 c-1.994,1.794 -5.064,1.5950000000000002 -6.8580000000000005,-0.3990000000000001 L115.74007222270966,181.66 zM484.9680722227097,82.115 H190.71707222270965 v17.947 h32.224 h0.281 h228.524 h0.23900000000000002 h32.982 V82.115 z" style="fill-rule:evenodd;clip-rule:evenodd;" id="svg_2" fill="#8393a7"/></g></g><g id="Layer_1"/></g></svg>