<svg xmlns="http://www.w3.org/2000/svg" xmlns:xlink="http://www.w3.org/1999/xlink" enable-background="new 0 0 48 48" height="48" version="1.1" width="48" xml:space="preserve" style=""><rect id="backgroundrect" width="100%" height="100%" x="0" y="0" fill="none" stroke="none"/><g class="currentLayer" style=""><title>Layer 1</title><g id="Layer_3" class="" fill-opacity="1" fill="#8393a7"><path d="M24,0C10.745,0,0,10.745,0,24s10.745,24,24,24s24-10.745,24-24S37.255,0,24,0z M4,24   C4,12.954,12.954,4,24,4c4.85,0,9.293,1.727,12.755,4.597L8.597,36.755C5.727,33.293,4,28.85,4,24z M24,44   c-4.756,0-9.119-1.667-12.552-4.439l28.112-28.111C42.333,14.881,44,19.244,44,24C44,35.046,35.046,44,24,44z" fill="#8393a7" id="svg_1"/></g></g></svg>