<svg id="ARTWORK" xmlns="http://www.w3.org/2000/svg" xmlns:xlink="http://www.w3.org/1999/xlink" viewBox="0 0 160 160"><defs><style>.cls-1{fill:none;}.cls-2{clip-path:url(#clip-path);}.cls-3{fill:#002173;}.cls-4{clip-path:url(#clip-path-2);}.cls-5{fill:#fff;}.cls-6{fill:#c61018;}</style><clipPath id="clip-path"><circle class="cls-1" cx="80" cy="80" r="80"/></clipPath><clipPath id="clip-path-2"><rect class="cls-1" x="-40" width="240" height="160"/></clipPath></defs><g id="FLAGS"><g class="cls-2"><rect class="cls-3" x="-40" width="240" height="160"/><g class="cls-4"><polygon class="cls-5" points="217.74 189.72 -68.47 -1.09 -57.74 -29.72 228.47 161.09 217.74 189.72"/><polygon class="cls-6" points="-66.69 -5.87 76.42 89.54 80 80 -63.11 -15.4 -66.69 -5.87"/><polygon class="cls-6" points="83.58 70.46 80 80 223.11 175.41 226.69 165.87 83.58 70.46"/><polygon class="cls-5" points="228.47 -1.09 -57.74 189.72 -68.47 161.09 217.74 -29.72 228.47 -1.09"/><polygon class="cls-6" points="-59.53 184.95 83.58 89.54 80 80 -63.11 175.41 -59.53 184.95"/><polygon class="cls-6" points="76.42 70.46 80 80 223.11 -15.4 219.53 -24.95 76.42 70.46"/><polygon class="cls-5" points="220 53.33 100 53.33 100 -26.67 60 -26.67 60 53.33 -60 53.33 -60 106.67 60 106.67 60 186.67 100 186.67 100 106.67 220 106.67 220 53.33"/><polygon class="cls-6" points="220 64 92 64 92 -26.67 68 -26.67 68 64 -60 64 -60 96 68 96 68 186.67 92 186.67 92 96 220 96 220 64"/></g></g></g></svg>