<svg id="Calque_1" data-name="Calque 1" xmlns="http://www.w3.org/2000/svg" viewBox="0 0 647.29 697.65"><defs><style>.cls-1,.cls-2{fill:#e8e7e7;}.cls-1,.cls-2,.cls-3{stroke:#fff;stroke-width:2.5px;}.cls-1{stroke-miterlimit:10;}.cls-2,.cls-3{stroke-linecap:round;stroke-linejoin:round;}.cls-3{fill:#ed6e50;}</style></defs><polygon class="cls-1" points="603.49 147.34 599.09 159.24 587.28 174.64 585.68 192.24 579.09 207.54 578.99 207.84 581.18 219.44 578.18 236.74 581.38 245.44 578.88 247.74 578.68 251.24 575.38 251.34 574.88 254.84 571.88 255.94 563.28 255.84 564.18 252.54 560.88 251.84 561.28 251.64 558.88 245.94 555.78 246.14 555.28 236.04 546.68 230.34 545.68 231.14 536.28 223.64 530.59 226.14 525.09 222.04 518.68 223.94 510.79 219.14 501.69 225.54 501.88 227.24 499.38 230.84 496.19 230.34 493.79 233.14 493.49 242.44 489.99 243.64 487.49 241.64 480.19 245.94 478.79 248.74 473.38 250.94 473.38 247.74 470.08 245.94 459.69 243.74 457.08 238.34 460.29 235.64 459.08 232.14 457.08 229.64 453.79 229.34 454.19 226.14 451.29 224.94 450.69 221.94 446.69 221.14 442.38 220.54 437.19 224.94 430.29 226.04 427.79 228.24 424.49 226.64 410.38 228.44 404.69 216.14 400.69 211.54 398.49 214.04 395.58 204.74 390.58 198.44 386.49 196.84 386.08 187.24 389.38 186.34 392.69 180.84 389.79 178.94 385.88 169.54 388.79 167.04 389.29 164.84 397.88 153.44 395.08 151.94 396.08 148.94 394.19 146.14 400.29 143.64 396.69 134.64 398.08 131.64 407.08 127.14 413.08 129.24 414.19 126.04 413.79 110.04 416.88 109.64 422.58 101.54 420.99 98.14 422.58 94.24 421.58 87.74 424.79 87.04 430.88 89.04 440.69 84.64 442.58 77.44 447.19 72.54 450.19 74.44 447.29 80.04 447.29 84.64 450.49 91.14 449.38 98.44 456.08 98.24 463.58 104.94 470.38 106.54 470.38 110.14 473.99 109.74 477.88 117.94 478.19 117.94 484.19 117.04 485.58 113.94 493.29 113.94 497.29 117.34 502.99 119.94 506.19 119.74 511.08 115.94 523.59 118.74 526.88 121.04 528.78 127.64 537.78 137.94 540.88 138.64 541.18 135.44 544.38 133.64 547.78 135.24 550.28 139.64 553.09 138.24 560.88 139.54 567.99 134.94 577.38 143.34 577.59 143.44 577.59 143.34 593.88 143.94 603.49 147.34"/><polygon class="cls-1" points="420.99 98.14 422.58 101.54 416.88 109.64 413.79 110.04 414.19 126.04 413.08 129.24 407.08 127.14 398.08 131.64 396.69 134.64 400.29 143.64 394.19 146.14 396.08 148.94 395.08 151.94 397.88 153.44 389.29 164.84 378.88 158.04 374.49 153.44 375.19 150.24 373.19 147.44 370.19 146.64 361.19 149.94 358.29 148.14 356.08 150.54 348.29 149.44 336.19 142.24 333.58 144.04 323.29 141.54 316.19 143.64 309.88 142.44 308.19 138.74 312.58 135.94 308.69 126.44 310.19 117.44 308.69 107.64 312.08 102.44 308.19 92.94 294.19 80.94 294.08 80.94 301.38 70.94 304.58 72.54 301.19 66.34 301.58 63.04 305.69 61.44 303.19 59.54 302.69 55.34 303.38 48.64 306.49 50.64 303.19 46.74 303.29 26.54 309.79 20.94 325.19 16.04 343.38 11.54 346.58 13.44 349.38 20.14 348.29 26.64 349.69 29.64 353.38 29.64 356.58 35.44 359.99 36.94 366.19 32.64 372.79 32.04 377.08 37.04 376.58 40.34 380.08 49.84 383.58 51.14 386.88 48.64 388.08 51.74 394.19 53.14 396.69 63.34 399.08 61.14 405.29 62.64 412.08 61.34 416.58 66.94 419.79 66.24 417.49 73.44 420.88 79.44 417.29 86.24 417.29 86.14 417.08 86.54 421.29 87.94 421.58 87.74 422.58 94.24 420.99 98.14"/><polygon class="cls-1" points="369.08 288.64 371.69 290.84 371.38 297.44 369.88 307.34 365.29 307.34 359.99 311.54 350.49 314.84 347.99 316.94 349.88 322.94 347.99 325.64 338.08 326.74 334.19 333.34 334.19 333.44 328.69 333.24 325.69 334.14 310.88 331.14 308.69 333.94 295.79 335.04 292.69 338.34 290.69 335.64 284.19 336.84 281.38 335.54 283.08 332.44 280.19 331.04 277.29 324.84 273.99 324.84 268.88 320.04 269.69 313.44 267.29 310.04 259.38 298.84 259.08 295.34 253.09 291.94 254.69 295.24 243.49 295.74 240.28 294.14 238.88 287.24 235.59 287.54 235.28 283.94 229.19 280.34 229.09 280.34 235.59 263.14 237.49 252.74 238.28 249.94 245.19 252.84 244.59 249.24 247.78 249.54 256.38 244.54 256.38 244.44 257.08 240.54 260.69 239.34 267.69 227.44 267.29 221.24 265.38 218.64 267.58 216.34 268.08 214.24 265.69 210.04 264.49 201.54 272.88 195.84 272.38 190.64 272.49 185.54 267.19 180.74 267.08 177.04 269.69 174.14 276.49 172.94 282.38 169.44 285.58 171.14 292.38 169.64 292.08 166.54 298.79 158.74 302.88 166.24 303.49 178.44 310.38 184.44 311.79 190.74 314.29 193.24 317.79 192.44 320.88 204.34 320.99 204.34 328.69 203.54 330.88 200.34 332.58 203.34 335.69 201.44 339.88 202.04 340.58 205.44 345.29 210.24 344.69 213.34 341.79 215.04 352.08 215.84 364.58 212.84 372.19 221.24 372.58 227.74 367.38 233.24 368.69 236.54 366.88 239.14 360.99 242.94 364.29 246.04 366.79 253.84 363.69 254.64 361.99 257.34 364.19 264.64 362.29 271.04 365.29 273.44 368.79 281.94 369.08 288.64"/><polygon class="cls-1" points="389.38 186.34 386.08 187.24 386.49 196.84 369.29 200.24 368.99 206.74 364.58 212.84 352.08 215.84 341.79 215.04 344.69 213.34 345.29 210.24 340.58 205.44 339.88 202.04 335.69 201.44 332.58 203.34 330.88 200.34 328.69 203.54 320.99 204.34 320.88 204.34 317.79 192.44 314.29 193.24 311.79 190.74 310.38 184.44 303.49 178.44 302.88 166.24 298.79 158.74 296.88 152.24 299.38 149.44 303.69 149.44 308.19 138.74 309.88 142.44 316.19 143.64 323.29 141.54 333.58 144.04 336.19 142.24 348.29 149.44 356.08 150.54 358.29 148.14 361.19 149.94 370.19 146.64 373.19 147.44 375.19 150.24 374.49 153.44 378.88 158.04 389.29 164.84 388.79 167.04 385.88 169.54 389.79 178.94 392.69 180.84 389.38 186.34"/><polygon class="cls-1" points="267.29 221.24 267.69 227.44 260.69 239.34 257.08 240.54 256.38 244.44 256.38 244.54 247.78 249.54 244.59 249.24 245.19 252.84 238.28 249.94 237.49 252.74 235.59 263.14 229.09 280.34 229.19 280.34 221.69 287.14 219.19 284.44 208.28 284.74 201.99 285.64 197.88 290.94 184.09 291.84 186.59 298.24 191.28 302.84 196.69 323.04 196.38 331.34 199.19 333.54 188.99 338.54 186.28 336.64 179.09 336.94 180.59 333.64 170.69 337.44 167.49 336.94 166.69 340.04 161.38 335.74 154.78 334.44 152.99 330.54 147.59 329.24 138.49 321.74 136.09 313.84 124.39 300.14 123.98 295.14 132.69 285.84 127.28 280.24 120.69 277.84 124.08 276.34 124.78 268.94 132.38 266.04 124.28 266.74 118.69 270.84 116.39 268.54 109.58 267.44 106.98 260.44 111.98 255.64 129.19 250.54 129.59 243.74 135.49 239.94 150.28 239.44 152.09 236.34 162.19 231.94 169.78 235.84 170.38 233.54 174.38 223.84 180.59 221.34 178.38 201.84 180.19 199.24 180.28 185.54 189.88 186.54 189.99 186.54 193.69 190.64 196.38 188.84 199.19 190.74 206.78 187.14 216.99 187.14 217.78 184.04 220.78 184.34 222.99 191.04 226.69 192.74 226.69 196.04 226.59 196.14 229.99 196.24 242.38 189.64 245.49 191.34 247.19 200.84 255.38 206.44 258.58 205.24 262.08 209.24 265.69 210.04 268.08 214.24 267.58 216.34 265.38 218.64 267.29 221.24"/><path class="cls-1" d="M343.79,389.64l1.9-2.8-1.3-6.2-5-6.2,10.4-9.6-2.5-7.6.5-4.6-4-9.4c-2.8-1.8-5.5-3.6-8.3-5.5l-1.3-4.3-5.5-.2-3,.9-14.8-3-2.2,2.8-12.9,1.1-3.1,3.3-2-2.7-6.5,1.2-2.8-1.3,1.7-3.1-2.9-1.4-2.9-6.2H274l-5.1-4.8.8-6.6-2.4-3.4-7.9-11.2-.3-3.5-6-3.4,1.6,3.3-11.2.5-3.2-1.6-1.4-6.9-3.3.3-.3-3.6-6.1-3.6-7.5,6.8-2.5-2.7-10.9.3-6.3.9-4.1,5.3-13.8.9,2.5,6.4,4.7,4.6,5.4,20.2-.3,8.3,2.8,2.2-10.2,5-2.7-1.9-7.2.3,1.5-3.3-9.9,3.8-5.1,10.8,3.3,1.1,4.6,8.9-3.1.6,1.8,6-3.3,6.4-5.4,3.7,1.5,4.8,8.8,5.5,11.7,12.6,2.3,8.3v.1l.7,3.1-2.4,3.8-2.8-8.8-12.1-11.9-1-3.1-3.3,6.5-7,56.3,4.5-8.8,5,5.8.3,3.2-7.2-1-3.6,7.8.1,5.3-12.4,56.2-4.2,7.9-.1.1-5.2,7.1-7,5.1,6.5,3.1.5,3.5,2.5-2.4,7.5,1.5,1.6,3.2-2.1,6.7-3,2.6,1.5,3.2,4.3,1,.6-4,3.3-1,.2,3.7,6.6,3.5,10.9,4.2,7-.3,2.9,5.2,8.8,7.2,2.7-1.8,2.6,1.6,6.6-3.4h.2l1.4-9.7,1.8-3.1,3.7-.9-.4-3.4,9-10.3-.9-3.5,3-1.6-.5-8.1h-3.2l1.6-3.1-2.8-6.5v-.1l-7.4-.3-1.8-3.1,4.8-12.4-.6-7.2,10.5-3,.7,3.3,2.9-1.4.3-3.3,4.2.7,1.6-2.8,9.3.8,5.6-3.3,9.7,1.2,3-1.5,3.9-5.3,3.3.3-1.5-3.1,4.9-6.2-2.7-1.5v-3.3l8.5-2.2-3-10.3,3.8-3.5,5.2-7.2,6.9-3.9-.8-4,5.1-3.6,1.6-6,.7-5.6,9.1-.9,7.6,6.8,5.9-2.9,7.6.1,3.7-2.1-1.7-3.8,3.5-1.2.3-3.9,2.6-2.1-2.1-2.5,8.6-10.7.7-3.9,7,2.2-.8-6.7Zm-129.6,157.8.1,3-2.5-1.7Z"/><path class="cls-1" d="M569.19,402.14l1.3,3-2.2,4-21.7,9.3-6.8,1.4-2.2,2.2-8.8-3.9-1.7,4.3,2,4.7,4.9,3.5-.4,6.5-3.5-1.2-14.2,4.3-1,3.1-6.1,1.4-1.1,3.5-.4,3.7-6.5.4-2.8,7.6,3.4,2.5-2.8,2.9-4.7-1.6-3.6,5.6,1.7,3.1,11.2,6.3L503,484l-1.1.3-2.7.1-4.8,5.3-5.8-2.5-.1-3.3L478,483l-.6-6.4-2.8,2.4-2.7-1.6-1.28.57L472,476.4l-2.05-3.33-3.16-1.88-2.8,1.92.63,4.64,2.19,2-4.67,2.1-3.9-4.8-6.6-.8.1,4.2-6.7-3.8h-3.1l-2.9,2.5-.1-3.6-7.9,5-8.8-5.7-3.1-6.7-4.7-9.3-2.3-10.1-10.2-8.7-3.1-.3-.2,3.3-7.2-1.4-1.7-6.4-2.5-1.9-1.2,1.1-7.6,6.4-2-2.6-7.7,17.9-2.9-5.8.5-3.4-2.6-1.7-1.4-4.8-5.9-4.4-5.3,4.7-3.4,10.1-4.3,5.5-7.1-1.7-5.9,3.6-3.6-5.6,1.9-6.5-4.2-6.7-1.1-6.2,3.7-2.1-1.7-3.8,3.5-1.2.3-3.9,2.6-2.1-2.1-2.5,8.6-10.7.7-3.9,7,2.2-.8-6.7-1.4-8.9,1.9-2.8-1.3-6.2-5-6.2,10.4-9.6-2.5-7.6.5-4.6-4-9.4c-2.8-1.8-5.5-3.6-8.3-5.5l-1.3-4.3v-.1l3.9-6.6,9.9-1.1,1.9-2.7-1.9-6,2.5-2.1,9.5-3.3,5.3-4.2h4.6l6.5,7.2,7.1.1,3.2-1.9,4.9,4.2,6.7-6.8,7.5,15.2,8.8,3.3,1.9,2.7-.6,6.1-4.1,5.2V346l5.8,3.6,8.9-1.6,2.4,2.4,6.4-4.4.3-3.3,2.7-2.2,2.4,2.1,2.5-1.9,2.8,1.7,1.8-2.6,6.4,8.6,6.6-23.4,6.6,1.6,6.1-1.4,5.4,3.7,4.8,8.7H487l.1,3.4,3.3-.2,4.5-4.9,3.7,1.8.5,3.1,4.4-.2,6.1-3.6,5.3-7.4,3.9,2.3-1.4,7.8-6.3,4-.6,5.6v.1l.3-.1,7.5-1,7.9-6-2.7-3.5,3.1-6.5,4,1.6,5.6-4.7,9.4-.6,3.8.7-.5,3.2,4.1,6.1-2.6,6.9,8.8,8.3,3.7,5.2-1,3.5-9.3,9-.2.2v.2l.5,3.4,3.3,3,6.2,2.5-.7,3.5,2.4,6.2,8.3,5.7Z"/><polygon class="cls-1" points="461.99 498.84 456.88 504.34 452.49 509.04 450.29 520.94 446.69 519.94 441.88 525.34 443.08 528.34 436.58 530.34 432.29 537.04 431.99 537.04 428.69 536.24 425.49 530.84 425.49 530.74 425.38 530.64 415.88 533.34 403.58 542.24 396.19 550.44 388.58 550.44 382.49 554.94 379.49 558.04 373.08 570.04 372.58 581.04 373.08 600.84 379.58 608.84 369.88 606.34 362.88 607.54 353.79 612.34 353.79 615.64 346.69 616.14 341.58 612.14 330.88 609.74 327.38 609.94 322.38 614.34 318.79 614.14 316.08 607.84 306.29 604.84 308.38 599.44 296.49 593.74 292.79 593.94 291.58 597.14 285.19 588.74 278.08 589.14 272.58 584.24 261.49 581.34 253.88 578.74 251.09 580.24 251.49 587.64 248.99 590.04 241.88 589.64 230.88 589.84 228.09 587.44 214.28 589.34 201.78 578.24 201.78 578.14 203.19 568.44 204.99 565.34 208.69 564.44 208.28 561.04 217.28 550.74 216.38 547.24 219.38 545.64 218.88 537.54 215.69 537.54 217.28 534.44 214.49 527.94 214.49 527.84 207.09 527.54 205.28 524.44 210.09 512.04 209.49 504.84 219.99 501.84 220.69 505.14 223.59 503.74 223.88 500.44 228.09 501.14 229.69 498.34 238.99 499.14 244.59 495.84 254.28 497.04 257.29 495.54 261.19 490.24 264.49 490.54 262.99 487.44 267.88 481.24 265.19 479.74 265.19 476.44 273.69 474.24 270.69 463.94 274.49 460.44 279.69 453.24 286.58 449.34 285.79 445.34 290.88 441.74 292.49 435.74 293.19 430.14 302.29 429.24 309.88 436.04 315.79 433.14 323.38 433.24 324.49 439.44 328.69 446.14 326.79 452.64 330.38 458.24 336.29 454.64 343.38 456.34 347.69 450.84 351.08 440.74 356.38 436.04 362.29 440.44 363.69 445.24 366.29 446.94 365.79 450.34 368.69 456.14 376.38 438.24 378.38 440.84 385.99 434.44 387.19 433.34 389.69 435.24 391.38 441.64 398.58 443.04 398.79 439.74 401.88 440.04 412.08 448.74 414.38 458.84 419.08 468.14 422.19 474.84 430.99 480.54 438.88 475.54 438.99 479.14 441.88 476.64 444.99 476.64 451.69 480.44 454.69 485.44 454.88 491.64 461.99 498.84"/><path class="cls-2" d="M558.89,245.94l-3.1.2-.5-10.1-8.6-5.7-1,.8-9.4-7.5-5.7,2.5-5.5-4.1-6.4,1.9-7.9-4.8-9.1,6.4.2,1.7-2.5,3.6-3.2-.5-2.4,2.8-.3,9.3-3.5,1.2-2.5-2-7.3,4.3-1.4,2.8-5.4,2.2v-3.2l-3.3-1.8-10.4-2.2-2.6-5.4,3.2-2.7-1.2-3.5-2-2.5-3.3-.3.4-3.2-2.9-1.2-.6-3-4-.8-4.3-.6-5.2,4.4-6.9,1.1-2.5,2.2-3.3-1.6-14.1,1.8-5.7-12.3-4-4.6-2.2,2.5-2.9-9.3-5-6.3-4.1-1.6-17.2,3.4-.3,6.5-4.4,6.1,7.6,8.4.4,6.5-5.2,5.5,1.3,3.3-1.8,2.6-5.9,3.8,3.3,3.1,2.5,7.8-3.1.8-1.7,2.7,2.2,7.3-1.9,6.4,3,2.4,3.5,8.5.3,6.7,2.6,2.2-.3,6.6-1.5,9.9,6.5,7.2,7.1.1,3.2-1.9,4.9,4.2,6.7-6.8,7.5,15.2,8.8,3.3,1.9,2.7-.6,6.1-4.1,5.2V346l5.8,3.6,8.9-1.6,2.4,2.4,6.4-4.4.3-3.3,2.7-2.2,2.4,2.1,2.5-1.9,2.8,1.7,1.8-2.6,6.4,8.6,6.6-23.4,6.6,1.6,6.1-1.4,5.4,3.7,4.8,8.7H487l.1,3.4,3.3-.2,4.5-4.9,3.7,1.8.5,3.1,4.4-.2,6.1-3.6,5.3-7.4-.2-.1,3-10.1,1-3.5,13.1-12.1-.9-10.9,9.7-6.6,13.1-16.3-.2-3.2,2.6-2.3-4.9-4.1,1.1-3.3.2-.3,4.1-4.5h.3v-.2l4.4-.5Z"/><polygon class="cls-2" points="604.38 485.84 602.18 490.74 595.18 500.44 594.68 508.54 578.38 517.44 577.28 522.04 570.78 525.14 568.18 529.74 565.88 533.74 559.88 534.54 552.88 543.64 556.88 545.54 554.38 551.54 550.18 551.24 547.18 553.94 540.78 555.34 540.68 558.54 532.38 557.24 530.09 563.44 528.78 560.24 522.18 558.44 512.18 561.34 512.49 558.24 505.58 554.24 505.49 554.04 502.38 554.94 491.49 552.24 487.08 542.44 472.19 544.14 469.87 541.32 471.69 541.17 473.94 537.81 471.14 538.22 470.12 533.18 465.68 531.98 464.13 535.4 465.64 537.85 463.99 537.74 462.58 540.54 464.99 543.14 454.08 544.34 449.99 543.34 450.58 540.24 448.29 537.54 432.29 537.04 436.58 530.34 443.08 528.34 441.88 525.34 446.69 519.94 450.29 520.94 452.49 509.04 456.88 504.34 461.99 498.84 454.88 491.64 454.69 485.44 451.69 480.44 451.58 476.24 458.19 477.04 462.08 481.84 466.75 479.74 464.56 477.75 463.94 473.11 466.74 471.19 469.89 473.07 471.94 476.4 470.61 478.01 471.88 477.44 474.58 479.04 477.38 476.64 477.99 483.04 488.49 483.94 488.58 487.24 494.38 489.74 499.19 484.44 501.88 484.34 502.99 484.04 503.19 478.74 491.99 472.44 490.29 469.34 493.88 463.74 498.58 465.34 501.38 462.44 497.99 459.94 500.79 452.34 507.29 451.94 507.69 448.24 508.79 444.74 514.88 443.34 515.88 440.24 530.09 435.94 533.59 437.14 533.99 430.64 529.09 427.14 527.09 422.44 528.78 418.14 537.59 422.04 539.78 419.84 546.59 418.44 546.68 418.44 549.18 424.34 552.28 424.44 553.28 431.84 559.09 435.54 565.88 435.94 570.18 446.44 566.18 446.34 564.09 448.74 563.99 448.84 563.88 449.04 562.38 455.64 559.88 457.74 564.28 463.84 562.18 469.34 562.38 469.54 569.28 477.84 576.28 479.24 586.59 484.74 599.88 479.94 604.38 485.84"/><polygon class="cls-3" points="578.78 661.04 575.88 663.24 579.59 663.54 572.99 680.14 569.59 678.74 568.18 675.64 555.59 671.74 550.28 666.84 550.49 663.44 555.99 659.74 545.28 657.64 548.28 649.74 547.28 643.34 539.18 646.14 542.49 636.74 545.38 634.94 536.59 630.04 535.38 623.84 541.18 619.64 536.88 614.84 533.99 616.04 534.59 613.04 534.59 612.74 538.99 607.14 538.68 603.24 541.18 600.04 544.38 599.74 545.28 596.54 557.28 591.74 561.28 586.34 570.88 587.84 570.38 568.24 573.09 565.94 576.28 567.14 578.18 577.44 577.59 589.34 582.18 595.74 586.38 624.84 580.38 638.24 580.28 645.24 580.38 645.54 581.18 654.94 578.78 661.04"/><polygon class="cls-2" points="165.68 368.73 164.18 372.33 156.98 359.83 158.88 356.73 164.58 360.43 165.68 368.73"/><polygon class="cls-2" points="162.78 346.23 159.48 347.63 154.48 343.13 154.58 343.13 154.48 343.03 156.68 342.43 162.78 346.23"/><polygon class="cls-2" points="312.58 135.94 308.19 138.74 303.69 149.44 299.38 149.44 296.88 152.24 298.79 158.74 292.08 166.54 292.38 169.64 285.58 171.14 282.38 169.44 276.49 172.94 269.69 174.14 267.08 177.04 267.19 180.74 272.49 185.54 272.38 190.64 272.88 195.84 264.49 201.54 265.69 210.04 262.08 209.24 258.58 205.24 255.38 206.44 247.19 200.84 245.49 191.34 242.38 189.64 229.99 196.24 226.59 196.14 226.69 196.04 226.69 192.74 222.99 191.04 220.78 184.34 217.78 184.04 216.99 187.14 206.78 187.14 199.19 190.74 196.38 188.84 193.69 190.64 189.99 186.54 189.88 186.54 180.28 185.54 174.09 183.04 166.19 188.34 163.19 187.34 157.78 176.54 165.78 175.74 166.88 172.34 164.09 174.14 161.19 172.74 156.49 162.24 158.99 155.84 159.59 149.04 157.38 145.94 158.88 134.64 149.28 124.44 146.49 112.94 148.59 110.64 147.99 105.14 144.38 103.04 144.59 99.94 157.28 105.14 164.69 104.64 167.49 102.64 174.78 103.44 175.88 106.44 173.19 115.24 180.38 127.14 180.59 127.14 180.59 127.04 186.38 124.44 197.09 128.24 211.09 129.74 220.59 133.74 231.38 130.74 236.88 125.94 244.59 124.24 244.69 124.24 244.69 124.14 246.49 123.54 246.28 123.44 236.38 121.14 234.49 118.64 240.99 104.54 256.88 95.94 281.69 89.74 293.88 81.24 294.19 80.94 308.19 92.94 312.08 102.44 308.69 107.64 310.19 117.44 308.69 126.44 312.58 135.94"/><polygon class="cls-2" points="137.28 179.44 134.09 179.14 132.38 176.44 132.38 174.64 135.38 174.64 137.28 179.44"/><polygon class="cls-2" points="180.59 221.34 174.38 223.84 170.38 233.54 169.78 235.84 162.19 231.94 152.09 236.34 150.28 239.44 135.49 239.94 129.59 243.74 129.19 250.54 111.98 255.64 110.19 252.74 113.58 252.54 110.48 250.74 96.58 251.94 91.19 247.64 98.19 248.54 100.48 245.84 98.08 243.04 93.98 242.44 92.28 245.24 88.78 239.84 90.19 246.44 87.48 244.34 83.89 245.24 80.78 247.94 82.19 251.14 79.78 248.54 80.58 244.34 78.28 241.24 77.98 238.04 80.69 236.64 77.69 238.04 73.58 236.24 71.89 233.34 74.28 230.94 70.98 230.24 70.28 226.84 70.78 233.44 67.78 234.94 64.98 233.24 64.19 224.54 63.88 228.04 59.69 229.74 56.48 228.94 57.19 225.84 54.28 226.84 53.78 223.64 53.78 226.84 50.69 227.54 45.38 220.94 40.19 222.74 36.88 220.54 37.19 217.04 39.09 216.84 37.48 213.64 37.19 217.04 35.98 217.24 36.88 220.54 36.88 221.04 32.78 225.64 24.48 224.94 25.79 218.84 21.59 211.84 10.88 207.84 12.59 205.04 26.68 203.64 29.48 205.14 31.29 202.34 30.29 198.74 24.18 195.14 21.09 194.94 19.09 197.94 16.39 192.14 18.09 188.04 19.98 190.74 26.48 192.04 30.68 190.84 32.19 193.64 38.88 195.24 31.89 192.24 35.38 191.54 32.09 190.14 32.59 186.84 25.89 188.44 26.48 184.64 30.68 182.64 16.89 186.84 13.88 185.44 10.88 186.74 8.88 184.14 10.38 174.04 12.59 171.44 21.98 172.24 19.09 170.74 30.48 164.54 32.19 167.54 48.38 162.74 48.48 170.04 50.28 166.44 52.78 169.44 53.48 165.64 56.69 164.94 62.09 168.24 62.28 168.24 65.78 167.74 66.08 160.84 71.19 156.64 72.78 159.44 82.78 155.34 83.39 159.34 88.69 155.74 87.19 163.14 89.08 159.74 92.48 159.44 91.78 162.54 95.08 163.24 100.19 172.04 100.19 175.54 104.78 178.54 105.78 182.64 117.78 172.64 121.89 172.24 122.98 175.24 126.48 173.64 127.58 177.14 132.09 176.74 132.19 174.64 132.38 174.64 132.38 176.44 134.09 179.14 137.28 179.44 137.38 179.64 139.99 181.74 139.69 181.24 137.09 175.44 141.59 171.14 145.19 170.24 144.88 176.64 157.78 176.54 163.19 187.34 166.19 188.34 174.09 183.04 180.28 185.54 180.19 199.24 178.38 201.84 180.59 221.34"/><path class="cls-1" d="M534.08,559.23h-.2l-.1.1h-.1v.1l-.1.1v.4a.1.1,0,0,1,.1.1c.1,0,.1,0,.2.1h.3v-.2l-.1.1H534c-.1,0-.1,0-.1-.1h-.1v-.5h.1a.1.1,0,0,1,.1-.1h.1l.1.1v-.1C534.18,559.23,534.18,559.23,534.08,559.23Z"/><path class="cls-1" d="M534.88,559.33v.1h0v.7h.2v-.6l.1-.1c.1-.1.1-.1.2-.1h0v.1h.1v.7h.2v-.7l-.1-.1c0-.1-.1-.1-.2-.1h0c-.1,0-.1,0-.2.1a.1.1,0,0,1-.2,0l-.1-.1h-.2a.1.1,0,0,1-.1.1v.1h0v-.2h-.2v.9h.2v-.6a124395540479,124395540479,0,0,1,.2-.2Z"/><path class="cls-1" d="M536.08,559.23H536a.1.1,0,0,0-.1.1v.1c.1,0,.1,0,.2-.1h.1a.1.1,0,0,1,.1.1h.1v.1h0v.1h-.3c-.1,0-.1.1-.2.1h0v.3c.1,0,.1.1.2.1h.2a.1.1,0,0,1,.1-.1h0v.1h.2v-.7h-.1a.1.1,0,0,0-.1-.1c0-.1-.1-.1-.2-.1Zm.3.5v.2h-.1v.1h-.2v-.1H536v-.1a.1.1,0,0,1,.1-.1h.3Z"/><path class="cls-1" d="M537.48,559.53c0-.1-.1-.1-.1-.2a.1.1,0,0,0-.1-.1h-.2a.1.1,0,0,0-.1.1h-.1v-.1h-.1v1.3h.1V560a.35.35,0,0,0,.2.1h.2l.1-.1v-.1a248791080958.14,248791080958.14,0,0,0,.2-.2C537.58,559.63,537.58,559.53,537.48,559.53Zm-.3-.2.1.1h0a.1.1,0,0,1,.1.1v.3a.1.1,0,0,1-.1.1l-.1.1h0c-.1,0-.1,0-.2-.1h-.1v-.5h.1a.1.1,0,0,0,.1-.1Z"/></svg>