<svg id="Calque_1" data-name="Calque 1" xmlns="http://www.w3.org/2000/svg" viewBox="0 0 647.29 697.65"><defs><style>.cls-1,.cls-2{fill:#e8e7e7;stroke:#fff;stroke-width:2.5px;}.cls-1{stroke-miterlimit:10;}.cls-2{stroke-linecap:round;stroke-linejoin:round;}</style></defs><path class="cls-1" d="M599.89,479.94l-13.3,4.8-10.3-5.5-7-1.4-6.9-8.3-.2-.2,2.1-5.5-4.4-6.1,2.5-2.1,1.5-6.6.1-.2.1-.1,2.1-2.4,4,.1-4.3-10.5-6.8-.4-5.8-3.7-1-7.4-3.1-.1-2.5-5.9h-.1l21.7-9.3,2.2-4-1.3-3,3.2-5.9-8.3-5.7-2.4-6.2.7-3.5-6.2-2.5-3.3-3-.5-3.4v-.2l.2-.2,9.3-9,1-3.5-3.7-5.2-8.8-8.3,2.6-6.9-4.1-6.1.5-3.2-3.8-.7-9.4.6-5.6,4.7-4-1.6-3.1,6.5,2.7,3.5-7.9,6-7.5,1-.3.1v-.1l.6-5.6,6.3-4,1.4-7.8-3.9-2.3-.2-.1,3-10.1,1-3.5,13.1-12.1-.9-10.9,9.7-6.6,13.1-16.3-.2-3.2,2.6-2.3-4.9-4.1,1.1-3.3.2-.3,4.1-4.5h.3v-.2l4.4-.5-.4.2,3.3.7-.9,3.3,8.6.1,3-1.1.5-3.5,3.3-.1.2-3.5,2.5-2.3-3.2-8.7,3-17.3-2.2-11.6.1-.3,6.6-15.3,1.6-17.6,11.8-15.4,4.4-11.9-9.6-3.4-16.3-.6v.1l-.2-.1-9.4-8.4-7.1,4.6-7.8-1.3-2.8,1.4-2.5-4.4-3.4-1.6-3.2,1.8-.3,3.2-3.1-.7-9-10.3-1.9-6.6-3.3-2.3-12.5-2.8-4.9,3.8-3.2.2-5.7-2.6-4-3.4h-7.7l-1.4,3.1-6,.9h-.3l-3.9-8.2-3.6.4v-3.6l-6.8-1.6-7.5-6.7-6.7.2,1.1-7.3-3.2-6.5V80l2.9-5.6-3-1.9-4.6,4.9-1.9,7.2-9.8,4.4-6.1-2-3.2.7-.3.2-4.2-1.4.2-.4v.1l3.6-6.8-3.4-6,2.3-7.2-3.2.7-4.5-5.6-6.8,1.3-6.2-1.5-2.4,2.2-2.5-10.2-6.1-1.4-1.2-3.1-3.3,2.5-3.5-1.3-3.5-9.5.5-3.3-4.3-5-6.6.6-6.2,4.3-3.4-1.5-3.2-5.8h-3.7l-1.4-3,1.1-6.5-2.8-6.7-3.2-1.9L325.19,16l-15.4,4.9-6.5,5.6-.1,20.2,3.3,3.9-3.1-2-.7,6.7.5,4.2,2.5,1.9-4.1,1.6-.4,3.3,3.4,6.2-3.2-1.6-7.3,10h.1l-.3.3-12.2,8.5-24.8,6.2-15.9,8.6-6.5,14.1,1.9,2.5,9.9,2.3.2.1-1.8.6v.1h-.1l-7.7,1.7-5.5,4.8-10.8,3-9.5-4-14-1.5-10.7-3.8-5.8,2.6v.1h-.2l-7.2-11.9,2.7-8.8-1.1-3-7.3-.8-2.8,2-7.4.5-12.7-5.2-.2,3.1,3.6,2.1.6,5.5-2.1,2.3,2.8,11.5,9.6,10.2-1.5,11.3,2.2,3.1-.6,6.8-2.5,6.4,4.7,10.5,2.9,1.4,2.8-1.8-1.1,3.4-8,.8-12.9.1.3-6.4-3.6.9-4.5,4.3,2.6,5.8.3.5-2.6-2.1-.1-.2-3.2-.3-1.7-2.7v-1.8h-.2l-.1,2.1-4.5.4-1.1-3.5-3.5,1.6-1.1-3-4.1.4-12,10-1-4.1-4.6-3V172l-5.1-8.8-3.3-.7.7-3.1-3.4.3-1.9,3.4,1.5-7.4-5.3,3.6-.6-4-10,4.1-1.6-2.8-5.1,4.2-.3,6.9-3.5.5h-.2l-5.4-3.3-3.2.7-.7,3.8-2.5-3-1.8,3.6-.1-7.3-16.2,4.8-1.7-3-11.4,6.2,2.9,1.5-9.4-.8-2.2,2.6-1.5,10.1,2,2.6,3-1.3,3,1.4,13.8-4.2-4.2,2-.6,3.8,6.7-1.6-.5,3.3,3.3,1.4-3.5.7,7,3-6.7-1.6-1.5-2.8-4.2,1.2-6.5-1.3-1.9-2.7-1.7,4.1,2.7,5.8,2-3,3.1.2,6.1,3.6,1,3.6-1.8,2.8-2.8-1.5L12.59,205l-1.7,2.8,10.7,4,4.2,7-1.3,6.1,8.3.7,4.1-4.6v-.5l-.9-3.3,1.2-.2.3-3.4,1.6,3.2-1.9.2-.3,3.5,3.3,2.2,5.2-1.8,5.3,6.6,3.1-.7v-3.2l.5,3.2,2.9-1-.7,3.1,3.2.8,4.2-1.7.3-3.5.8,8.7,2.8,1.7,3-1.5-.5-6.6.7,3.4,3.3.7-2.4,2.4,1.7,2.9,4.1,1.8,3-1.4L78,238l.3,3.2,2.3,3.1-.8,4.2,2.4,2.6-1.4-3.2,3.1-2.7,3.6-.9,2.7,2.1-1.4-6.6,3.5,5.4,1.7-2.8,4.1.6,2.4,2.8-2.3,2.7-7-.9,5.4,4.3,13.9-1.2,3.1,1.8-3.4.2,1.8,2.9-5,4.8,2.6,7,6.8,1.1,2.3,2.3,5.6-4.1,8.1-.7-7.6,2.9-.7,7.4-3.4,1.5,6.6,2.4,5.4,5.6-8.7,9.3.4,5,11.7,13.7,2.4,7.9,9.1,7.5,5.4,1.3,1.8,3.9,6.6,1.3,5.3,4.3.8-3.1,3.2.5-5.1,10.8,3.3,1.1,4.6,8.9-3.1.6,1.8,6-3.3,6.4-5.4,3.7,1.5,4.8,8.8,5.5,11.7,12.6,2.3,8.3v.1l.7,3.1-2.4,3.8-2.8-8.8-12.1-11.9-1-3.1-3.3,6.5-7,56.3,4.5-8.8,5,5.8.3,3.2-7.2-1-3.6,7.8.1,5.3-12.4,56.2-4.2,7.9-.1.1-5.2,7.1-7,5.1,6.5,3.1.5,3.5,2.5-2.4,7.5,1.5,1.6,3.2-2.1,6.7-3,2.6,1.5,3.2,4.3,1,.6-4,3.3-1,.2,3.7,6.6,3.5,10.9,4.2,7-.3,2.9,5.2,8.8,7.2,2.7-1.8,2.6,1.6,6.6-3.4h.2v.1l12.5,11.1,13.8-1.9,2.8,2.4,11-.2,7.1.4,2.5-2.4-.4-7.4,2.8-1.5,7.6,2.6,11.1,2.9,5.5,4.9,7.1-.4,6.4,8.4,1.2-3.2,3.7-.2,11.9,5.7-2.1,5.4,9.8,3,2.7,6.3,3.6.2,5-4.4,3.5-.2,10.7,2.4,5.1,4,7.1-.5v-3.3l9.1-4.8,7-1.2,9.7,2.5-6.5-8-.5-19.8.5-11,6.4-12,3-3.1,6.1-4.5h7.6l7.4-8.2,12.3-8.9,9.5-2.7.1.1v.1l3.2,5.4,3.3.8h.3l16,.5,2.3,2.7-.6,3.1,4.1,1,10.9-1.2-2.4-2.6,1.4-2.8,1.66.11-1.51-2.45,1.54-3.42,4.44,1.2,1,5,2.79-.41-2.24,3.36-1.83.15,2.32,2.82,14.9-1.7,4.4,9.8,10.9,2.7,3.1-.9.1.2,6.9,4-.3,3.1,10-2.9,6.6,1.8,1.3,3.2,2.3-6.2,8.3,1.3.1-3.2,6.4-1.4,3-2.7,4.2.3,2.5-6-4-1.9,7-9.1,6-.8,2.3-4,2.6-4.6,6.5-3.1,1.1-4.6,16.3-8.9.5-8.1,7-9.7,2.2-4.9Zm-385.6,70.5-2.5-1.7,2.4-1.3Z"/><polygon class="cls-1" points="578.78 661.04 575.88 663.24 579.59 663.54 572.99 680.14 569.59 678.74 568.18 675.64 555.59 671.74 550.28 666.84 550.49 663.44 555.99 659.74 545.28 657.64 548.28 649.74 547.28 643.34 539.18 646.14 542.49 636.74 545.38 634.94 536.59 630.04 535.38 623.84 541.18 619.64 536.88 614.84 533.99 616.04 534.59 613.04 534.59 612.74 538.99 607.14 538.68 603.24 541.18 600.04 544.38 599.74 545.28 596.54 557.28 591.74 561.28 586.34 570.88 587.84 570.38 568.24 573.09 565.94 576.28 567.14 578.18 577.44 577.59 589.34 582.18 595.74 586.38 624.84 580.38 638.24 580.28 645.24 580.38 645.54 581.18 654.94 578.78 661.04"/><polygon class="cls-2" points="165.68 368.73 164.18 372.33 156.98 359.83 158.88 356.73 164.58 360.43 165.68 368.73"/><polygon class="cls-2" points="162.78 346.23 159.48 347.63 154.48 343.13 154.58 343.13 154.48 343.03 156.68 342.43 162.78 346.23"/><polygon class="cls-2" points="137.29 179.44 134.09 179.14 132.39 176.44 132.39 174.64 135.39 174.64 137.29 179.44"/><path class="cls-1" d="M534.08,559.23h-.2l-.1.1h-.1v.1l-.1.1v.4a.1.1,0,0,1,.1.1c.1,0,.1,0,.2.1h.3v-.2l-.1.1H534c-.1,0-.1,0-.1-.1h-.1v-.5h.1a.1.1,0,0,1,.1-.1h.1l.1.1v-.1C534.18,559.23,534.18,559.23,534.08,559.23Z"/><path class="cls-1" d="M534.88,559.33v.1h0v.7h.2v-.6l.1-.1c.1-.1.1-.1.2-.1h0v.1h.1v.7h.2v-.7l-.1-.1c0-.1-.1-.1-.2-.1h0c-.1,0-.1,0-.2.1a.1.1,0,0,1-.2,0l-.1-.1h-.2a.1.1,0,0,1-.1.1v.1h0v-.2h-.2v.9h.2v-.6a124395540479,124395540479,0,0,1,.2-.2Z"/><path class="cls-1" d="M536.08,559.23H536a.1.1,0,0,0-.1.1v.1c.1,0,.1,0,.2-.1h.1a.1.1,0,0,1,.1.1h.1v.1h0v.1h-.3c-.1,0-.1.1-.2.1h0v.3c.1,0,.1.1.2.1h.2a.1.1,0,0,1,.1-.1h0v.1h.2v-.7h-.1a.1.1,0,0,0-.1-.1c0-.1-.1-.1-.2-.1Zm.3.5v.2h-.1v.1h-.2v-.1H536v-.1a.1.1,0,0,1,.1-.1h.3Z"/><path class="cls-1" d="M537.48,559.53c0-.1-.1-.1-.1-.2a.1.1,0,0,0-.1-.1h-.2a.1.1,0,0,0-.1.1h-.1v-.1h-.1v1.3h.1V560a.35.35,0,0,0,.2.1h.2l.1-.1v-.1a248791080958.14,248791080958.14,0,0,0,.2-.2C537.58,559.63,537.58,559.53,537.48,559.53Zm-.3-.2.1.1h0a.1.1,0,0,1,.1.1v.3a.1.1,0,0,1-.1.1l-.1.1h0c-.1,0-.1,0-.2-.1h-.1v-.5h.1a.1.1,0,0,0,.1-.1Z"/></svg>