<svg width="647" height="698" xmlns="http://www.w3.org/2000/svg" version="1.1">

 <g>
  <title>Layer 1</title>
  <path id="svg_1" fill="#E8E7E7" d="m346,11c2.90068,2.14865 4.09606,4.53491 5,8c-0.13264,3.03539 -0.51666,6.00199 -1,9c1.65,0 3.3,0 5,0c0.99,1.98 1.98,3.96 3,6c3.54519,-1.3976 3.54519,-1.3976 7,-3c4.71167,-0.64797 7.97764,-0.68158 12,2c2.51574,3.77361 2.74155,6.57961 3,11c0.31323,1.67056 0.63679,3.33959 1,5c2.31,-0.99 4.62,-1.98 7,-3c0.33,1.65 0.66,3.3 1,5c2.31,0.33 4.62,0.66 7,1c0.33,2.64 0.66,5.28 1,8c1.10859,-0.04641 2.21719,-0.09281 3.35938,-0.14062c1.46351,-0.03753 2.92705,-0.07393 4.39062,-0.10938c0.72961,-0.03352 1.45922,-0.06703 2.21094,-0.10156c5.54461,-0.10081 5.54461,-0.10081 8.24219,2.36719c0.59296,0.65484 1.18593,1.30968 1.79687,1.98437c2.66835,0.33498 2.66835,0.33498 5,0c-0.17918,0.65227 -0.35836,1.30453 -0.54297,1.97656c-1.46919,6.03703 -1.37592,8.43947 1.54297,14.02344c-1.3125,3.375 -1.3125,3.375 -3,6c6.70519,0.19818 12.65177,0.30845 19,-2c0.04125,-0.84562 0.0825,-1.69125 0.125,-2.5625c1.16409,-4.57322 3.64899,-7.10297 6.875,-10.4375c1.98,0.66 3.96,1.32 6,2c-0.875,4.75 -0.875,4.75 -2,7c-0.30993,4.13315 -0.30993,4.13315 1.0625,7.9375c1.42803,3.14166 0.57276,5.75915 -0.0625,9.0625c1.54688,-0.18563 1.54688,-0.18563 3.125,-0.375c4.70089,0.45492 5.32882,1.54517 8.25391,4.90625c2.82441,2.55899 5.93336,2.83293 9.62109,3.46875c0,0.99 0,1.98 0,3c0.61875,0.0825 1.2375,0.165 1.875,0.25c2.125,0.75 2.125,0.75 3.375,2.625c0.75,2.125 0.75,2.125 0.75,5.125c1.65,0 3.3,0 5,0c0.33,-0.99 0.66,-1.98 1,-3c7.07357,-0.45311 11.1824,-0.43246 17,4c2.54291,0.58351 2.54291,0.58351 5,0c0.71801,-0.53754 1.43602,-1.07508 2.17578,-1.62891c3.85917,-1.87353 6.54462,-0.9434 10.44922,0.25391c0.66773,0.17918 1.33547,0.35836 2.02344,0.54297c3.49156,0.99859 6.18615,1.82913 8.35156,4.83203c0.6835,1.69248 1.36616,3.38531 2.03906,5.08203c1.71968,3.43237 4.34911,6.13709 6.96094,8.91797c0.72188,-0.51562 1.44375,-1.03125 2.1875,-1.5625c2.8125,-1.4375 2.8125,-1.4375 5.5,-1.375c2.8637,1.16096 3.10541,2.19811 4.3125,4.9375c6.95231,0.44534 11.59696,0.6729 17,-4c2.96456,1.31125 4.63627,2.64596 6.75,5.0625c4.19912,3.75568 8.77247,3.49966 14.10645,3.60352c6.25578,0.16899 11.43761,1.73487 17.14355,4.33398c-1.8882,10.73291 -6.42572,17.86495 -13.07422,26.36328c-2.74421,3.75729 -3.0724,6.83094 -3.47119,11.38721c-0.67712,7.44507 -1.95864,13.23866 -5.40771,19.96435c-2.02405,4.41815 -1.20841,8.33216 -0.42188,12.97266c0.6576,4.62124 -0.24316,8.84289 -1.15234,13.38281c-0.66748,4.13723 -0.99752,7.63297 0.58984,11.55469c1.65139,4.18353 -0.40389,7.39435 -2.0625,11.375c-0.99,0 -1.98,0 -3,0c-0.10313,0.63938 -0.20625,1.27875 -0.3125,1.9375c-0.22688,0.68062 -0.45375,1.36125 -0.6875,2.0625c-3.28519,1.09506 -5.73663,1.09961 -9.1875,1.0625c-1.08668,-0.00902 -2.17336,-0.01805 -3.29297,-0.02734c-1.24717,-0.01741 -1.24717,-0.01741 -2.51953,-0.03516c0,-0.99 0,-1.98 0,-3c-2.4448,0.18829 -2.4448,0.18829 -5,1c-1.3602,1.96758 -1.3602,1.96758 -2,4c1.32,1.32 2.64,2.64 4,4c-0.28875,0.55687 -0.5775,1.11375 -0.875,1.6875c-1.15905,2.2406 -1.15905,2.2406 -1.80469,4.45313c-1.91235,4.14153 -4.69076,7.40779 -7.57031,10.92187c-0.56074,0.70705 -1.12148,1.4141 -1.69922,2.14258c-3.34008,4.1076 -6.40803,7.21189 -11.05078,9.79492c-0.66,0 -1.32,0 -2,0c0.13922,0.81082 0.27844,1.62164 0.42188,2.45703c0.37291,3.81345 0.3999,6.78566 -0.42188,10.54297c-2.35618,2.75068 -4.68957,4.85058 -7.49414,7.09692c-4.61876,3.74344 -6.76866,7.00546 -7.50586,12.90308c0,0.99 0,1.98 0,3c0.66,0.33 1.32,0.66 2,1c0.17568,4.47995 0.29546,8.06493 -2,12c-2.5625,1.6875 -2.5625,1.6875 -5,3c-0.33,0.66 -0.66,1.32 -1,2c3.79304,-1.00193 6.71536,-1.81024 10,-4c-0.2475,-0.66 -0.495,-1.32 -0.75,-2c-0.36499,-4.37983 1.59904,-7.27967 3.75,-11c1.39219,0.34031 1.39219,0.34031 2.8125,0.6875c1.05187,0.10312 2.10375,0.20625 3.1875,0.3125c1.60411,-1.35406 1.60411,-1.35406 3,-3c5.27014,-1.70504 11.76848,-1.74384 17,0c0.74118,2.31074 1.40206,4.64812 2,7c0.58781,0.99 0.58781,0.99 1.1875,2c0.8125,2 0.8125,2 -0.0625,5.25c-0.52148,3.70137 -0.52148,3.70137 1.51172,5.875c1.42763,1.39431 2.8884,2.75564 4.38281,4.07813c2.64242,2.39745 3.87718,4.11813 4.41797,7.67187c-0.58636,4.18826 -2.28452,5.40197 -5.4375,8.125c-2.27191,2.02041 -2.27191,2.02041 -4,4c0,0.99 0,1.98 0,3c0.63809,0.24492 1.27617,0.48984 1.93359,0.74219c2.687,1.21564 4.82308,2.33193 7.06641,4.25781c1.07969,3.36759 1.17067,6.4842 1,10c0.7425,0.26812 1.485,0.53625 2.25,0.8125c2.61637,1.12979 4.55187,2.39643 6.75,4.1875c-0.32298,1.6687 -0.66013,3.33465 -1,5c-0.13406,0.73605 -0.26812,1.47211 -0.40625,2.23047c-0.15469,0.79019 -0.30937,1.58039 -0.46875,2.39453c-0.1418,0.75539 -0.28359,1.51078 -0.42969,2.28906c-1.02055,3.06166 -2.72628,4.5763 -5.56469,6.06909c-0.68377,0.27756 -1.36754,0.55511 -2.07203,0.84107c-1.12245,0.45923 -1.12245,0.45923 -2.26757,0.92773c-0.77666,0.30873 -1.55332,0.61746 -2.35352,0.93555c-0.78053,0.32033 -1.56105,0.64066 -2.36523,0.9707c-5.78709,2.3418 -5.78709,2.3418 -8.07227,2.3418c0.33,1.32 0.66,2.64 1,4c1.32,0 2.64,0 4,0c0.42318,2.01823 0.84635,4.03646 1.26953,6.05469c0.65356,2.31578 0.65356,2.31578 3.73047,3.94531c1.91813,-0.03094 1.91813,-0.03094 3.875,-0.0625c2.11719,0.19141 2.11719,0.19141 4.125,1.0625c2.88086,4.23858 5,8.83615 5,14c-0.92812,0.14438 -1.85625,0.28875 -2.8125,0.4375c-3.60328,1.76632 -3.90297,2.3395 -5.25,5.9375c-0.73214,2.38263 -0.73214,2.38263 -0.9375,4.625c1.32337,2.15341 1.32337,2.15341 3,4c-0.18562,1.155 -0.37125,2.31 -0.5625,3.5c-0.14437,1.155 -0.28875,2.31 -0.4375,3.5c1.83358,2.33455 1.83358,2.33455 4,4c0,0.66 0,1.32 0,2c0.81791,0.14695 0.81791,0.14695 1.65234,0.29688c4.35494,0.86354 7.83992,1.90154 11.72266,4.07812c3.00056,1.45018 4.20254,1.72329 7.49609,0.95703c1.9082,-0.7425 3.79462,-1.54466 5.64844,-2.41406c2.75947,-1.02122 3.82038,-1.11358 6.48047,0.08203c4,5.11111 4,5.11111 4,9c2.31,-1.98 4.62,-3.96 7,-6c-0.05501,4.46257 -1.25824,6.5992 -4.34375,9.62109c-2.07053,1.93688 -4.17393,3.83226 -6.28516,5.72461c-4.31134,3.88774 -4.31134,3.88774 -5.8789,9.33789c-0.49219,3.31641 -0.49219,3.31641 -1.90332,4.62769c-1.94555,1.21737 -3.91275,2.28435 -5.96387,3.31372c-4.96499,2.57582 -7.98867,4.23115 -10.625,9.375c-1.39219,0.89719 -1.39219,0.89719 -2.8125,1.8125c-3.53431,2.42551 -5.30706,4.91561 -7.74609,8.36719c-1.82293,2.30212 -3.89037,3.41053 -6.44141,4.82031c-2.27538,2.57183 -2.27538,2.57183 -4,5c0.66,0 1.32,0 2,0c-0.68657,3.17785 -1.49738,6.10626 -3,9c-3.25,1.4375 -3.25,1.4375 -7,2c-1.31786,0.35569 -2.63085,0.73009 -3.9375,1.125c-1.01063,0.28875 -2.02125,0.5775 -3.0625,0.875c0,0.99 0,1.98 0,3c-5.41538,3.07692 -5.41538,3.07692 -8.375,2.6875c-0.53625,-0.22687 -1.0725,-0.45375 -1.625,-0.6875c-0.33,1.65 -0.66,3.3 -1,5c-0.66,0 -1.32,0 -2,0c-0.43312,-0.80438 -0.86625,-1.60875 -1.3125,-2.4375c-1.41926,-2.72938 -1.41926,-2.72938 -3.92969,-3.3125c-3.22209,-0.29209 -5.48085,0.25694 -8.57031,1.1875c-1.46373,0.43119 -1.46373,0.43119 -2.95703,0.87109c-0.73606,0.22817 -1.47211,0.45633 -2.23047,0.69141c-0.33,-1.65 -0.66,-3.3 -1,-5c-4.20103,-1.51034 -8.22916,-2.39408 -12.625,-3.125c-5.83811,-1.28478 -5.83811,-1.28478 -8.10547,-3.77734c-1.37189,-2.73884 -2.26953,-5.02007 -2.26953,-8.09766c-0.66387,0.14437 -1.32773,0.28875 -2.01172,0.4375c-0.88301,0.18562 -1.76601,0.37125 -2.67578,0.5625c-0.87012,0.18562 -1.74023,0.37125 -2.63672,0.5625c-2.64984,0.43326 -4.99882,0.6564 -7.67578,0.4375c-0.66,-0.66 -1.32,-1.32 -2,-2c-0.33,0.33 -0.66,0.66 -1,1c-6.53147,1.0497 -13.62907,2.12364 -20,0c-0.33,-1.65 -0.66,-3.3 -1,-5c-1.18078,-0.04898 -2.36156,-0.09797 -3.57812,-0.14844c-1.55732,-0.07505 -3.11461,-0.1506 -4.67188,-0.22656c-0.7773,-0.03094 -1.55461,-0.06187 -2.35547,-0.09375c-7.72203,-0.396 -7.72203,-0.396 -10.39453,-2.53125c-0.75,-2.125 -0.75,-2.125 -1,-4c-9.67726,2.41932 -18.19053,7.9374 -24.1875,16c-1.62057,2.09106 -2.26251,2.89228 -4.88672,3.40625c-1.54035,0.06276 -3.08072,0.12526 -4.62109,0.1875c-4.54449,0.80106 -7.40247,4.00452 -10.30469,7.40625c-5.28586,7.68615 -6.16764,14.18008 -6.125,23.3125c-0.00387,0.81662 -0.00773,1.63324 -0.01172,2.47461c-0.20658,10.84069 -0.20658,10.84069 4.69922,20.15039c3.4375,4.03232 3.4375,4.03232 3.4375,5.0625c-1.17562,-0.14437 -2.35125,-0.28875 -3.5625,-0.4375c-0.73477,-0.08637 -1.46953,-0.17273 -2.22656,-0.26172c-1.89764,-0.25816 -3.77734,-0.64254 -5.64844,-1.05078c-5.85568,-0.41092 -10.72667,1.52611 -15.5625,4.75c-0.33,0.99 -0.66,1.98 -1,3c-3.61931,1.20644 -6.19231,1.32269 -10,1c-3.1875,-1.9375 -3.1875,-1.9375 -6,-4c-3.83203,-1.53281 -7.94287,-1.2576 -12,-1c-1.0202,0.97939 -2.0215,1.97895 -3,3c-3.6875,0.1875 -3.6875,0.1875 -7,0c-1.46063,-2.64739 -2,-3.89448 -2,-7c-3.3,-0.66 -6.6,-1.32 -10,-2c-1,-3 -1,-3 -1,-7c-3.72965,-2.03436 -5.66905,-3 -10,-3c-0.33,0.99 -0.66,1.98 -1,3c-3.20142,-1.14337 -3.96001,-1.92618 -5.625,-5c-2.68359,-3.38979 -3.2621,-3.46493 -7.3125,-4.125c-1.25104,-0.12762 -1.25104,-0.12762 -2.52734,-0.25781c-2.53516,-0.61719 -2.53516,-0.61719 -4.80079,-2.5c-3.61038,-2.79548 -7.18316,-3.70402 -11.54687,-4.86719c-0.78826,-0.22043 -1.57652,-0.44086 -2.38867,-0.66797c-1.92999,-0.53806 -3.86403,-1.06153 -5.79883,-1.58203c0.06188,1.25812 0.12375,2.51625 0.1875,3.8125c0.12828,2.60838 0.10587,3.77231 -1.41626,5.92651c-2.24758,1.60011 -3.55492,1.63454 -6.29858,1.62427c-0.87463,-0.00064 -1.74926,-0.00129 -2.65039,-0.00195c-0.91073,-0.01612 -1.82145,-0.03223 -2.75977,-0.04883c-0.90686,0.00322 -1.81371,0.00645 -2.74805,0.00977c-4.4786,-0.03626 -7.30828,-0.28173 -11.31445,-2.32227c-3.02004,0.23983 -3.02004,0.23983 -6.25,0.8125c-6.00157,0.6069 -6.00157,0.6069 -9.27344,-1.22656c-1.96123,-1.77168 -3.70999,-3.62357 -5.47656,-5.58594c-3.40441,-2.26961 -4.11246,-2.16766 -8,-1.6875c-1.29937,0.14889 -1.29937,0.14889 -2.625,0.30078c-2.51473,0.3446 -2.51473,0.3446 -5.375,1.38672c-2.41016,-1.51172 -2.41016,-1.51172 -5.0625,-3.6875c-0.87785,-0.70512 -1.7557,-1.41023 -2.66016,-2.13672c-2.27734,-2.17578 -2.27734,-2.17578 -3.2539,-4.39062c-0.33774,-0.58911 -0.67547,-1.17821 -1.02344,-1.78516c-2.43514,-0.70641 -2.43514,-0.70641 -5.3125,-0.875c-6.31604,-0.81424 -11.17933,-3.01845 -16.77734,-5.98047c-3.25993,-1.28209 -4.61227,-1.07865 -7.91016,-0.14453c-2.25,-0.5625 -2.25,-0.5625 -4,-2c-0.9375,-2.9375 -0.9375,-2.9375 -1,-6c1.375,-1.5 1.375,-1.5 3,-3c0.72692,-3.10839 0.72692,-3.10839 1,-6c-4.42665,-0.30495 -4.42665,-0.30495 -8.375,1.5c-0.53625,0.495 -1.0725,0.99 -1.625,1.5c-0.33,-1.98 -0.66,-3.96 -1,-6c-0.94875,-0.30938 -1.8975,-0.61875 -2.875,-0.9375c-3.125,-1.0625 -3.125,-1.0625 -5.125,-2.0625c0,-0.66 0,-1.32 0,-2c1.46094,-1.28906 1.46094,-1.28906 3.375,-2.625c0.62648,-0.44602 1.25297,-0.89203 1.89844,-1.35156c1.72656,-1.02344 1.72656,-1.02344 3.72656,-1.02344c0.26946,-0.56626 0.53892,-1.13251 0.81654,-1.71593c1.23686,-2.38714 2.65532,-4.57472 4.11876,-6.82924c3.25128,-5.40087 4.76993,-10.60846 6.09986,-16.73217c0.24455,-1.06796 0.4891,-2.13591 0.74107,-3.23623c0.78449,-3.47009 1.53792,-6.94587 2.28627,-10.42393c0.2624,-1.19424 0.52481,-2.38847 0.79517,-3.6189c4.62311,-21.13887 7.60298,-42.18441 9.67309,-63.70337c0.7144,-7.34645 1.60294,-14.66825 2.53174,-21.99023c0.13857,-1.20785 0.27715,-2.4157 0.41992,-3.66016c0.81054,-6.35843 1.96808,-10.74714 5.51758,-16.08984c0,-0.66 0,-1.32 0,-2c-1.39219,-0.71156 -1.39219,-0.71156 -2.8125,-1.4375c-3.28389,-2.05627 -3.85945,-4.04283 -4.75,-7.75c-0.21141,-0.96551 -0.42281,-1.93102 -0.64063,-2.92578c-0.82409,-2.98533 -1.97798,-5.14361 -3.60937,-7.76172c-2.24736,-3.76585 -2.24736,-3.76585 -1.6875,-7.125c1.5,-2 1.5,-2 4.5,-3c3.0625,1.375 3.0625,1.375 6,4c1.0818,2.9559 1.61362,5.88227 2,9c1.05405,-3.98196 0.84099,-6.98195 0,-11c0.66,0 1.32,0 2,0c-0.66,-1.98 -1.32,-3.96 -2,-6c-0.58008,-0.01418 -1.16016,-0.02836 -1.75781,-0.04297c-6.09974,-0.37243 -8.92209,-1.63693 -13.24219,-5.95703c0.33,-1.32 0.66,-2.64 1,-4c4.21913,0.47945 6.79663,1.16625 10,4c0.46207,-3.89517 0.46207,-3.89517 -1.5625,-5.625c-3.0369,-1.71312 -6.06567,-2.53204 -9.4375,-3.375c-0.33,-1.32 -0.66,-2.64 -1,-4c-0.80437,-0.02062 -1.60875,-0.04125 -2.4375,-0.0625c-5.22938,-1.37615 -8.86183,-4.01493 -12.5625,-7.9375c-1.16815,-2.37729 -1.95275,-4.73476 -2.76563,-7.25391c-1.56867,-3.48981 -3.89002,-6.0594 -6.42187,-8.87109c-5.51497,-6.28718 -5.51497,-6.28718 -6.375,-10.1875c0.7959,-5.21758 3.54623,-7.48249 7.5625,-10.6875c-1.03293,-2.82572 -1.67953,-3.82978 -4.38281,-5.26562c-1.35739,-0.48727 -1.35739,-0.48727 -2.74219,-0.98438c-1.36512,-0.50273 -1.36512,-0.50273 -2.75781,-1.01562c-0.69867,-0.24235 -1.39735,-0.48469 -2.11719,-0.73438c0,-0.66 0,-1.32 0,-2c1.65,-0.33 3.3,-0.66 5,-1c0.33,-1.65 0.66,-3.3 1,-5c-0.99,0.66 -1.98,1.32 -3,2c-1.93359,-0.30469 -1.93359,-0.30469 -4,-1c-0.6716,-0.16758 -1.3432,-0.33516 -2.03516,-0.50781c-5.30134,-1.6139 -5.30134,-1.6139 -7.18359,-4.10547c-1.18391,-2.55966 -1.81317,-4.81222 -1.65625,-7.63672c1.00514,-2.01028 2.18559,-3.28095 3.875,-4.75c-0.33,-0.33 -0.66,-0.66 -1,-1c-2.04252,0.08585 -4.08412,0.19395 -6.125,0.3125c-4.74572,0.06757 -7.41743,-0.02351 -10.9375,-3.3125c-0.48598,-0.55687 -0.97195,-1.11375 -1.47266,-1.6875c-1.63355,-1.75738 -1.63355,-1.75738 -5.46484,-1.3125c0.99,3.3 1.98,6.6 3,10c-4.36533,-2.18267 -6.21005,-4.04757 -9,-8c-0.1875,-2.6875 -0.1875,-2.6875 0,-5c-0.66,-0.99 -1.32,-1.98 -2,-3c0,-0.99 0,-1.98 0,-3c-4.6386,-1.34695 -4.6386,-1.34695 -9.3125,-2.5625c-1.6875,-0.4375 -1.6875,-0.4375 -3.6875,-1.4375c0,-1.32 0,-2.64 0,-4c-0.76313,0.18562 -1.52625,0.37125 -2.3125,0.5625c-2.6875,0.4375 -2.6875,0.4375 -5.6875,-0.5625c0,-0.66 0,-1.32 0,-2c-1.65,0.33 -3.3,0.66 -5,1c-1.05187,-1.51594 -1.05187,-1.51594 -2.125,-3.0625c-1.3044,-1.68923 -1.3044,-1.68923 -2.875,-2.9375c-3.17038,-0.0137 -3.17038,-0.0137 -6,1c-0.66,0 -1.32,0 -2,0c-0.40863,0.50145 -0.81727,1.00289 -1.23828,1.51953c-1.76172,1.48047 -1.76172,1.48047 -4.67969,1.55469c-1.07894,-0.12762 -2.15789,-0.25524 -3.26953,-0.38672c-1.08668,-0.11988 -2.17336,-0.23977 -3.29297,-0.36328c-0.83144,-0.10699 -1.66289,-0.21399 -2.51953,-0.32422c0.22688,-1.21687 0.45375,-2.43375 0.6875,-3.6875c0.316,-2.79958 0.31256,-4.31229 -0.5,-7.0625c-2.92961,-3.01331 -6.05634,-3.96356 -10.00781,-5.25781c-0.7193,-0.32742 -1.4386,-0.65485 -2.17969,-0.99219c-1,-3 -1,-3 -0.07422,-5.14062c3.07891,-2.76001 6.31634,-2.53357 10.26172,-2.60938c0.74959,-0.02965 1.49918,-0.0593 2.27148,-0.08984c1.84643,-0.07057 3.69373,-0.11764 5.54102,-0.16016c0,-0.66 0,-1.32 0,-2c-1.98,-0.66 -3.96,-1.32 -6,-2c-0.66,0.99 -1.32,1.98 -2,3c-0.66,0 -1.32,0 -2,0c-2.9136,-4.77831 -3.19877,-7.55106 -2,-13c-0.92813,0.22688 -1.85625,0.45375 -2.8125,0.6875c-3.1875,0.3125 -3.1875,0.3125 -4.89453,-0.83203c-2.25433,-3.23507 -1.27,-6.44235 -0.78516,-10.1875c0.61718,-3.34551 1.0125,-5.26577 3.49219,-7.66797c2.1659,-0.64258 4.30577,-1.02959 6.53516,-1.39453c2.75488,-0.67672 4.63743,-1.78116 7.02734,-3.29297c3.79668,-2.26619 5.89173,-2.48103 10.32031,-1.51172c3.54745,0.3338 6.60221,-0.9486 9.91797,-2.10937c2.19922,-0.69141 2.19922,-0.69141 5.19922,-0.69141c0.66,0.99 1.32,1.98 2,3c1.33031,-0.34031 1.33031,-0.34031 2.6875,-0.6875c3.89041,-0.36702 5.22691,0.41868 8.3125,2.6875c0.22688,-1.0725 0.45375,-2.145 0.6875,-3.25c1.45356,-4.15302 2.60662,-5.49031 6.3125,-7.75c0.99,0 1.98,0 3,0c0,0.66 0,1.32 0,2c5.445,-1.98 5.445,-1.98 11,-4c0.66,0.66 1.32,1.32 2,2c1.65,-0.66 3.3,-1.32 5,-2c-0.33,1.65 -0.66,3.3 -1,5c1.65,0 3.3,0 5,0c0,0.99 0,1.98 0,3c0.61875,0.61875 0.61875,0.61875 1.25,1.25c2.9856,2.9856 5.37714,6.83241 6.1875,11c0.46777,2.06959 0.46777,2.06959 3.125,3.5c1.20656,0.61875 1.20656,0.61875 2.4375,1.25c0.49629,-0.50531 0.99258,-1.01063 1.50391,-1.53125c5.58982,-5.34587 5.58982,-5.34587 10.18359,-5.96875c1.09312,0.165 2.18625,0.33 3.3125,0.5c1.42312,0.18562 1.42312,0.18562 2.875,0.375c0.70125,0.20625 1.4025,0.4125 2.125,0.625c0.33,0.66 0.66,1.32 1,2c0.33,-0.33 0.66,-0.66 1,-1c1.27875,-0.12375 2.5575,-0.2475 3.875,-0.375c3.54065,-0.38922 4.71108,-0.99164 7.125,-3.625c3.1875,-0.6875 3.1875,-0.6875 6,-1c0,2.31 0,4.62 0,7c3.96,-0.33 7.92,-0.66 12,-1c-0.68062,-1.32 -1.36125,-2.64 -2.0625,-4c-2.21161,-4.96833 -2.0443,-7.72144 -0.9375,-13c1.04238,-4.63966 1.04238,-4.63966 0,-9c0.13596,-2.04235 0.28359,-4.08393 0.4375,-6.125c0.11225,-4.93234 0.11225,-4.93234 -2.10938,-9.16016c-1.43055,-1.27131 -2.88018,-2.52148 -4.34765,-3.75c-4.11463,-4.08216 -4.8091,-9.69415 -5.23047,-15.27734c0.24403,-2.62327 0.64672,-5.12358 1.25,-7.6875c-0.99,-0.33 -1.98,-0.66 -3,-1c0,-2.31 0,-4.62 0,-7c1.54203,0.45712 3.0836,0.91576 4.625,1.375c0.91652,0.26941 1.83305,0.53883 2.77734,0.81641c2.59766,0.80859 2.59766,0.80859 5.78516,2.12109c2.89648,0.95511 2.89648,0.95511 6.0625,-0.25c4.83603,-1.37021 8.83895,-0.79372 13.75,-0.0625c1.43837,2.47719 2.18711,4.21264 1.51172,7.05469c-0.23074,0.74508 -0.46149,1.49015 -0.69922,2.25781c-0.79112,2.92861 -1.00959,4.20941 0.16016,7.04688c1.25521,1.97197 2.55441,3.82664 4.02734,5.64062c1.155,-0.22688 2.31,-0.45375 3.5,-0.6875c3.92382,-0.49133 6.38742,0.26549 10.03125,1.86328c3.31177,1.10567 6.56572,1.42514 10.03125,1.82422c7.90342,0.91645 7.90342,0.91645 11.4375,2.6875c4.57045,1.99957 8.00417,0.93026 12.625,-0.5c2.79356,-1.39678 5.00923,-3.15969 7.375,-5.1875c-1.32,-1.65 -2.64,-3.3 -4,-5c2.36757,-8.07351 4.87044,-15.49209 12.35474,-20.03931c8.60318,-4.48463 17.60468,-6.55039 27.01953,-8.66113c10.69265,-2.52395 18.68478,-6.83705 25.37573,-15.86206c2.34266,-4.06993 3.09252,-7.78394 3.25,-12.4375c0.13148,-1.40572 0.13148,-1.40572 0.26562,-2.83984c0.5092,-5.63467 0.77648,-11.06138 0.51563,-16.71094c-0.05136,-1.45672 -0.05136,-1.45672 -0.10376,-2.94287c-0.0753,-1.92777 -0.18394,-3.85459 -0.32959,-5.77832c-0.13163,-3.81476 -0.11696,-6.57659 2.04224,-9.80933c5.29563,-5.16478 11.59446,-6.93828 18.60986,-8.7312c1.04156,-0.28553 2.08312,-0.57105 3.15625,-0.86523c2.94174,-0.80044 5.89036,-1.56616 8.84375,-2.32227c1.20402,-0.3211 1.20402,-0.3211 2.43237,-0.64868c6.74583,-1.77085 6.74583,-1.77085 10.56763,-0.35132zm-324,176c0,0.99 0,1.98 0,3c0.66,0 1.32,0 2,0c0,-0.99 0,-1.98 0,-3c-0.66,0 -1.32,0 -2,0zm72,58c0.33,0.66 0.66,1.32 1,2c0.99,-0.33 1.98,-0.66 3,-1c-1.32,-0.33 -2.64,-0.66 -4,-1zm77,141c1.30574,5.1179 3.31616,7.76149 7.125,11.375c0.91008,0.87398 1.82016,1.74797 2.75781,2.64844c0.69867,0.65226 1.39735,1.30453 2.11719,1.97656c0.33,-0.99 0.66,-1.98 1,-3c-1.78812,-1.98248 -3.58026,-3.96104 -5.375,-5.9375c-0.50789,-0.56396 -1.01578,-1.12793 -1.53906,-1.70898c-2.71279,-3.08737 -2.71279,-3.08737 -6.08594,-5.35352zm-7,61c-0.33,0.99 -0.66,1.98 -1,3c1.32,-0.33 2.64,-0.66 4,-1c-0.99,-0.66 -1.98,-1.32 -3,-2zm302,87c0.66,1.98 1.32,3.96 2,6c0.33,0 0.66,0 1,0c0,-1.65 0,-3.3 0,-5c-0.99,-0.33 -1.98,-0.66 -3,-1zm-1,6c0.66,0.66 1.32,1.32 2,2c0,-0.66 0,-1.32 0,-2c-0.66,0 -1.32,0 -2,0z"/>
  <path id="svg_2" fill="#FEFEFE" d="m346,11c2.90068,2.14865 4.09606,4.53491 5,8c-0.13264,3.03539 -0.51666,6.00199 -1,9c1.65,0 3.3,0 5,0c0.99,1.98 1.98,3.96 3,6c3.54519,-1.3976 3.54519,-1.3976 7,-3c4.71167,-0.64797 7.97764,-0.68158 12,2c2.51574,3.77361 2.74155,6.57961 3,11c0.31323,1.67056 0.63679,3.33959 1,5c2.31,-0.99 4.62,-1.98 7,-3c0.33,1.65 0.66,3.3 1,5c2.31,0.33 4.62,0.66 7,1c0.33,2.64 0.66,5.28 1,8c1.10859,-0.04641 2.21719,-0.09281 3.35938,-0.14062c1.46351,-0.03753 2.92705,-0.07393 4.39062,-0.10938c0.72961,-0.03352 1.45922,-0.06703 2.21094,-0.10156c5.54461,-0.10081 5.54461,-0.10081 8.24219,2.36719c0.59296,0.65484 1.18593,1.30968 1.79687,1.98437c2.66835,0.33498 2.66835,0.33498 5,0c-0.17918,0.65227 -0.35836,1.30453 -0.54297,1.97656c-1.46919,6.03703 -1.37592,8.43947 1.54297,14.02344c-1.3125,3.375 -1.3125,3.375 -3,6c6.70519,0.19818 12.65177,0.30845 19,-2c0.04125,-0.84562 0.0825,-1.69125 0.125,-2.5625c1.16409,-4.57322 3.64899,-7.10297 6.875,-10.4375c1.98,0.66 3.96,1.32 6,2c-0.875,4.75 -0.875,4.75 -2,7c-0.30993,4.13315 -0.30993,4.13315 1.0625,7.9375c1.42803,3.14166 0.57276,5.75915 -0.0625,9.0625c1.54688,-0.18563 1.54688,-0.18563 3.125,-0.375c4.70089,0.45492 5.32882,1.54517 8.25391,4.90625c2.82441,2.55899 5.93336,2.83293 9.62109,3.46875c0,0.99 0,1.98 0,3c0.61875,0.0825 1.2375,0.165 1.875,0.25c2.125,0.75 2.125,0.75 3.375,2.625c0.75,2.125 0.75,2.125 0.75,5.125c1.65,0 3.3,0 5,0c0.33,-0.99 0.66,-1.98 1,-3c7.07357,-0.45311 11.1824,-0.43246 17,4c2.54291,0.58351 2.54291,0.58351 5,0c0.71801,-0.53754 1.43602,-1.07508 2.17578,-1.62891c3.85917,-1.87353 6.54462,-0.9434 10.44922,0.25391c0.66773,0.17918 1.33547,0.35836 2.02344,0.54297c3.49156,0.99859 6.18615,1.82913 8.35156,4.83203c0.6835,1.69248 1.36616,3.38531 2.03906,5.08203c1.71968,3.43237 4.34911,6.13709 6.96094,8.91797c0.72188,-0.51562 1.44375,-1.03125 2.1875,-1.5625c2.8125,-1.4375 2.8125,-1.4375 5.5,-1.375c2.8637,1.16096 3.10541,2.19811 4.3125,4.9375c6.95231,0.44534 11.59696,0.6729 17,-4c2.96456,1.31125 4.63627,2.64596 6.75,5.0625c4.19912,3.75568 8.77247,3.49966 14.10645,3.60352c6.25578,0.16899 11.43761,1.73487 17.14355,4.33398c-1.8882,10.73291 -6.42572,17.86495 -13.07422,26.36328c-2.74421,3.75729 -3.0724,6.83094 -3.47119,11.38721c-0.67712,7.44507 -1.95864,13.23866 -5.40771,19.96435c-2.02405,4.41815 -1.20841,8.33216 -0.42188,12.97266c0.6576,4.62124 -0.24316,8.84289 -1.15234,13.38281c-0.66748,4.13723 -0.99752,7.63297 0.58984,11.55469c1.65139,4.18353 -0.40389,7.39435 -2.0625,11.375c-0.99,0 -1.98,0 -3,0c-0.10313,0.63938 -0.20625,1.27875 -0.3125,1.9375c-0.22688,0.68062 -0.45375,1.36125 -0.6875,2.0625c-3.28519,1.09506 -5.73663,1.09961 -9.1875,1.0625c-1.08668,-0.00902 -2.17336,-0.01805 -3.29297,-0.02734c-1.24717,-0.01741 -1.24717,-0.01741 -2.51953,-0.03516c0,-0.99 0,-1.98 0,-3c-2.4448,0.18829 -2.4448,0.18829 -5,1c-1.3602,1.96758 -1.3602,1.96758 -2,4c1.32,1.32 2.64,2.64 4,4c-0.28875,0.55687 -0.5775,1.11375 -0.875,1.6875c-1.15905,2.2406 -1.15905,2.2406 -1.80469,4.45313c-1.91235,4.14153 -4.69076,7.40779 -7.57031,10.92187c-0.56074,0.70705 -1.12148,1.4141 -1.69922,2.14258c-3.34008,4.1076 -6.40803,7.21189 -11.05078,9.79492c-0.66,0 -1.32,0 -2,0c0.13922,0.81082 0.27844,1.62164 0.42188,2.45703c0.37291,3.81345 0.3999,6.78566 -0.42188,10.54297c-2.35618,2.75068 -4.68957,4.85058 -7.49414,7.09692c-4.61876,3.74344 -6.76866,7.00546 -7.50586,12.90308c0,0.99 0,1.98 0,3c0.66,0.33 1.32,0.66 2,1c0.17568,4.47995 0.29546,8.06493 -2,12c-2.5625,1.6875 -2.5625,1.6875 -5,3c-0.33,0.66 -0.66,1.32 -1,2c3.79304,-1.00193 6.71536,-1.81024 10,-4c-0.2475,-0.66 -0.495,-1.32 -0.75,-2c-0.36499,-4.37983 1.59904,-7.27967 3.75,-11c1.39219,0.34031 1.39219,0.34031 2.8125,0.6875c1.05187,0.10312 2.10375,0.20625 3.1875,0.3125c1.60411,-1.35406 1.60411,-1.35406 3,-3c5.27014,-1.70504 11.76848,-1.74384 17,0c0.74118,2.31074 1.40206,4.64812 2,7c0.58781,0.99 0.58781,0.99 1.1875,2c0.8125,2 0.8125,2 -0.0625,5.25c-0.52148,3.70137 -0.52148,3.70137 1.51172,5.875c1.42763,1.39431 2.8884,2.75564 4.38281,4.07813c2.64242,2.39745 3.87718,4.11813 4.41797,7.67187c-0.58636,4.18826 -2.28452,5.40197 -5.4375,8.125c-2.27191,2.02041 -2.27191,2.02041 -4,4c0,0.99 0,1.98 0,3c0.63809,0.24492 1.27617,0.48984 1.93359,0.74219c2.687,1.21564 4.82308,2.33193 7.06641,4.25781c1.07969,3.36759 1.17067,6.4842 1,10c0.7425,0.26812 1.485,0.53625 2.25,0.8125c2.61637,1.12979 4.55187,2.39643 6.75,4.1875c-0.32298,1.6687 -0.66013,3.33465 -1,5c-0.13406,0.73605 -0.26812,1.47211 -0.40625,2.23047c-0.15469,0.79019 -0.30937,1.58039 -0.46875,2.39453c-0.1418,0.75539 -0.28359,1.51078 -0.42969,2.28906c-1.02055,3.06166 -2.72628,4.5763 -5.56469,6.06909c-0.68377,0.27756 -1.36754,0.55511 -2.07203,0.84107c-1.12245,0.45923 -1.12245,0.45923 -2.26757,0.92773c-0.77666,0.30873 -1.55332,0.61746 -2.35352,0.93555c-0.78053,0.32033 -1.56105,0.64066 -2.36523,0.9707c-5.78709,2.3418 -5.78709,2.3418 -8.07227,2.3418c0.33,1.32 0.66,2.64 1,4c1.32,0 2.64,0 4,0c0.42318,2.01823 0.84635,4.03646 1.26953,6.05469c0.65356,2.31578 0.65356,2.31578 3.73047,3.94531c1.91813,-0.03094 1.91813,-0.03094 3.875,-0.0625c2.11719,0.19141 2.11719,0.19141 4.125,1.0625c2.88086,4.23858 5,8.83615 5,14c-0.92812,0.14438 -1.85625,0.28875 -2.8125,0.4375c-3.60328,1.76632 -3.90297,2.3395 -5.25,5.9375c-0.73214,2.38263 -0.73214,2.38263 -0.9375,4.625c1.32337,2.15341 1.32337,2.15341 3,4c-0.18562,1.155 -0.37125,2.31 -0.5625,3.5c-0.14437,1.155 -0.28875,2.31 -0.4375,3.5c1.83358,2.33455 1.83358,2.33455 4,4c0,0.66 0,1.32 0,2c0.81791,0.14695 0.81791,0.14695 1.65234,0.29688c4.35494,0.86354 7.83992,1.90154 11.72266,4.07812c3.00056,1.45018 4.20254,1.72329 7.49609,0.95703c1.9082,-0.7425 3.79462,-1.54466 5.64844,-2.41406c2.75947,-1.02122 3.82038,-1.11358 6.48047,0.08203c4,5.11111 4,5.11111 4,9c2.31,-1.98 4.62,-3.96 7,-6c-0.05501,4.46257 -1.25824,6.5992 -4.34375,9.62109c-2.07053,1.93688 -4.17393,3.83226 -6.28516,5.72461c-4.31134,3.88774 -4.31134,3.88774 -5.8789,9.33789c-0.49219,3.31641 -0.49219,3.31641 -1.90332,4.62769c-1.94555,1.21737 -3.91275,2.28435 -5.96387,3.31372c-4.96499,2.57582 -7.98867,4.23115 -10.625,9.375c-1.39219,0.89719 -1.39219,0.89719 -2.8125,1.8125c-3.53431,2.42551 -5.30706,4.91561 -7.74609,8.36719c-1.82293,2.30212 -3.89037,3.41053 -6.44141,4.82031c-2.27538,2.57183 -2.27538,2.57183 -4,5c0.66,0 1.32,0 2,0c-0.68657,3.17785 -1.49738,6.10626 -3,9c-3.25,1.4375 -3.25,1.4375 -7,2c-1.31786,0.35569 -2.63085,0.73009 -3.9375,1.125c-1.01063,0.28875 -2.02125,0.5775 -3.0625,0.875c0,0.99 0,1.98 0,3c-5.41538,3.07692 -5.41538,3.07692 -8.375,2.6875c-0.53625,-0.22687 -1.0725,-0.45375 -1.625,-0.6875c-0.33,1.65 -0.66,3.3 -1,5c-0.66,0 -1.32,0 -2,0c-0.43312,-0.80438 -0.86625,-1.60875 -1.3125,-2.4375c-1.41926,-2.72938 -1.41926,-2.72938 -3.92969,-3.3125c-3.22209,-0.29209 -5.48085,0.25694 -8.57031,1.1875c-1.46373,0.43119 -1.46373,0.43119 -2.95703,0.87109c-0.73606,0.22817 -1.47211,0.45633 -2.23047,0.69141c-0.33,-1.65 -0.66,-3.3 -1,-5c-4.20103,-1.51034 -8.22916,-2.39408 -12.625,-3.125c-5.83811,-1.28478 -5.83811,-1.28478 -8.10547,-3.77734c-1.37189,-2.73884 -2.26953,-5.02007 -2.26953,-8.09766c-0.66387,0.14437 -1.32773,0.28875 -2.01172,0.4375c-0.88301,0.18562 -1.76601,0.37125 -2.67578,0.5625c-0.87012,0.18562 -1.74023,0.37125 -2.63672,0.5625c-2.64984,0.43326 -4.99882,0.6564 -7.67578,0.4375c-0.66,-0.66 -1.32,-1.32 -2,-2c-0.33,0.33 -0.66,0.66 -1,1c-6.53147,1.0497 -13.62907,2.12364 -20,0c-0.33,-1.65 -0.66,-3.3 -1,-5c-1.18078,-0.04898 -2.36156,-0.09797 -3.57812,-0.14844c-1.55732,-0.07505 -3.11461,-0.1506 -4.67188,-0.22656c-0.7773,-0.03094 -1.55461,-0.06187 -2.35547,-0.09375c-7.72203,-0.396 -7.72203,-0.396 -10.39453,-2.53125c-0.75,-2.125 -0.75,-2.125 -1,-4c-9.67726,2.41932 -18.19053,7.9374 -24.1875,16c-1.62057,2.09106 -2.26251,2.89228 -4.88672,3.40625c-1.54035,0.06276 -3.08072,0.12526 -4.62109,0.1875c-4.54449,0.80106 -7.40247,4.00452 -10.30469,7.40625c-5.28586,7.68615 -6.16764,14.18008 -6.125,23.3125c-0.00387,0.81662 -0.00773,1.63324 -0.01172,2.47461c-0.20658,10.84069 -0.20658,10.84069 4.69922,20.15039c3.4375,4.03232 3.4375,4.03232 3.4375,5.0625c-1.17562,-0.14437 -2.35125,-0.28875 -3.5625,-0.4375c-0.73477,-0.08637 -1.46953,-0.17273 -2.22656,-0.26172c-1.89764,-0.25816 -3.77734,-0.64254 -5.64844,-1.05078c-5.85568,-0.41092 -10.72667,1.52611 -15.5625,4.75c-0.33,0.99 -0.66,1.98 -1,3c-3.61931,1.20644 -6.19231,1.32269 -10,1c-3.1875,-1.9375 -3.1875,-1.9375 -6,-4c-3.83203,-1.53281 -7.94287,-1.2576 -12,-1c-1.0202,0.97939 -2.0215,1.97895 -3,3c-3.6875,0.1875 -3.6875,0.1875 -7,0c-1.46063,-2.64739 -2,-3.89448 -2,-7c-3.3,-0.66 -6.6,-1.32 -10,-2c-1,-3 -1,-3 -1,-7c-3.72965,-2.03436 -5.66905,-3 -10,-3c-0.33,0.99 -0.66,1.98 -1,3c-3.20142,-1.14337 -3.96001,-1.92618 -5.625,-5c-2.68359,-3.38979 -3.2621,-3.46493 -7.3125,-4.125c-1.25104,-0.12762 -1.25104,-0.12762 -2.52734,-0.25781c-2.53516,-0.61719 -2.53516,-0.61719 -4.80079,-2.5c-3.61038,-2.79548 -7.18316,-3.70402 -11.54687,-4.86719c-0.78826,-0.22043 -1.57652,-0.44086 -2.38867,-0.66797c-1.92999,-0.53806 -3.86403,-1.06153 -5.79883,-1.58203c0.06188,1.25812 0.12375,2.51625 0.1875,3.8125c0.12828,2.60838 0.10587,3.77231 -1.41626,5.92651c-2.24758,1.60011 -3.55492,1.63454 -6.29858,1.62427c-0.87463,-0.00064 -1.74926,-0.00129 -2.65039,-0.00195c-0.91073,-0.01612 -1.82145,-0.03223 -2.75977,-0.04883c-0.90686,0.00322 -1.81371,0.00645 -2.74805,0.00977c-4.4786,-0.03626 -7.30828,-0.28173 -11.31445,-2.32227c-3.02004,0.23983 -3.02004,0.23983 -6.25,0.8125c-6.00157,0.6069 -6.00157,0.6069 -9.27344,-1.22656c-1.96123,-1.77168 -3.70999,-3.62357 -5.47656,-5.58594c-3.40441,-2.26961 -4.11246,-2.16766 -8,-1.6875c-1.29937,0.14889 -1.29937,0.14889 -2.625,0.30078c-2.51473,0.3446 -2.51473,0.3446 -5.375,1.38672c-2.41016,-1.51172 -2.41016,-1.51172 -5.0625,-3.6875c-0.87785,-0.70512 -1.7557,-1.41023 -2.66016,-2.13672c-2.27734,-2.17578 -2.27734,-2.17578 -3.2539,-4.39062c-0.33774,-0.58911 -0.67547,-1.17821 -1.02344,-1.78516c-2.43514,-0.70641 -2.43514,-0.70641 -5.3125,-0.875c-6.31604,-0.81424 -11.17933,-3.01845 -16.77734,-5.98047c-3.25993,-1.28209 -4.61227,-1.07865 -7.91016,-0.14453c-2.25,-0.5625 -2.25,-0.5625 -4,-2c-0.9375,-2.9375 -0.9375,-2.9375 -1,-6c1.375,-1.5 1.375,-1.5 3,-3c0.72692,-3.10839 0.72692,-3.10839 1,-6c-4.42665,-0.30495 -4.42665,-0.30495 -8.375,1.5c-0.53625,0.495 -1.0725,0.99 -1.625,1.5c-0.33,-1.98 -0.66,-3.96 -1,-6c-0.94875,-0.30938 -1.8975,-0.61875 -2.875,-0.9375c-3.125,-1.0625 -3.125,-1.0625 -5.125,-2.0625c0,-0.66 0,-1.32 0,-2c1.46094,-1.28906 1.46094,-1.28906 3.375,-2.625c0.62648,-0.44602 1.25297,-0.89203 1.89844,-1.35156c1.72656,-1.02344 1.72656,-1.02344 3.72656,-1.02344c0.26946,-0.56626 0.53892,-1.13251 0.81654,-1.71593c1.23686,-2.38714 2.65532,-4.57472 4.11876,-6.82924c3.25128,-5.40087 4.76993,-10.60846 6.09986,-16.73217c0.24455,-1.06796 0.4891,-2.13591 0.74107,-3.23623c0.78449,-3.47009 1.53792,-6.94587 2.28627,-10.42393c0.2624,-1.19424 0.52481,-2.38847 0.79517,-3.6189c4.62311,-21.13887 7.60298,-42.18441 9.67309,-63.70337c0.7144,-7.34645 1.60294,-14.66825 2.53174,-21.99023c0.13857,-1.20785 0.27715,-2.4157 0.41992,-3.66016c0.81054,-6.35843 1.96808,-10.74714 5.51758,-16.08984c0,-0.66 0,-1.32 0,-2c-1.39219,-0.71156 -1.39219,-0.71156 -2.8125,-1.4375c-3.28389,-2.05627 -3.85945,-4.04283 -4.75,-7.75c-0.21141,-0.96551 -0.42281,-1.93102 -0.64063,-2.92578c-0.82409,-2.98533 -1.97798,-5.14361 -3.60937,-7.76172c-2.24736,-3.76585 -2.24736,-3.76585 -1.6875,-7.125c1.5,-2 1.5,-2 4.5,-3c3.0625,1.375 3.0625,1.375 6,4c1.0818,2.9559 1.61362,5.88227 2,9c1.05405,-3.98196 0.84099,-6.98195 0,-11c0.66,0 1.32,0 2,0c-0.66,-1.98 -1.32,-3.96 -2,-6c-0.58008,-0.01418 -1.16016,-0.02836 -1.75781,-0.04297c-6.09974,-0.37243 -8.92209,-1.63693 -13.24219,-5.95703c0.33,-1.32 0.66,-2.64 1,-4c4.21913,0.47945 6.79663,1.16625 10,4c0.46207,-3.89517 0.46207,-3.89517 -1.5625,-5.625c-3.0369,-1.71312 -6.06567,-2.53204 -9.4375,-3.375c-0.33,-1.32 -0.66,-2.64 -1,-4c-0.80437,-0.02062 -1.60875,-0.04125 -2.4375,-0.0625c-5.22938,-1.37615 -8.86183,-4.01493 -12.5625,-7.9375c-1.16815,-2.37729 -1.95275,-4.73476 -2.76563,-7.25391c-1.56867,-3.48981 -3.89002,-6.0594 -6.42187,-8.87109c-5.51497,-6.28718 -5.51497,-6.28718 -6.375,-10.1875c0.7959,-5.21758 3.54623,-7.48249 7.5625,-10.6875c-1.03293,-2.82572 -1.67953,-3.82978 -4.38281,-5.26562c-1.35739,-0.48727 -1.35739,-0.48727 -2.74219,-0.98438c-1.36512,-0.50273 -1.36512,-0.50273 -2.75781,-1.01562c-0.69867,-0.24235 -1.39735,-0.48469 -2.11719,-0.73438c0,-0.66 0,-1.32 0,-2c1.65,-0.33 3.3,-0.66 5,-1c0.33,-1.65 0.66,-3.3 1,-5c-0.99,0.66 -1.98,1.32 -3,2c-1.93359,-0.30469 -1.93359,-0.30469 -4,-1c-0.6716,-0.16758 -1.3432,-0.33516 -2.03516,-0.50781c-5.30134,-1.6139 -5.30134,-1.6139 -7.18359,-4.10547c-1.18391,-2.55966 -1.81317,-4.81222 -1.65625,-7.63672c1.00514,-2.01028 2.18559,-3.28095 3.875,-4.75c-0.33,-0.33 -0.66,-0.66 -1,-1c-2.04252,0.08585 -4.08412,0.19395 -6.125,0.3125c-4.74572,0.06757 -7.41743,-0.02351 -10.9375,-3.3125c-0.48598,-0.55687 -0.97195,-1.11375 -1.47266,-1.6875c-1.63355,-1.75738 -1.63355,-1.75738 -5.46484,-1.3125c0.99,3.3 1.98,6.6 3,10c-4.36533,-2.18267 -6.21005,-4.04757 -9,-8c-0.1875,-2.6875 -0.1875,-2.6875 0,-5c-0.66,-0.99 -1.32,-1.98 -2,-3c0,-0.99 0,-1.98 0,-3c-4.6386,-1.34695 -4.6386,-1.34695 -9.3125,-2.5625c-1.6875,-0.4375 -1.6875,-0.4375 -3.6875,-1.4375c0,-1.32 0,-2.64 0,-4c-0.76313,0.18562 -1.52625,0.37125 -2.3125,0.5625c-2.6875,0.4375 -2.6875,0.4375 -5.6875,-0.5625c0,-0.66 0,-1.32 0,-2c-1.65,0.33 -3.3,0.66 -5,1c-1.05187,-1.51594 -1.05187,-1.51594 -2.125,-3.0625c-1.3044,-1.68923 -1.3044,-1.68923 -2.875,-2.9375c-3.17038,-0.0137 -3.17038,-0.0137 -6,1c-0.66,0 -1.32,0 -2,0c-0.40863,0.50145 -0.81727,1.00289 -1.23828,1.51953c-1.76172,1.48047 -1.76172,1.48047 -4.67969,1.55469c-1.07894,-0.12762 -2.15789,-0.25524 -3.26953,-0.38672c-1.08668,-0.11988 -2.17336,-0.23977 -3.29297,-0.36328c-0.83144,-0.10699 -1.66289,-0.21399 -2.51953,-0.32422c0.22688,-1.21687 0.45375,-2.43375 0.6875,-3.6875c0.316,-2.79958 0.31256,-4.31229 -0.5,-7.0625c-2.92961,-3.01331 -6.05634,-3.96356 -10.00781,-5.25781c-0.7193,-0.32742 -1.4386,-0.65485 -2.17969,-0.99219c-1,-3 -1,-3 -0.07422,-5.14062c3.07891,-2.76001 6.31634,-2.53357 10.26172,-2.60938c0.74959,-0.02965 1.49918,-0.0593 2.27148,-0.08984c1.84643,-0.07057 3.69373,-0.11764 5.54102,-0.16016c0,-0.66 0,-1.32 0,-2c-1.98,-0.66 -3.96,-1.32 -6,-2c-0.66,0.99 -1.32,1.98 -2,3c-0.66,0 -1.32,0 -2,0c-2.9136,-4.77831 -3.19877,-7.55106 -2,-13c-0.92813,0.22688 -1.85625,0.45375 -2.8125,0.6875c-3.1875,0.3125 -3.1875,0.3125 -4.89453,-0.83203c-2.25433,-3.23507 -1.27,-6.44235 -0.78516,-10.1875c0.61718,-3.34551 1.0125,-5.26577 3.49219,-7.66797c2.1659,-0.64258 4.30577,-1.02959 6.53516,-1.39453c2.75488,-0.67672 4.63743,-1.78116 7.02734,-3.29297c3.79668,-2.26619 5.89173,-2.48103 10.32031,-1.51172c3.54745,0.3338 6.60221,-0.9486 9.91797,-2.10937c2.19922,-0.69141 2.19922,-0.69141 5.19922,-0.69141c0.66,0.99 1.32,1.98 2,3c1.33031,-0.34031 1.33031,-0.34031 2.6875,-0.6875c3.89041,-0.36702 5.22691,0.41868 8.3125,2.6875c0.22688,-1.0725 0.45375,-2.145 0.6875,-3.25c1.45356,-4.15302 2.60662,-5.49031 6.3125,-7.75c0.99,0 1.98,0 3,0c0,0.66 0,1.32 0,2c5.445,-1.98 5.445,-1.98 11,-4c0.66,0.66 1.32,1.32 2,2c1.65,-0.66 3.3,-1.32 5,-2c-0.33,1.65 -0.66,3.3 -1,5c1.65,0 3.3,0 5,0c0,0.99 0,1.98 0,3c0.61875,0.61875 0.61875,0.61875 1.25,1.25c2.9856,2.9856 5.37714,6.83241 6.1875,11c0.46777,2.06959 0.46777,2.06959 3.125,3.5c1.20656,0.61875 1.20656,0.61875 2.4375,1.25c0.49629,-0.50531 0.99258,-1.01063 1.50391,-1.53125c5.58982,-5.34587 5.58982,-5.34587 10.18359,-5.96875c1.09312,0.165 2.18625,0.33 3.3125,0.5c1.42312,0.18562 1.42312,0.18562 2.875,0.375c0.70125,0.20625 1.4025,0.4125 2.125,0.625c0.33,0.66 0.66,1.32 1,2c0.33,-0.33 0.66,-0.66 1,-1c1.27875,-0.12375 2.5575,-0.2475 3.875,-0.375c3.54065,-0.38922 4.71108,-0.99164 7.125,-3.625c3.1875,-0.6875 3.1875,-0.6875 6,-1c0,2.31 0,4.62 0,7c3.96,-0.33 7.92,-0.66 12,-1c-0.68062,-1.32 -1.36125,-2.64 -2.0625,-4c-2.21161,-4.96833 -2.0443,-7.72144 -0.9375,-13c1.04238,-4.63966 1.04238,-4.63966 0,-9c0.13596,-2.04235 0.28359,-4.08393 0.4375,-6.125c0.11225,-4.93234 0.11225,-4.93234 -2.10938,-9.16016c-1.43055,-1.27131 -2.88018,-2.52148 -4.34765,-3.75c-4.11463,-4.08216 -4.8091,-9.69415 -5.23047,-15.27734c0.24403,-2.62327 0.64672,-5.12358 1.25,-7.6875c-0.99,-0.33 -1.98,-0.66 -3,-1c0,-2.31 0,-4.62 0,-7c1.54203,0.45712 3.0836,0.91576 4.625,1.375c0.91652,0.26941 1.83305,0.53883 2.77734,0.81641c2.59766,0.80859 2.59766,0.80859 5.78516,2.12109c2.89648,0.95511 2.89648,0.95511 6.0625,-0.25c4.83603,-1.37021 8.83895,-0.79372 13.75,-0.0625c1.43837,2.47719 2.18711,4.21264 1.51172,7.05469c-0.23074,0.74508 -0.46149,1.49015 -0.69922,2.25781c-0.79112,2.92861 -1.00959,4.20941 0.16016,7.04688c1.25521,1.97197 2.55441,3.82664 4.02734,5.64062c1.155,-0.22688 2.31,-0.45375 3.5,-0.6875c3.92382,-0.49133 6.38742,0.26549 10.03125,1.86328c3.31177,1.10567 6.56572,1.42514 10.03125,1.82422c7.90342,0.91645 7.90342,0.91645 11.4375,2.6875c4.57045,1.99957 8.00417,0.93026 12.625,-0.5c2.79356,-1.39678 5.00923,-3.15969 7.375,-5.1875c-1.32,-1.65 -2.64,-3.3 -4,-5c2.36757,-8.07351 4.87044,-15.49209 12.35474,-20.03931c8.60318,-4.48463 17.60468,-6.55039 27.01953,-8.66113c10.69265,-2.52395 18.68478,-6.83705 25.37573,-15.86206c2.34266,-4.06993 3.09252,-7.78394 3.25,-12.4375c0.13148,-1.40572 0.13148,-1.40572 0.26562,-2.83984c0.5092,-5.63467 0.77648,-11.06138 0.51563,-16.71094c-0.05136,-1.45672 -0.05136,-1.45672 -0.10376,-2.94287c-0.0753,-1.92777 -0.18394,-3.85459 -0.32959,-5.77832c-0.13163,-3.81476 -0.11696,-6.57659 2.04224,-9.80933c5.29563,-5.16478 11.59446,-6.93828 18.60986,-8.7312c1.04156,-0.28553 2.08312,-0.57105 3.15625,-0.86523c2.94174,-0.80044 5.89036,-1.56616 8.84375,-2.32227c1.20402,-0.3211 1.20402,-0.3211 2.43237,-0.64868c6.74583,-1.77085 6.74583,-1.77085 10.56763,-0.35132zm-9.88672,3.10938c-0.93908,0.26039 -1.87816,0.52078 -2.8457,0.78906c-0.97518,0.28101 -1.95035,0.56203 -2.95508,0.85156c-0.95584,0.26555 -1.91168,0.53109 -2.89648,0.80469c-2.81327,0.79009 -5.61477,1.61375 -8.41602,2.44531c-1.23871,0.34515 -1.23871,0.34515 -2.50244,0.69727c-5.2264,1.55554 -8.92863,3.08184 -12.49756,7.30273c-0.82935,3.34364 -0.79487,6.50901 -0.6875,9.9375c-0.01482,0.88107 -0.02965,1.76215 -0.04492,2.66992c0.05725,4.4963 0.34598,7.49356 3.27539,11.02149c0.81082,0.78246 1.62164,1.56492 2.45703,2.37109c-1.65,-0.66 -3.3,-1.32 -5,-2c-0.43933,5.53069 -0.43933,5.53069 1.5,10.5c0.495,0.495 0.99,0.99 1.5,1.5c-1.32,0.33 -2.64,0.66 -4,1c0.53726,3.37706 1.11065,6.69669 2,10c-1.32,-0.33 -2.64,-0.66 -4,-1c-2.25246,2.68842 -3.88214,4.64642 -5,8c-7.45299,7.40991 -15.80397,10.06848 -25.8125,12.5c-17.67528,4.12126 -17.67528,4.12126 -31.26172,15.41406c-1.83348,3.80761 -2.92578,6.84956 -2.92578,11.08594c0.78246,0.19336 1.56492,0.38672 2.37109,0.58594c1.01192,0.26039 2.02383,0.52078 3.06641,0.78906c1.514,0.38285 1.514,0.38285 3.05859,0.77344c2.50391,0.85156 2.50391,0.85156 3.50391,2.85156c-0.74766,0.09797 -1.49531,0.19594 -2.26563,0.29688c-5.75958,0.87449 -8.70054,1.40904 -12.73437,5.70312c-5.78524,2.52335 -10.78357,3.58458 -17,2c-1.10988,-0.49113 -1.10988,-0.49113 -2.24219,-0.99219c-3.36321,-1.22905 -6.51218,-1.56369 -10.07031,-1.94531c-4.22574,-0.48374 -8.14367,-1.0083 -12.0625,-2.75c-4.56234,-1.65188 -7.94132,-1.21237 -12.625,-0.3125c-4.19632,-5.49778 -6.52006,-9.57128 -5.875,-16.625c0.25798,-1.79683 0.53788,-3.59133 0.875,-5.375c-2.32609,-0.38063 -4.66055,-0.7127 -7,-1c-0.33,0.33 -0.66,0.66 -1,1c-1.93442,0.12584 -3.87403,0.17578 -5.8125,0.1875c-1.05832,0.01418 -2.11664,0.02836 -3.20703,0.04297c-2.95247,-0.22831 -4.4096,-0.90878 -6.98047,-2.23047c-0.99,0.33 -1.98,0.66 -3,1c0.66,0 1.32,0 2,0c-0.16049,1.14275 -0.16049,1.14275 -0.32422,2.30859c-0.78973,6.8019 -1.19766,12.61728 2.32422,18.69141c1.36674,1.44476 2.76491,2.8602 4.1875,4.25c3.76467,3.87459 4.32048,6.36998 4.25,11.75c-0.08379,1.11375 -0.16758,2.2275 -0.25391,3.375c-0.06058,0.86625 -0.12117,1.7325 -0.18359,2.625c0.33,0.33 0.66,0.66 1,1c-0.06489,1.56615 -0.20267,3.12951 -0.375,4.6875c-0.0941,0.90879 -0.1882,1.81758 -0.28516,2.75391c-0.33984,2.55859 -0.33984,2.55859 -1.15234,5.68359c-0.27949,4.28551 1.67189,7.25525 3.8125,10.875c4.04623,0.3698 4.04623,0.3698 7,-2c-0.66,2.31 -1.32,4.62 -2,7c-7.59,0.33 -15.18,0.66 -23,1c0,-1.98 0,-3.96 0,-6c-2.01622,0.71563 -2.01622,0.71563 -4,2c-1.02231,2.47059 -1.14314,3.60583 -0.22266,6.14063c0.38286,0.69609 0.76571,1.39218 1.16016,2.10937c0.38027,0.70641 0.76055,1.41281 1.15234,2.14063c0.45053,0.79664 0.45053,0.79664 0.91016,1.60937c-0.9075,-0.80437 -1.815,-1.60875 -2.75,-2.4375c-2.40532,-2.02434 -4.1267,-2.98411 -7.25,-3.5625c-0.33,-0.66 -0.66,-1.32 -1,-2c-1.98,0 -3.96,0 -6,0c0,-0.66 0,-1.32 0,-2c-1.32,0.33 -2.64,0.66 -4,1c-0.33,-0.99 -0.66,-1.98 -1,-3c-4.18239,0.54769 -6.59869,2.89889 -9.75,5.5625c-1.47727,1.23943 -1.47727,1.23943 -2.98438,2.50391c-0.74765,0.63808 -1.49531,1.27617 -2.26562,1.93359c-0.29906,-0.62391 -0.59813,-1.24781 -0.90625,-1.89062c-1.12996,-2.17921 -2.21409,-3.543 -4.09375,-5.10938c-0.66,0 -1.32,0 -2,0c-0.0825,-1.03125 -0.165,-2.0625 -0.25,-3.125c-0.81808,-4.22673 -2.01546,-6.57746 -4.75,-9.875c-0.99,0 -1.98,0 -3,0c0,-0.99 0,-1.98 0,-3c-0.66,0 -1.32,0 -2,0c-0.99,1.98 -1.98,3.96 -3,6c0,-2.31 0,-4.62 0,-7c-1.32,0.33 -2.64,0.66 -4,1c0,-0.99 0,-1.98 0,-3c-4.11973,0.65274 -4.11973,0.65274 -8.1875,1.5625c-1.8125,0.4375 -1.8125,0.4375 -4.8125,0.4375c-0.66,0.33 -1.32,0.66 -2,1c0,2.64 0,5.28 0,8c-0.60328,-0.14437 -1.20656,-0.28875 -1.82813,-0.4375c-0.79921,-0.18562 -1.59843,-0.37125 -2.42187,-0.5625c-0.78891,-0.18562 -1.57781,-0.37125 -2.39063,-0.5625c-2.61493,-0.55905 -2.61493,-0.55905 -6.35937,-0.4375c-0.33,1.32 -0.66,2.64 -1,4c-0.99,-0.66 -1.98,-1.32 -3,-2c-0.66,1.32 -1.32,2.64 -2,4c-0.33,-2.64 -0.66,-5.28 -1,-8c-5.46864,1.01591 -10.7639,2.07091 -16,4c0,-0.66 0,-1.32 0,-2c-3.37463,0.54724 -5.08235,1.0549 -8,3c0,0.66 0,1.32 0,2c0.66,0.33 1.32,0.66 2,1c-0.84305,-0.0232 -1.68609,-0.04641 -2.55469,-0.07031c-1.0957,-0.01805 -2.1914,-0.0361 -3.32031,-0.05469c-1.09055,-0.0232 -2.18109,-0.04641 -3.30469,-0.07031c-2.95742,-0.1053 -2.95742,-0.1053 -4.82031,2.19531c-0.46162,2.43253 -0.46162,2.43253 -0.625,5.125c-0.07477,0.91008 -0.14953,1.82016 -0.22656,2.75781c-0.04899,0.69867 -0.09797,1.39735 -0.14844,2.11719c1.14469,-0.03094 1.14469,-0.03094 2.3125,-0.0625c2.6875,0.0625 2.6875,0.0625 5.6875,1.0625c3.22906,-0.75983 3.22906,-0.75983 6.6875,-1.9375c1.76924,-0.57041 1.76924,-0.57041 3.57422,-1.15234c1.35545,-0.45053 1.35545,-0.45053 2.73828,-0.91016c-1.32,1.65 -2.64,3.3 -4,5c2.31,-0.33 4.62,-0.66 7,-1c0,1.32 0,2.64 0,4c1.485,0.99 1.485,0.99 3,2c0,0.66 0,1.32 0,2c0.66,0 1.32,0 2,0c0,0.66 0,1.32 0,2c-2.64,-0.33 -5.28,-0.66 -8,-1c0,-0.66 0,-1.32 0,-2c-4.29,-0.66 -8.58,-1.32 -13,-2c0.33,1.32 0.66,2.64 1,4c0.86625,-0.0825 1.7325,-0.165 2.625,-0.25c4.26751,0.31611 6.21375,1.38982 9.375,4.25c0.375,3.25 0.375,3.25 0,6c-0.66,0.33 -1.32,0.66 -2,1c-0.66,-0.33 -1.32,-0.66 -2,-1c-2.37783,0.08838 -4.75345,0.24346 -7.125,0.4375c-1.28133,0.10184 -2.56266,0.20367 -3.88281,0.30859c-0.98742,0.08379 -1.97485,0.16758 -2.99219,0.25391c0,0.66 0,1.32 0,2c0.69867,0.15855 1.39734,0.31711 2.11719,0.48047c7.48824,1.91979 7.48824,1.91979 9.44531,4.89453c0.14438,0.86625 0.28875,1.7325 0.4375,2.625c0.20625,0.86625 0.4125,1.7325 0.625,2.625c0.375,2.375 0.375,2.375 0.375,5.375c3.41656,0.16677 3.41656,0.16677 7,0c2.68093,-2.68093 2.3867,-4.39167 2.625,-8.125c0.07477,-1.0957 0.14953,-2.19141 0.22656,-3.32031c0.04899,-0.84305 0.09797,-1.6861 0.14844,-2.55469c0.66,0 1.32,0 2,0c0.14438,0.78375 0.28875,1.5675 0.4375,2.375c0.44049,2.58921 0.44049,2.58921 1.5625,4.625c-0.66,0.33 -1.32,0.66 -2,1c0.33,0.99 0.66,1.98 1,3c1.60875,-0.15469 1.60875,-0.15469 3.25,-0.3125c3.75,0.3125 3.75,0.3125 6.0625,2.8125c0.55687,0.825 1.11375,1.65 1.6875,2.5c0.66,0 1.32,0 2,0c0,-0.66 0,-1.32 0,-2c1.98,0.33 3.96,0.66 6,1c0,0.99 0,1.98 0,3c1.65,-0.33 3.3,-0.66 5,-1c0,-0.66 0,-1.32 0,-2c0.99,0 1.98,0 3,0c0,2.64 0,5.28 0,8c0.99,0 1.98,0 3,0c0,-1.98 0,-3.96 0,-6c0.99,0 1.98,0 3,0c0,0.99 0,1.98 0,3c1.32,0 2.64,0 4,0c-0.66,1.65 -1.32,3.3 -2,5c1.83284,1.12516 1.83284,1.12516 4,2c0.99,-0.33 1.98,-0.66 3,-1c-0.66,1.65 -1.32,3.3 -2,5c1.98,1.98 1.98,1.98 4,4c1.65,-0.66 3.3,-1.32 5,-2c0,-1.98 0,-3.96 0,-6c0.51562,0.99 1.03125,1.98 1.5625,3c0.80437,0.99 1.60875,1.98 2.4375,3c3.66858,0.50125 3.66858,0.50125 7,0c0.66,1.32 1.32,2.64 2,4c-1.65,1.32 -3.3,2.64 -5,4c1.10859,-0.0232 2.21719,-0.04641 3.35937,-0.07031c1.46354,-0.01877 2.92708,-0.03697 4.39063,-0.05469c0.72961,-0.01676 1.45922,-0.03352 2.21094,-0.05078c3.84352,-0.03494 6.78513,0.00078 10.03906,2.17578c-0.99,0.33 -1.98,0.66 -3,1c-2.30762,3.19517 -3.68809,6.04913 -4,10c2.22209,3.33313 2.67809,3.52753 6.375,4.375c1.15629,0.29004 1.15629,0.29004 2.33594,0.58594c2.38611,0.27506 2.38611,0.27506 4.21875,-1.41016c2.73275,-2.04699 4.45202,-1.85858 7.82031,-1.73828c1.47727,0.04061 1.47727,0.04061 2.98437,0.08203c0.74766,0.03481 1.49532,0.06961 2.26563,0.10547c-0.63809,0.26555 -1.27617,0.53109 -1.93359,0.80469c-1.23944,0.5298 -1.23944,0.5298 -2.50391,1.07031c-1.23557,0.52207 -1.23557,0.52207 -2.49609,1.05469c-2.22388,0.8948 -2.22388,0.8948 -3.06641,3.07031c-0.50008,3.45786 -0.50008,3.45786 0,7c2.26816,1.84426 2.26816,1.84426 5,3c1.8125,1.6875 1.8125,1.6875 3,3c-1.43414,3.72878 -3.79677,5.79675 -6.75781,8.33984c-1.41316,1.64236 -1.41316,1.64236 -1.72266,4.01563c0.68557,3.77342 2.60327,5.33367 5.29297,8.01953c3.87974,4.00972 6.38744,7.33071 8.1875,12.625c2.83684,5.67369 6.9269,9.29576 12.75,11.625c3.25,1.375 3.25,1.375 5.25,4.375c1.881,0.96741 1.881,0.96741 4,1.625c2.08719,0.71363 4.02523,1.38762 6,2.375c0,-0.66 0,-1.32 0,-2c1.98,0 3.96,0 6,0c-0.28875,0.61488 -0.5775,1.22977 -0.875,1.86328c-0.37125,0.80824 -0.7425,1.61649 -1.125,2.44922c-0.37125,0.80051 -0.7425,1.60102 -1.125,2.42578c-1.05541,2.32386 -1.05541,2.32386 -0.875,5.26172c0.66,0 1.32,0 2,0c0.26812,0.86625 0.53625,1.7325 0.8125,2.625c1.15862,3.29292 2.5696,6.28628 4.1875,9.375c-0.99,0.33 -1.98,0.66 -3,1c0.0825,0.86625 0.165,1.7325 0.25,2.625c-0.31081,4.19598 -1.65625,6.11428 -4.25,9.375c-0.99,0.66 -1.98,1.32 -3,2c1.29595,4.07985 2.48373,5.70243 6.1875,7.8125c4.21917,2.62255 7.174,5.52151 10.30469,9.35547c1.42561,1.84249 1.42561,1.84249 3.08593,3.17187c2.09749,2.44899 2.54888,4.92207 3.29688,8.03516c0.28617,1.12148 0.57234,2.24297 0.86719,3.39844c0.30371,3.80099 -0.48667,5.23042 -2.74219,8.22656c-0.16113,-0.59426 -0.32227,-1.18852 -0.48828,-1.80078c-2.77678,-8.46193 -8.08342,-13.36942 -14.51172,-19.19922c-0.99,0.33 -1.98,0.66 -3,1c-1.70639,10.94028 -3.29247,21.89032 -4.6875,32.875c-0.13124,1.01514 -0.26249,2.03027 -0.39771,3.07617c-0.5883,4.71279 -1.08425,9.28792 -0.91479,14.04883c0.99,-0.66 1.98,-1.32 3,-2c5,5.5 5,5.5 5,10c-2.31,0 -4.62,0 -7,0c-2.50559,4.48022 -3.68516,8.62951 -4.4375,13.65625c-0.24758,1.51602 -0.49769,3.03163 -0.75,4.54688c-0.19529,1.17949 -0.19529,1.17949 -0.39453,2.38281c-1.12735,6.51124 -2.53513,12.97219 -3.89746,19.4375c-0.52573,2.50141 -1.04276,5.00454 -1.55957,7.50781c-6.44853,30.92369 -6.44853,30.92369 -18.96094,39.46875c2.69937,3.71163 6.70004,4.29847 11,5c1.32,0 2.64,0 4,0c1.42958,5.32843 0.31253,8.09745 -2,13c0,0.99 0,1.98 0,3c0.99,0 1.98,0 3,0c0,-0.99 0,-1.98 0,-3c1.98,-0.33 3.96,-0.66 6,-1c0,1.65 0,3.3 0,5c8.05483,3.89975 14.81515,7.14282 24,6c0.2475,1.02094 0.2475,1.02094 0.5,2.0625c2.23099,4.36902 5.38658,7.28944 9.5,9.9375c4.5764,0.68646 7.00635,0.06568 11,-2c4.10996,0.33959 5.66566,2.67188 8.3125,5.625c3.37079,3.19948 4.91436,4.31565 9.60547,4.67578c2.70068,-0.16583 5.27303,-0.54697 7.95703,-0.96094c1.03125,-0.11214 2.0625,-0.22429 3.125,-0.33984c0.66,0.66 1.32,1.32 2,2c1.91955,0.2928 1.91955,0.2928 4.09766,0.23047c1.20172,-0.0029 1.20172,-0.0029 2.42773,-0.00586c0.83725,-0.01225 1.67449,-0.02449 2.53711,-0.03711c0.84111,-0.00064 1.68223,-0.00129 2.54883,-0.00195c4.01383,0.36752 4.01383,0.36752 7.38867,-1.18555c0.0718,-1.51928 0.08392,-3.04167 0.0625,-4.5625c-0.00902,-0.82629 -0.01805,-1.65258 -0.02734,-2.50391c-0.01161,-0.63808 -0.02321,-1.27617 -0.03516,-1.93359c5.64667,-0.26853 10.29143,0.62976 15.6875,2.25c1.11858,0.30744 1.11858,0.30744 2.25977,0.62109c4.46829,1.31538 6.8255,2.66856 10.05273,6.12891c1.98469,0.50355 1.98469,0.50355 4,0.4375c2.12891,0.14844 2.12891,0.14844 4,0.5625c0.63938,0.84563 1.27875,1.69125 1.9375,2.5625c1.74441,2.63688 1.74441,2.63688 4.01953,2.625c1.55253,-0.08464 3.10464,-0.17732 4.65625,-0.27734c3.44786,0.12978 5.82032,1.50575 8.75781,3.21484c1.61438,1.03274 1.61438,1.03274 3.62891,0.875c-0.33,1.98 -0.66,3.96 -1,6c0.93973,0.34611 0.93973,0.34611 1.89844,0.69922c6.75851,2.69701 6.75851,2.69701 8.66406,6.05078c0.14438,0.7425 0.28875,1.485 0.4375,2.25c3.93076,-0.57453 3.93076,-0.57453 7,-3c6.5796,-0.94169 12.04671,0.23597 18,3c0.66,0.66 1.32,1.32 2,2c3.08348,0.16681 3.08348,0.16681 6,0c0,-1.32 0,-2.64 0,-4c0.9075,-0.28875 1.815,-0.5775 2.75,-0.875c3.0781,-0.95002 3.0781,-0.95002 5.03125,-2.15625c2.9949,-1.30763 5.71644,-1.39861 8.96875,-1.59375c1.17047,-0.07477 2.34094,-0.14953 3.54688,-0.22656c0.89203,-0.04899 1.78406,-0.09797 2.70312,-0.14844c-0.48316,-0.85271 -0.96631,-1.70543 -1.46411,-2.58398c-2.58359,-5.74625 -2.21739,-11.70577 -2.22339,-17.91602c-0.00411,-1.01212 -0.00411,-1.01212 -0.0083,-2.04468c0.02706,-12.60719 1.87574,-20.35983 10.72705,-29.5686c3.24577,-2.80141 5.8168,-4.08587 10.09375,-4.38672c5.27681,-0.68088 6.56657,-2.44718 9.875,-6.5c0,-0.66 0,-1.32 0,-2c0.57621,-0.26941 1.15242,-0.53883 1.74609,-0.81641c2.28849,-1.20175 4.23517,-2.59225 6.31641,-4.12109c4.99147,-3.40252 10.07774,-4.81388 15.9375,-6.0625c0.46148,0.97453 0.92297,1.94906 1.39844,2.95313c1.43582,2.15309 2.1519,2.92648 4.68066,3.60351c2.52881,0.18747 5.0104,0.22742 7.5459,0.19336c1.72141,0.00764 3.4428,0.02289 5.16406,0.04688c0.76007,-0.00677 1.52013,-0.01354 2.30323,-0.02051c1.90771,0.22363 1.90771,0.22363 3.90771,2.22363c0.33,1.32 0.66,2.64 1,4c2.97,0 5.94,0 9,0c1.80317,-3.96698 2.49203,-7.68225 3,-12c2.31,0.33 4.62,0.66 7,1c0.33,1.65 0.66,3.3 1,5c0.99,0 1.98,0 3,0c-0.99,1.98 -1.98,3.96 -3,6c1.72946,-0.14235 3.45856,-0.28904 5.1875,-0.4375c0.96293,-0.08121 1.92586,-0.16242 2.91797,-0.24609c2.68103,-0.29307 5.26083,-0.74345 7.89453,-1.31641c0.29004,0.93973 0.29004,0.93973 0.58594,1.89844c0.26039,0.81726 0.52078,1.63453 0.78906,2.47656c0.38285,1.21816 0.38285,1.21816 0.77344,2.46094c0.7501,2.32865 0.7501,2.32865 2.85156,4.16406c2.25764,0.64602 2.25764,0.64602 4.8125,1.0625c0.85207,0.15598 1.70414,0.31195 2.58203,0.47266c0.85981,0.15339 1.71961,0.30679 2.60547,0.46484c3.33979,0.62226 6.07249,1.22258 9,3c0.33,0.66 0.66,1.32 1,2c0.64066,-0.08379 1.28133,-0.16758 1.94141,-0.25391c5.28934,-0.62274 9.82904,-0.76926 15.05859,0.25391c0.33,-0.99 0.66,-1.98 1,-3c2.64,0.33 5.28,0.66 8,1c0,-0.99 0,-1.98 0,-3c3.07617,-0.29297 3.07617,-0.29297 6.15234,-0.58594c0.60973,-0.13664 1.21946,-0.27328 1.84766,-0.41406c0.33,-0.66 0.66,-1.32 1,-2c3.0625,-0.625 3.0625,-0.625 6,-1c0.99435,-3.09355 0.87841,-4.90279 0,-8c7.22152,-6.70186 7.22152,-6.70186 10.9375,-8.125c0.68062,-0.28875 1.36125,-0.5775 2.0625,-0.875c0.3592,-1.66128 0.68912,-3.329 1,-5c2.375,-2.625 2.375,-2.625 5,-5c1.75149,-1.58245 1.75149,-1.58245 3,-3c0,-0.66 0,-1.32 0,-2c0.56719,-0.26812 1.13438,-0.53625 1.71875,-0.8125c2.3934,-1.24588 4.55579,-2.66321 6.78125,-4.1875c4.2165,-2.88801 4.2165,-2.88801 6.69531,-3.86719c2.03247,-1.01724 2.03247,-1.01724 2.64063,-3.45312c0.17789,-0.92555 0.35578,-1.8511 0.53906,-2.80469c0.97812,-4.20373 2.09895,-6.88054 4.875,-10.1875c2.59141,-3.05142 2.59141,-3.05142 2.625,-7.1875c-0.28875,-0.825 -0.5775,-1.65 -0.875,-2.5c-3.38563,-1.16693 -5.1506,-0.8216 -8.4375,0.5c-3.65593,1.29419 -5.83098,1.97297 -9.5625,0.5c-1.68865,-0.97422 -3.37575,-1.95188 -5.03906,-2.96875c-2.15855,-1.13517 -4.23971,-1.75149 -6.58594,-2.40625c-4.83106,-1.54429 -6.79736,-3.21807 -9.375,-7.625c-0.20241,-2.06957 -0.12663,-3.97916 0.03516,-6.05078c0.10603,-2.26307 0.10603,-2.26307 -1.72266,-5.13672c-0.64969,-1.39219 -0.64969,-1.39219 -1.3125,-2.8125c1.125,-2.5 1.125,-2.5 3,-5c0.7425,-1.57781 0.7425,-1.57781 1.5,-3.1875c1.5,-2.8125 1.5,-2.8125 4.5,-4.8125c-1.03126,-3.76064 -1.03126,-3.76064 -3,-7c-2.3002,-0.92094 -4.39033,-1.29843 -6.84375,-1.61328c-2.15625,-0.38672 -2.15625,-0.38672 -5.15625,-2.38672c-1.1875,-3.625 -1.1875,-3.625 -2,-7c-0.99,0 -1.98,0 -3,0c-0.26812,-0.96938 -0.53625,-1.93875 -0.8125,-2.9375c-0.39187,-1.01063 -0.78375,-2.02125 -1.1875,-3.0625c-0.99,-0.33 -1.98,-0.66 -3,-1c0.71656,-0.27675 1.43312,-0.55349 2.17139,-0.83862c3.24218,-1.2643 6.47267,-2.55614 9.70361,-3.84888c1.12793,-0.43506 2.25586,-0.87012 3.41797,-1.31836c1.07637,-0.43506 2.15273,-0.87012 3.26172,-1.31836c0.99499,-0.39276 1.98999,-0.78552 3.01513,-1.19018c2.98074,-1.82216 3.51148,-3.17201 4.43018,-6.4856c0.43889,-2.20254 0.43889,-2.20254 0.625,-4.3125c0.12375,-1.21688 0.2475,-2.43375 0.375,-3.6875c-1.09312,-0.61875 -2.18625,-1.2375 -3.3125,-1.875c-4.22913,-2.94347 -4.72796,-6.05091 -5.875,-10.88281c-0.6874,-2.598 -0.6874,-2.598 -3.875,-4.24219c-0.96938,-0.33 -1.93875,-0.66 -2.9375,-1c-2,-2 -2,-2 -2.41016,-4.34375c0.69605,-4.50771 4.22256,-6.50776 7.53907,-9.375c2.17075,-2.12861 2.17075,-2.12861 1.7539,-4.90625c-1.64483,-4.42503 -4.38133,-7.03504 -8.19531,-9.625c-2.6875,-2.75 -2.6875,-2.75 -2.77734,-4.96094c0.33984,-2.41406 0.33984,-2.41406 0.85547,-4.70312c0.49553,-2.39202 0.49553,-2.39202 -1.76563,-5.08594c-0.385,-1.6555 -0.72793,-3.32224 -1,-5c-7.33632,-0.6834 -7.33632,-0.6834 -13.875,2c-0.70125,0.66 -1.4025,1.32 -2.125,2c-1.66622,0.03875 -3.33394,0.04503 -5,0c-2.27991,2.68699 -2.27991,2.68699 -1.6875,5c0.22688,0.66 0.45375,1.32 0.6875,2c0.33,0.99 0.66,1.98 1,3c-0.5775,0.26812 -1.155,0.53625 -1.75,0.8125c-2.27012,1.10018 -2.27012,1.10018 -4.0625,2.6875c-2.51642,1.72555 -4.44527,2.17567 -7.4375,2.6875c-1.33805,0.23783 -1.33805,0.23783 -2.70312,0.48047c-0.67547,0.10957 -1.35094,0.21914 -2.04688,0.33203c0,-2.64 0,-5.28 0,-8c1.17562,-0.43313 1.17562,-0.43313 2.375,-0.875c2.72172,-0.97412 2.72172,-0.97412 4.625,-3.125c0.40047,-2.32275 0.73971,-4.65739 1,-7c-1.32,-0.33 -2.64,-0.66 -4,-1c2.61384,-11.21201 5.3387,-17.98914 15,-25c2.2901,-1.83666 2.2901,-1.83666 2.09766,-4.60937c-0.01161,-1.03641 -0.02321,-2.07282 -0.03516,-3.14063c0.3993,-5.7256 0.3993,-5.7256 2.61328,-7.88281c1.53649,-0.86786 3.08301,-1.71807 4.63672,-2.55469c3.56359,-2.40335 5.93056,-5.32147 8.5625,-8.6875c0.4639,-0.57734 0.9278,-1.15468 1.40576,-1.74951c3.24221,-4.22778 5.04201,-8.32158 6.71924,-13.37549c-0.99,-0.66 -1.98,-1.32 -3,-2c0.45848,-4.12635 0.84889,-6.25991 4,-9c0,-0.66 0,-1.32 0,-2c3.3,0 6.6,0 10,0c0,1.32 0,2.64 0,4c4.65053,0.26933 4.65053,0.26933 9,-1c0,-1.32 0,-2.64 0,-4c0.99,0 1.98,0 3,0c2.31093,-3.60259 2.03464,-6.19876 1.5625,-10.375c-0.36743,-3.30304 -0.65415,-6.10321 -0.07812,-9.38281c0.45799,-2.87981 0.51512,-5.25427 0.40234,-8.14844c-0.40298,-10.5833 -0.25593,-18.10257 4.67969,-27.59766c1.76273,-4.29876 1.9886,-8.08945 2.24609,-12.68359c0.50464,-7.72006 2.54591,-11.77056 7.99219,-17.48828c4.39634,-4.65449 6.55654,-9.93654 7.19531,-16.32422c-5.56577,-2.80876 -9.77065,-3.2869 -15.9375,-3.25c-5.75277,-0.1116 -9.71306,-0.30398 -14.1875,-4.3125c-1.75781,-1.94141 -1.75781,-1.94141 -2.875,-3.4375c-0.72188,0.495 -1.44375,0.99 -2.1875,1.5c-5.12212,2.64168 -11.22308,1.72391 -16.8125,1.5c-0.26812,-0.63938 -0.53625,-1.27875 -0.8125,-1.9375c-1.07418,-2.39382 -1.07418,-2.39382 -4.1875,-3.0625c-0.66,0.33 -1.32,0.66 -2,1c0,1.32 0,2.64 0,4c-6.62447,-1.15928 -10.28115,-5.74001 -14,-11c-0.85937,-2.26562 -0.85937,-2.26562 -1.4375,-4.375c-1.14721,-3.6382 -1.14721,-3.6382 -3.52344,-4.78906c-4.30086,-1.52888 -8.46595,-2.38036 -13.03906,-1.83594c-1.485,0.99 -1.485,0.99 -3,2c-5.70252,0.64557 -8.52347,-0.48273 -13,-4c-0.33,-0.33 -0.66,-0.66 -1,-1c-2.33297,-0.04093 -4.66705,-0.04242 -7,0c-0.33,1.32 -0.66,2.64 -1,4c-2.97,0 -5.94,0 -9,0c-0.66,-2.31 -1.32,-4.62 -2,-7c-1.65,0 -3.3,0 -5,0c-0.33,-1.65 -0.66,-3.3 -1,-5c-0.86625,-0.22688 -1.7325,-0.45375 -2.625,-0.6875c-3.375,-1.3125 -3.375,-1.3125 -6.25,-3.9375c-4.11865,-3.13018 -6.08684,-2.80932 -11.125,-2.375c0.14309,-0.90492 0.14309,-0.90492 0.28906,-1.82812c0.11086,-0.79922 0.22172,-1.59844 0.33594,-2.42188c0.11602,-0.78891 0.23203,-1.57781 0.35156,-2.39062c0.02704,-2.72157 -0.71946,-3.9875 -1.97656,-6.35938c-0.46346,-4.0219 -0.28613,-8.14161 1,-12c-1.99864,0.57945 -1.99864,0.57945 -4,2c-1.3583,3.19202 -2,5.52711 -2,9c-8.35873,3.58231 -16.07985,3.29551 -25,3c0.47333,-2.93301 0.95088,-5.80799 1.6875,-8.6875c0.60871,-2.58441 0.60871,-2.58441 -1.6875,-5.3125c0.06188,-0.92813 0.12375,-1.85625 0.1875,-2.8125c-0.1999,-3.39825 -0.85241,-5.49045 -3.15234,-8.05859c-4.70467,-2.60969 -10.84504,-1.64858 -16.03516,-1.12891c-0.66,0.33 -1.32,0.66 -2,1c-0.99,-3.3 -1.98,-6.6 -3,-10c-1.38188,-0.28875 -2.76375,-0.5775 -4.1875,-0.875c-0.82113,-0.19207 -1.64227,-0.38414 -2.48828,-0.58203c-1.72536,-0.40307 -3.46037,-0.76526 -5.19922,-1.10547c-3.59137,-2.42946 -4.04747,-6.39846 -5.125,-10.4375c-0.97483,-3.79195 -0.97483,-3.79195 -3,-7c-4.8129,-0.49121 -4.8129,-0.49121 -9,1.5c-2.92803,2.19602 -5.45051,1.70478 -9,1.5c-0.66,-1.98 -1.32,-3.96 -2,-6c-1.65,0 -3.3,0 -5,0c0.05221,-1.08668 0.05221,-1.08668 0.10547,-2.19531c0.2634,-7.85195 0.2634,-7.85195 -3.10547,-14.80469c-3.28641,-1.30763 -5.54129,-0.83267 -8.88672,0.10938zm-314.11328,172.89062c0,0.99 0,1.98 0,3c0.66,0 1.32,0 2,0c0,-0.99 0,-1.98 0,-3c-0.66,0 -1.32,0 -2,0zm72,58c0.33,0.66 0.66,1.32 1,2c0.99,-0.33 1.98,-0.66 3,-1c-1.32,-0.33 -2.64,-0.66 -4,-1zm77,141c1.30574,5.1179 3.31616,7.76149 7.125,11.375c0.91008,0.87398 1.82016,1.74797 2.75781,2.64844c0.69867,0.65226 1.39735,1.30453 2.11719,1.97656c0.33,-0.99 0.66,-1.98 1,-3c-1.78812,-1.98248 -3.58026,-3.96104 -5.375,-5.9375c-0.50789,-0.56396 -1.01578,-1.12793 -1.53906,-1.70898c-2.71279,-3.08737 -2.71279,-3.08737 -6.08594,-5.35352zm-7,61c-0.33,0.99 -0.66,1.98 -1,3c1.32,-0.33 2.64,-0.66 4,-1c-0.99,-0.66 -1.98,-1.32 -3,-2zm302,87c0.66,1.98 1.32,3.96 2,6c0.33,0 0.66,0 1,0c0,-1.65 0,-3.3 0,-5c-0.99,-0.33 -1.98,-0.66 -3,-1zm-1,6c0.66,0.66 1.32,1.32 2,2c0,-0.66 0,-1.32 0,-2c-0.66,0 -1.32,0 -2,0z"/>
  <path id="svg_3" fill="#ED6E50" d="m40,567c1.70751,-0.08203 3.41619,-0.13965 5.125,-0.1875c0.95133,-0.0348 1.90266,-0.06961 2.88281,-0.10547c3.57149,0.34969 5.80517,1.66962 8.99219,3.29297c1.94873,0.45001 3.89871,0.89815 5.86206,1.2793c8.20196,1.61318 12.29023,3.68791 17.13794,10.7207c2.46394,2.22928 4.24068,3.74023 7.375,4.8125c3.43955,1.55598 5.36652,3.94216 7.92578,6.66797c1.66006,1.7685 1.66006,1.7685 4.38672,1.89453c2.3125,0.625 2.3125,0.625 3.50781,2.28125c2.89181,5.74318 4.16741,11.98103 2.80469,18.34375c-1.8125,1.98828 -1.8125,1.98828 -4,4c-1.21284,1.76074 -2.37833,3.55483 -3.5,5.375c-0.90299,1.44826 -0.90299,1.44826 -1.82422,2.92578c-0.55301,0.89074 -1.10601,1.78149 -1.67578,2.69922c-1.84074,2.87155 -3.57612,5.57612 -6,8c-0.65495,1.64737 -1.25118,3.31842 -1.8125,5c-5.73463,16.16316 -5.73463,16.16316 -12.1875,20c-0.66,0 -1.32,0 -2,0c0,0.66 0,1.32 0,2c-4.51822,1.08044 -7.33417,1.07207 -11.75,-0.4375c-5.3507,-1.77538 -10.64738,-2.47539 -16.25,-1.5625c-1.33489,0.99793 -2.66824,1.99791 -4,3c-5.17089,0.78194 -10.33185,0.48968 -15,-2c-0.3999,-4.98782 0.43762,-7.17748 3.4375,-11.125c3.55639,-5.20273 4.32973,-9.10107 4.29687,-15.34375c0.31676,-3.01845 1.0486,-3.58785 3.26563,-5.53125c1.26624,-3.27434 1.26624,-3.27434 1,-7c-1.30483,-1.99842 -2.79532,-3.61024 -4.4375,-5.33984c-5.39316,-5.73023 -5.60397,-13.20694 -6.5625,-20.66016c-0.14824,-0.84562 -0.29648,-1.69125 -0.44922,-2.5625c-0.88728,-5.49543 -0.37267,-9.58233 2.44922,-14.4375c2.13331,-2.87233 4.34479,-5.59432 7,-8c0.66,0 1.32,0 2,0c0.21656,-1.42312 0.21656,-1.42312 0.4375,-2.875c0.5625,-3.125 0.5625,-3.125 1.5625,-5.125z"/>
  <path id="svg_4" fill="#E8E7E7" d="m578,566c1.71797,6.79518 2.11069,12.92238 1.67969,19.92188c0.34785,3.34278 1.34947,4.49989 3.28711,7.12255c2.44964,4.6365 2.65748,10.26292 3.3457,15.39307c0.27167,1.80308 0.27167,1.80308 0.54883,3.64258c2.01933,14.24529 2.01933,14.24529 -1.92383,20.73242c-2.63033,5.43979 -2.208,10.90288 -1.96509,16.80396c0.15885,4.39074 -0.11879,7.30863 -1.97241,11.38354c0.33,0.66 0.66,1.32 1,2c-0.77772,3.1129 -2.02992,6.07304 -3.1875,9.0625c-0.30486,0.84111 -0.60973,1.68223 -0.92383,2.54883c-0.46116,1.19979 -0.46116,1.19979 -0.93164,2.42383c-0.27868,0.73613 -0.55736,1.47227 -0.84448,2.23071c-1.11255,1.73413 -1.11255,1.73413 -3.09424,2.56396c-2.01831,0.17017 -2.01831,0.17017 -4.26831,-1.14233c-0.5775,-0.55688 -1.155,-1.11375 -1.75,-1.6875c0,-0.66 0,-1.32 0,-2c-0.58008,-0.10957 -1.16016,-0.21914 -1.75781,-0.33203c-6.69765,-1.35943 -12.90309,-2.99376 -17.24219,-8.66797c-0.55157,-3.76906 -0.16551,-4.75173 2,-8c-2.31,-0.33 -4.62,-0.66 -7,-1c0.82187,-4.38332 1.90154,-8.6794 3,-13c-3.3,0.99 -6.6,1.98 -10,3c1.32,-4.62 2.64,-9.24 4,-14c-1.65,-0.99 -3.3,-1.98 -5,-3c-1.45691,-2.89781 -1.99415,-5.7591 -2,-9c1.875,-2.5625 1.875,-2.5625 4,-4c-0.66,-0.33 -1.32,-0.66 -2,-1c-1.485,0.495 -1.485,0.495 -3,1c-0.51511,-5.4087 0.96703,-7.62896 4,-12c0.69731,-2.32436 1.36912,-4.65674 2,-7c0.66,-0.66 1.32,-1.32 2,-2c0.99,0 1.98,0 3,0c0,-0.99 0,-1.98 0,-3c0.81984,-0.30293 1.63969,-0.60586 2.48437,-0.91797c1.61649,-0.62842 1.61649,-0.62842 3.26563,-1.26953c1.60102,-0.60908 1.60102,-0.60908 3.23437,-1.23047c3.33911,-1.75173 4.70178,-3.67278 7.01563,-6.58203c3.36845,-0.85165 6.86599,-0.567 10,1c-0.05124,-0.55986 -0.10248,-1.11971 -0.15527,-1.69653c-0.21998,-2.53732 -0.40767,-5.07602 -0.59473,-7.61597c-0.08121,-0.88107 -0.16242,-1.76215 -0.24609,-2.66992c-0.44385,-6.48503 -0.44385,-6.48503 1.77734,-9.17383c3.22937,-1.22807 5.13929,-0.17352 8.21875,1.15625z"/>
  <path id="svg_5" fill="#ED6E50" d="m63.875,432.5625c1.04221,0.09378 1.04221,0.09378 2.10547,0.18945c5.43381,0.66004 8.21527,2.29071 12.01953,6.24805c1.28516,2.53516 1.28516,2.53516 2.0625,5.0625c1.54023,4.36831 3.09696,6.23875 6.9375,8.9375c0.9375,2.0625 0.9375,2.0625 1,4c-0.66,0.99 -1.32,1.98 -2,3c-0.45601,2.50897 -0.45601,2.50897 -0.625,5.1875c-0.07477,0.90105 -0.14953,1.80211 -0.22656,2.73047c-0.04899,0.68707 -0.09797,1.37414 -0.14844,2.08203c-7.67022,2.8343 -13.851,4.17211 -21.57422,0.91406c-1.72878,-0.85276 -3.44072,-1.74063 -5.13281,-2.66406c-2.42318,-1.3765 -2.42318,-1.3765 -5.66797,-2.625c-5.32579,-3.29692 -6.76038,-8.89796 -8.625,-14.625c-0.66,-0.66 -1.32,-1.32 -2,-2c-0.125,-2.625 -0.125,-2.625 0,-5c1.32,-0.33 2.64,-0.66 4,-1c0.33,-2.31 0.66,-4.62 1,-7c1.65,0 3.3,0 5,0c0,-0.66 0,-1.32 0,-2c3.83106,-2.63013 7.49914,-1.99552 11.875,-1.4375z"/>
  <path id="svg_6" fill="#958888" d="m9.21164,543.89418c37.62,0 75.24,0 114,0c0,48.84 -0.2963,99.58476 -0.2963,149.90476l-113.7037,-0.37566c-0.09026,-51.14643 -0.08204,-59.05477 -0.07202,-66.96313c0.01325,-10.68269 0.01866,-21.3654 0.0245,-32.0481c0.00942,-16.8393 0.02934,-33.67857 0.04752,-50.51787zm2,2c0,47.85 0,96.44074 0,145.74074c36.3,0 72.70582,0.10582 110.10582,0.10582c0,-47.85 -0.10582,-96.54656 -0.10582,-145.84656c-36.3,0 -72.6,0 -110,0z"/>
  <path id="svg_7" fill="#FDFDFD" d="m578,566c1.71797,6.79518 2.11069,12.92238 1.67969,19.92188c0.34785,3.34278 1.34947,4.49989 3.28711,7.12255c2.44964,4.6365 2.65748,10.26292 3.3457,15.39307c0.27167,1.80308 0.27167,1.80308 0.54883,3.64258c2.01933,14.24529 2.01933,14.24529 -1.92383,20.73242c-2.63033,5.43979 -2.208,10.90288 -1.96509,16.80396c0.15885,4.39074 -0.11879,7.30863 -1.97241,11.38354c0.33,0.66 0.66,1.32 1,2c-0.77772,3.1129 -2.02992,6.07304 -3.1875,9.0625c-0.30486,0.84111 -0.60973,1.68223 -0.92383,2.54883c-0.46116,1.19979 -0.46116,1.19979 -0.93164,2.42383c-0.27868,0.73613 -0.55736,1.47227 -0.84448,2.23071c-1.11255,1.73413 -1.11255,1.73413 -3.09424,2.56396c-2.01831,0.17017 -2.01831,0.17017 -4.26831,-1.14233c-0.5775,-0.55688 -1.155,-1.11375 -1.75,-1.6875c0,-0.66 0,-1.32 0,-2c-0.58008,-0.10957 -1.16016,-0.21914 -1.75781,-0.33203c-6.69765,-1.35943 -12.90309,-2.99376 -17.24219,-8.66797c-0.55157,-3.76906 -0.16551,-4.75173 2,-8c-2.31,-0.33 -4.62,-0.66 -7,-1c0.82187,-4.38332 1.90154,-8.6794 3,-13c-3.3,0.99 -6.6,1.98 -10,3c1.32,-4.62 2.64,-9.24 4,-14c-1.65,-0.99 -3.3,-1.98 -5,-3c-1.45691,-2.89781 -1.99415,-5.7591 -2,-9c1.875,-2.5625 1.875,-2.5625 4,-4c-0.66,-0.33 -1.32,-0.66 -2,-1c-1.485,0.495 -1.485,0.495 -3,1c-0.51511,-5.4087 0.96703,-7.62896 4,-12c0.69731,-2.32436 1.36912,-4.65674 2,-7c0.66,-0.66 1.32,-1.32 2,-2c0.99,0 1.98,0 3,0c0,-0.99 0,-1.98 0,-3c0.81984,-0.30293 1.63969,-0.60586 2.48437,-0.91797c1.61649,-0.62842 1.61649,-0.62842 3.26563,-1.26953c1.60102,-0.60908 1.60102,-0.60908 3.23437,-1.23047c3.33911,-1.75173 4.70178,-3.67278 7.01563,-6.58203c3.36845,-0.85165 6.86599,-0.567 10,1c-0.05124,-0.55986 -0.10248,-1.11971 -0.15527,-1.69653c-0.21998,-2.53732 -0.40767,-5.07602 -0.59473,-7.61597c-0.08121,-0.88107 -0.16242,-1.76215 -0.24609,-2.66992c-0.44385,-6.48503 -0.44385,-6.48503 1.77734,-9.17383c3.22937,-1.22807 5.13929,-0.17352 8.21875,1.15625zm-6,2c0,6.93 0,13.86 0,21c-1.71188,-0.26813 -3.42375,-0.53625 -5.1875,-0.8125c-3.01214,-0.34052 -3.01214,-0.34052 -5.8125,-0.1875c-2.66651,2.16589 -2.66651,2.16589 -5,5c-2.59353,1.13544 -5.19569,2.04507 -7.89063,2.91016c-2.30571,0.89275 -2.30571,0.89275 -2.90625,3.21093c-0.06703,0.62004 -0.13406,1.24008 -0.20312,1.87891c-1.32,0 -2.64,0 -4,0c-0.18176,0.60328 -0.36352,1.20656 -0.55078,1.82813c-2.49667,7.93813 -2.49667,7.93813 -5.44922,11.17187c1.20656,0.61875 1.20656,0.61875 2.4375,1.25c2.5625,1.75 2.5625,1.75 3.375,3.9375c0.06188,0.59813 0.12375,1.19625 0.1875,1.8125c-0.99,0.58781 -0.99,0.58781 -2,1.1875c-2.17212,1.66228 -2.17212,1.66228 -2.75,4.1875c1.08879,3.81077 3.48511,4.77358 6.80469,6.70703c1.88826,1.06022 1.88826,1.06022 3.94531,0.91797c0,0.66 0,1.32 0,2c-0.92813,0.30938 -0.92813,0.30938 -1.875,0.625c-2.97154,1.92276 -3.25525,4.04095 -4.125,7.375c3.465,-0.99 3.465,-0.99 7,-2c0.0273,1.5624 0.04653,3.12494 0.0625,4.6875c0.0116,0.87012 0.0232,1.74023 0.03516,2.63672c-0.09766,2.67578 -0.09766,2.67578 -1.09766,7.67578c3.3,0.99 6.6,1.98 10,3c-0.99,0.59812 -1.98,1.19625 -3,1.8125c-1.485,1.08281 -1.485,1.08281 -3,2.1875c0,0.99 0,1.98 0,3c4.67487,4.0651 8.86187,5.81122 14.86328,7.22656c2.13672,0.77344 2.13672,0.77344 4.13672,3.77344c3.14207,-0.66578 3.14207,-0.66578 4.16797,-3.17969c0.33644,-0.88945 0.67289,-1.7789 1.01953,-2.69531c0.51627,-1.32645 0.51627,-1.32645 1.04297,-2.67969c0.91962,-2.49499 0.91962,-2.49499 0.76953,-5.44531c-0.99,-0.495 -0.99,-0.495 -2,-1c0.65098,-0.61617 1.30195,-1.23234 1.97266,-1.86719c2.8565,-4.41409 2.49469,-8.11435 2.46484,-13.25781c0.11928,-7.33993 0.52892,-12.9829 4.60156,-19.32812c1.49111,-3.95204 0.59391,-7.44459 -0.03906,-11.54688c-0.20842,-1.75344 -0.41275,-3.50736 -0.61328,-5.26172c-0.2315,-1.8088 -0.46458,-3.61739 -0.69922,-5.42578c-0.10506,-0.91072 -0.21012,-1.82145 -0.31836,-2.75977c-0.56698,-4.26628 -0.99777,-6.99919 -3.43164,-10.62695c-2.65509,-4.0094 -2.5674,-7.34268 -2.625,-12.05078c-0.04228,-1.58603 -0.08774,-3.17198 -0.13672,-4.75781c-0.0168,-1.04245 -0.0168,-1.04245 -0.03393,-2.10596c-0.14826,-2.10217 -0.57344,-3.98562 -1.14185,-6.01123c-0.99,0 -1.98,0 -3,0z"/>
  <path id="svg_8" fill="#ED6E50" d="m70.0625,21.1875c1.9375,0.8125 1.9375,0.8125 4.9375,2.8125c0.73047,2.38281 0.73047,2.38281 1.1875,5.125c0.15855,0.91008 0.31711,1.82016 0.48047,2.75781c0.10957,0.69867 0.21914,1.39735 0.33203,2.11719c0.62648,0.18176 1.25297,0.36352 1.89844,0.55078c0.81726,0.25137 1.63453,0.50274 2.47656,0.76172c0.81211,0.24363 1.62422,0.48727 2.46094,0.73828c2.16406,0.94922 2.16406,0.94922 4.16406,3.94922c2.05925,0.72382 2.05925,0.72382 4,1c-0.495,1.485 -0.495,1.485 -1,3c-1.17756,0.05607 -1.17756,0.05607 -2.37891,0.11328c-6.96236,0.33555 -6.96236,0.33555 -13.49609,2.51172c-4.59281,2.02084 -7.44255,0.99678 -12,-0.6875c-0.70125,-0.30937 -1.4025,-0.61875 -2.125,-0.9375c0.33,0.99 0.66,1.98 1,3c1.3318,4.85715 2.40419,9.4065 -0.09766,14.02734c-2.74387,3.57801 -4.29016,4.82455 -8.77734,5.91016c-1.03125,0.02063 -2.0625,0.04125 -3.125,0.0625c-3.93051,-5.09904 -5.65771,-9.75437 -6.8125,-16.0625c-0.18526,-1.00837 -0.18526,-1.00837 -0.37427,-2.03711c-1.89186,-11.35949 -1.89186,-11.35949 0.93677,-15.40039c2.25,-1.5 2.25,-1.5 4.09766,-1.18359c0.71027,0.22558 1.42054,0.45117 2.15234,0.68359c1.15049,0.33838 1.15049,0.33838 2.32422,0.68359c0.77988,0.24879 1.55976,0.49758 2.36328,0.75391c0.78762,0.24621 1.57523,0.49242 2.38672,0.74609c1.92578,0.81641 1.92578,0.81641 2.92578,2.81641c0.99,0 1.98,0 3,0c0.33,-1.65 0.66,-3.3 1,-5c0.66,0 1.32,0 2,0c-0.77344,-1.08281 -0.77344,-1.08281 -1.5625,-2.1875c-1.4375,-2.8125 -1.4375,-2.8125 -1.375,-5.4375c1.35143,-3.42363 3.12588,-5.53969 7,-5.1875z"/>
  <path id="svg_9" fill="#958888" d="m8,397c36.63,0 73.26,0 111,0c0,37.95 0,75.9 0,115c-36.63,0 -73.26,0 -111,0c0,-37.95 0,-75.9 0,-115zm2,2c0,36.63 0,73.26 0,111c35.31,0 70.62,0 107,0c0,-36.63 0,-73.26 0,-111c-35.31,0 -70.62,0 -107,0z"/>
  <path id="svg_10" fill="#958888" d="m11,3c38.28,0 76.56,0 116,0c0,30.36 0,60.72 0,92c-38.28,0 -76.56,0 -116,0c0,-30.36 0,-60.72 0,-92zm2,2c0,29.04 0,58.08 0,88c36.96,0 73.92,0 112,0c0,-29.04 0,-58.08 0,-88c-36.96,0 -73.92,0 -112,0z"/>
  <path id="svg_11" fill="#ED6E50" d="m199,24c4.9143,2.55245 9.32351,5.84396 13,10c0.33,-0.33 0.66,-0.66 1,-1c1.99958,-0.04081 4.00045,-0.04254 6,0c0,0.66 0,1.32 0,2c-0.66,0 -1.32,0 -2,0c0,0.78375 0,1.5675 0,2.375c0,1.54167 0,3.08333 0,4.625c1.42816,2.51628 2.93069,4.90403 4.625,7.25c1.91864,3.83727 2.64673,7.4566 2.375,11.75c-1.75,3.0625 -1.75,3.0625 -4,5c-0.99,0 -1.98,0 -3,0c-0.12375,-0.78375 -0.2475,-1.5675 -0.375,-2.375c-1.35422,-2.81602 -1.35422,-2.81602 -3.98437,-3.40234c-2.54266,-0.49201 -5.07066,-0.90497 -7.64063,-1.22266c0,0.66 0,1.32 0,2c-1.875,-0.3125 -1.875,-0.3125 -4,-1c-2,-3 -2,-3 -1.9375,-5.0625c0.9375,-1.9375 0.9375,-1.9375 3.5,-3.1875c0.80438,-0.2475 1.60875,-0.495 2.4375,-0.75c0,-0.33 0,-0.66 0,-1c-0.86625,-0.22687 -1.7325,-0.45375 -2.625,-0.6875c-3.81566,-1.48387 -6.80171,-3.12253 -9.375,-6.3125c-1.03038,-2.34432 -1.78257,-4.64045 -2.45703,-7.10937c-0.37621,-1.88536 -0.37621,-1.88536 -1.54297,-2.89063c-0.25,-3.4375 -0.25,-3.4375 0,-7c3.84457,-2.56305 5.42203,-2.59071 10,-2zm14,12c0,0.66 0,1.32 0,2c0.99,-0.33 1.98,-0.66 3,-1c-0.99,-0.33 -1.98,-0.66 -3,-1z"/>
  <path id="svg_12" fill="#958888" d="m8,277c32.01,0 64.02,0 97,0c0,31.68 0,63.36 0,96c-32.01,0 -64.02,0 -97,0c0,-31.68 0,-63.36 0,-96zm2,2c0,30.36 0,60.72 0,92c30.69,0 61.38,0 93,0c0,-30.36 0,-60.72 0,-92c-30.69,0 -61.38,0 -93,0z"/>
  <path id="svg_13" fill="#958888" d="m150,6c37.62,0 75.24,0 114,0c0,25.08 0,50.16 0,76c-37.62,0 -75.24,0 -114,0c0,-25.08 0,-50.16 0,-76zm2,2c0,23.76 0,47.52 0,72c36.3,0 72.6,0 110,0c0,-23.76 0,-47.52 0,-72c-36.3,0 -72.6,0 -110,0z"/>
  <path id="svg_14" fill="#ED6E50" d="m52,301c2.468,1.15173 4.04784,2.04784 6,4c0,0.99 0,1.98 0,3c1.01063,-0.0825 2.02125,-0.165 3.0625,-0.25c4.84025,0.30732 6.93118,1.63363 10.9375,4.25c-0.53115,4.51478 -2.3662,7.34667 -5,11c0.66,0.99 1.32,1.98 2,3c0,1.32 0,2.64 0,4c-0.66,0 -1.32,0 -2,0c0,1.32 0,2.64 0,4c-0.99,0 -1.98,0 -3,0c0,1.32 0,2.64 0,4c1.485,0.495 1.485,0.495 3,1c-0.33,0.99 -0.66,1.98 -1,3c-4.25567,1.16064 -7.68351,0.76173 -12,0c0,-0.99 0,-1.98 0,-3c-0.99,-0.33 -1.98,-0.66 -3,-1c0.33,-0.99 0.66,-1.98 1,-3c-0.66,-0.99 -1.32,-1.98 -2,-3c0,-0.99 0,-1.98 0,-3c1.65,0 3.3,0 5,0c0.33,1.32 0.66,2.64 1,4c0.66,0 1.32,0 2,0c-0.97999,-2.18614 -1.69044,-3.74616 -3.5625,-5.28125c-2.05683,-2.45926 -1.73621,-4.25532 -1.625,-7.40625c0.04061,-1.4908 0.04061,-1.4908 0.08203,-3.01172c0.05221,-1.13889 0.05221,-1.13889 0.10547,-2.30078c-1.65,-0.33 -3.3,-0.66 -5,-1c-0.84454,-3.37817 -1.10845,-5.67465 0,-9c0.66,0 1.32,0 2,0c0.66,-1.32 1.32,-2.64 2,-4z"/>
  <path id="svg_15" fill="#ED6E50" d="m82,62c2.97,0.495 2.97,0.495 6,1c0.33,0.99 0.66,1.98 1,3c0.66,0 1.32,0 2,0c0.75,1.75 0.75,1.75 1,4c-2.09704,2.93585 -3.60493,3.87906 -7.0625,4.9375c-2.9375,0.0625 -2.9375,0.0625 -4.875,-0.9375c-1.68489,-3.17155 -0.8525,-5.59691 -0.0625,-9c0.66,-0.99 1.32,-1.98 2,-3z"/>
  <path id="svg_18" fill="#ED6E50" d="m76,312c0.66,0.33 1.32,0.66 2,1c0.125,2.875 0.125,2.875 0,6c-0.66,0.66 -1.32,1.32 -2,2c-1.37563,-1.28965 -2.70766,-2.62689 -4,-4c0,-0.66 0,-1.32 0,-2c2,-1.625 2,-1.625 4,-3z"/>
  <path id="svg_20" fill="#ED6E50" d="m37,305c-2.8343,3.2542 -4.68608,4.52068 -9,5c0.1875,-1.875 0.1875,-1.875 1,-4c3.29406,-1.8204 4.36227,-2.21258 8,-1z"/>
  <path id="svg_21" fill="#EAE9E9" d="m159,359c2.5,1.0625 2.5,1.0625 5,3c0.3125,3.6875 0.3125,3.6875 0,7c-2.91227,-3.28805 -4.49701,-5.59886 -5,-10z"/>
  <path id="svg_22" fill="#ED6E50" d="m62,72c-0.33,1.32 -0.66,2.64 -1,4c-2.31,0 -4.62,0 -7,0c0.33,-0.99 0.66,-1.98 1,-3c4.75,-1 4.75,-1 7,-1z"/>
  <path id="svg_23" fill="#FCFCFC" d="m215,546c0,1.98 0,3.96 0,6c-2.475,-0.99 -2.475,-0.99 -5,-2c0.33,-0.99 0.66,-1.98 1,-3c2,-1 2,-1 4,-1z"/>
  <path id="svg_28" fill="#ED6E50" d="m44,298c1.32,0.33 2.64,0.66 4,1c0,0.66 0,1.32 0,2c-1.32,-0.33 -2.64,-0.66 -4,-1c0,-0.66 0,-1.32 0,-2z"/>
  <path id="svg_31" fill="#B4AAAA" d="m126,674c1,4 1,4 1,4l-1,-4z"/>
  <path id="svg_32" fill="#FFFFFF" d="m646,448c0.33,0.99 0.66,1.98 1,3c-0.66,-0.33 -1.32,-0.66 -2,-1c0.33,-0.66 0.66,-1.32 1,-2z"/>
  <path id="svg_35" fill="#B4AAAA" d="m125,544c3,1 3,1 3,1l-3,-1z"/>
 </g>
</svg>