<svg xmlns="http://www.w3.org/2000/svg" xmlns:xlink="http://www.w3.org/1999/xlink" version="1.1" width="1000" height="1000" viewBox="0 0 1000 1000" xml:space="preserve">
<desc>Created with Fabric.js 3.5.0</desc>
<defs>
</defs>
<rect x="0" y="0" width="100%" height="100%" fill="#ffffff"/>
<g transform="matrix(1.1445 0 0 1.1445 499.987 499.9937)" id="546231">
<g style="" vector-effect="non-scaling-stroke">
		<g transform="matrix(1 0 0 1 -358.475 129.225)" id="Calque_1">
<path style="stroke: none; stroke-width: 1; stroke-dasharray: none; stroke-linecap: butt; stroke-dashoffset: 0; stroke-linejoin: miter; stroke-miterlimit: 4; is-custom-font: none; font-file-url: none; fill: rgb(37,55,133); fill-rule: nonzero; opacity: 1;" transform=" translate(-38.67, -322.37)" d="M 32.46 382.77 c -3.97 -2.35 -6.96 -5.37 -8.97 -9.06 c -0.78 3.58 -1.34 5.99 -1.68 7.21 c -0.45 1.68 -1.45 2.83 -3.02 3.44 c -1.57 0.61 -3.8 0.92 -6.71 0.92 h -2.01 C 3.35 385.28 0 383.5 0 379.92 V 263.83 c 0 -3.58 3.35 -5.37 10.07 -5.37 h 4.7 c 6.71 0 10.06 1.79 10.06 5.37 v 37.24 c 4.81 -3.47 10.51 -5.2 17.11 -5.2 c 11.18 0 19.88 4.06 26.09 12.16 c 6.21 8.11 9.31 19.1 9.31 32.96 c 0 9.51 -1.34 17.67 -4.03 24.49 c -2.68 6.82 -6.4 11.99 -11.16 15.52 c -4.76 3.52 -10.15 5.28 -16.19 5.28 C 40.93 386.29 36.43 385.12 32.46 382.77 z M 52.17 341 c 0 -17 -5.2 -25.5 -15.6 -25.5 c -4.03 0 -7.94 1.06 -11.74 3.19 v 37.41 c 3.8 6.6 8.39 9.9 13.76 9.9 C 47.64 365.99 52.17 357.66 52.17 341 z" stroke-linecap="round"/>
</g>
		<g transform="matrix(1 0 0 1 -290.455 130.405)" id="Calque_1">
<path style="stroke: none; stroke-width: 1; stroke-dasharray: none; stroke-linecap: butt; stroke-dashoffset: 0; stroke-linejoin: miter; stroke-miterlimit: 4; is-custom-font: none; font-file-url: none; fill: rgb(37,55,133); fill-rule: nonzero; opacity: 1;" transform=" translate(-106.69, -323.55)" d="M 94.27 279.93 v -11.91 c 0 -4.14 4.14 -6.21 12.41 -6.21 c 8.27 0 12.41 2.07 12.41 6.21 v 11.91 c 0 4.25 -4.14 6.37 -12.41 6.37 C 98.41 286.31 94.27 284.19 94.27 279.93 z M 94.27 379.92 v -77.67 c 0 -3.58 3.35 -5.37 10.07 -5.37 h 4.7 c 6.71 0 10.07 1.79 10.07 5.37 v 77.67 c 0 3.58 -3.35 5.37 -10.07 5.37 h -4.7 C 97.63 385.28 94.27 383.5 94.27 379.92 z" stroke-linecap="round"/>
</g>
		<g transform="matrix(1 0 0 1 -221.595 129.235)" id="Calque_1">
<path style="stroke: none; stroke-width: 1; stroke-dasharray: none; stroke-linecap: butt; stroke-dashoffset: 0; stroke-linejoin: miter; stroke-miterlimit: 4; is-custom-font: none; font-file-url: none; fill: rgb(37,55,133); fill-rule: nonzero; opacity: 1;" transform=" translate(-175.55, -322.38)" d="M 151.06 381.01 c -4.76 -3.52 -8.47 -8.69 -11.16 -15.52 c -2.68 -6.82 -4.03 -14.99 -4.03 -24.49 c 0 -13.87 3.1 -24.85 9.31 -32.96 c 6.21 -8.11 14.9 -12.16 26.09 -12.16 c 6.6 0 12.3 1.74 17.11 5.2 v -37.24 c 0 -3.58 3.35 -5.37 10.07 -5.37 h 4.7 c 6.71 0 10.07 1.79 10.07 5.37 v 91.59 c 0 5.15 0.14 9.06 0.42 11.74 c 0.28 2.68 0.64 5.65 1.09 8.89 c 0.34 1.45 0.5 2.68 0.5 3.69 c 0 1.79 -2.26 3.13 -6.79 4.03 c -4.53 0.9 -8.53 1.34 -11.99 1.34 c -2.01 0 -3.41 -0.81 -4.19 -2.43 c -0.78 -1.62 -1.37 -3.35 -1.76 -5.2 c -0.39 -1.85 -0.65 -3.1 -0.76 -3.78 c -2.01 3.69 -5.01 6.71 -8.97 9.06 c -3.97 2.35 -8.47 3.52 -13.5 3.52 C 161.21 386.29 155.81 384.53 151.06 381.01 z M 188.38 356.09 v -37.41 c -3.8 -2.12 -7.72 -3.19 -11.74 -3.19 c -10.4 0 -15.6 8.5 -15.6 25.5 c 0 16.67 4.53 24.99 13.59 24.99 C 180 365.99 184.58 362.69 188.38 356.09 z" stroke-linecap="round"/>
</g>
		<g transform="matrix(1 0 0 1 -125.805 147.935)" id="Calque_1">
<path style="stroke: none; stroke-width: 1; stroke-dasharray: none; stroke-linecap: butt; stroke-dashoffset: 0; stroke-linejoin: miter; stroke-miterlimit: 4; is-custom-font: none; font-file-url: none; fill: rgb(37,55,133); fill-rule: nonzero; opacity: 1;" transform=" translate(-271.34, -341.08)" d="M 241.06 374.63 c -6.94 -7.77 -10.4 -18.98 -10.4 -33.63 c 0 -14.65 3.47 -25.83 10.4 -33.55 c 6.93 -7.72 17.05 -11.58 30.36 -11.58 c 13.31 0 23.4 3.86 30.28 11.58 c 6.88 7.72 10.32 18.9 10.32 33.55 c 0 14.65 -3.44 25.86 -10.32 33.63 c -6.88 7.77 -16.97 11.66 -30.28 11.66 C 258.11 386.29 247.99 382.41 241.06 374.63 z M 283.08 360.21 c 2.52 -4.3 3.77 -10.71 3.77 -19.21 c 0 -8.5 -1.26 -14.87 -3.77 -19.12 c -2.52 -4.25 -6.4 -6.37 -11.66 -6.37 c -5.26 0 -9.17 2.12 -11.74 6.37 c -2.57 4.25 -3.86 10.63 -3.86 19.12 c 0 17.11 5.2 25.67 15.6 25.67 C 276.67 366.66 280.56 364.51 283.08 360.21 z" stroke-linecap="round"/>
</g>
		<g transform="matrix(1 0 0 1 -32.12 147.435)" id="Calque_1">
<path style="stroke: none; stroke-width: 1; stroke-dasharray: none; stroke-linecap: butt; stroke-dashoffset: 0; stroke-linejoin: miter; stroke-miterlimit: 4; is-custom-font: none; font-file-url: none; fill: rgb(37,55,133); fill-rule: nonzero; opacity: 1;" transform=" translate(-365.025, -340.58)" d="M 329.46 379.92 v -53.18 c 0 -4.92 -0.14 -8.69 -0.42 -11.32 c -0.28 -2.63 -0.64 -5.56 -1.09 -8.81 c -0.34 -1.56 -0.5 -2.74 -0.5 -3.52 c 0 -1.79 2.26 -3.13 6.79 -4.03 c 4.53 -0.89 8.53 -1.34 11.99 -1.34 c 2.01 0 3.41 0.76 4.19 2.26 c 0.78 1.51 1.37 3.16 1.76 4.95 c 0.39 1.79 0.64 3.02 0.76 3.69 c 2.68 -3.58 6.26 -6.6 10.74 -9.06 c 4.47 -2.46 9.23 -3.69 14.26 -3.69 c 8.39 0 14.59 2.21 18.62 6.63 c 4.03 4.42 6.04 11.27 6.04 20.55 v 56.87 c 0 3.58 -3.35 5.37 -10.07 5.37 h -4.7 c -6.71 0 -10.07 -1.79 -10.07 -5.37 v -53.18 c 0 -3.47 -0.78 -6.06 -2.35 -7.8 c -1.57 -1.73 -4.14 -2.6 -7.72 -2.6 c -3.02 0 -5.68 0.98 -7.97 2.93 c -2.29 1.96 -4.11 4.22 -5.45 6.79 v 53.85 c 0 3.58 -3.35 5.37 -10.07 5.37 h -4.7 C 332.81 385.28 329.46 383.5 329.46 379.92 z" stroke-linecap="round"/>
</g>
		<g transform="matrix(1 0 0 1 55.86 147.925)" id="Calque_1">
<path style="stroke: none; stroke-width: 1; stroke-dasharray: none; stroke-linecap: butt; stroke-dashoffset: 0; stroke-linejoin: miter; stroke-miterlimit: 4; is-custom-font: none; font-file-url: none; fill: rgb(37,55,133); fill-rule: nonzero; opacity: 1;" transform=" translate(-453.005, -341.07)" d="M 441.01 381.76 l -26.67 -78.17 c -0.45 -1.57 -0.67 -2.57 -0.67 -3.02 c 0 -2.46 3.41 -3.69 10.23 -3.69 h 5.54 c 5.48 0 8.61 1.17 9.39 3.52 l 9.9 31.03 c 0.56 1.79 1.62 6.15 3.19 13.08 l 1.51 7.21 h 0.67 c 2.01 -9.84 3.58 -16.61 4.7 -20.3 l 9.9 -31.03 c 0.78 -2.35 3.91 -3.52 9.39 -3.52 h 4.19 c 6.71 0 10.06 1.23 10.06 3.69 c 0 0.78 -0.17 1.79 -0.5 3.02 l -26.67 78.17 c -0.78 2.35 -3.91 3.52 -9.39 3.52 h -5.37 C 445.04 385.28 441.91 384.11 441.01 381.76 z" stroke-linecap="round"/>
</g>
		<g transform="matrix(1 0 0 1 119.025 130.405)" id="Calque_1">
<path style="stroke: none; stroke-width: 1; stroke-dasharray: none; stroke-linecap: butt; stroke-dashoffset: 0; stroke-linejoin: miter; stroke-miterlimit: 4; is-custom-font: none; font-file-url: none; fill: rgb(37,55,133); fill-rule: nonzero; opacity: 1;" transform=" translate(-516.17, -323.55)" d="M 503.75 279.93 v -11.91 c 0 -4.14 4.14 -6.21 12.41 -6.21 c 8.27 0 12.41 2.07 12.41 6.21 v 11.91 c 0 4.25 -4.14 6.37 -12.41 6.37 C 507.88 286.31 503.75 284.19 503.75 279.93 z M 503.75 379.92 v -77.67 c 0 -3.58 3.35 -5.37 10.07 -5.37 h 4.7 c 6.71 0 10.07 1.79 10.07 5.37 v 77.67 c 0 3.58 -3.36 5.37 -10.07 5.37 h -4.7 C 507.1 385.28 503.75 383.5 503.75 379.92 z" stroke-linecap="round"/>
</g>
		<g transform="matrix(1 0 0 1 172.01 129.235)" id="Calque_1">
<path style="stroke: none; stroke-width: 1; stroke-dasharray: none; stroke-linecap: butt; stroke-dashoffset: 0; stroke-linejoin: miter; stroke-miterlimit: 4; is-custom-font: none; font-file-url: none; fill: rgb(37,55,133); fill-rule: nonzero; opacity: 1;" transform=" translate(-569.155, -322.38)" d="M 548.87 359.11 v -95.28 c 0 -3.58 3.35 -5.37 10.06 -5.37 h 4.7 c 6.71 0 10.06 1.79 10.06 5.37 v 95.62 c 0 2.57 0.47 4.42 1.43 5.54 c 0.95 1.12 2.49 1.68 4.61 1.68 c 0.56 0 1.31 -0.11 2.26 -0.34 c 0.95 -0.22 1.7 -0.34 2.26 -0.34 c 1.01 0 1.9 0.84 2.68 2.52 c 0.78 1.68 1.4 3.52 1.84 5.54 c 0.45 2.01 0.67 3.35 0.67 4.03 c 0 5.48 -5.37 8.22 -16.1 8.22 C 557.04 386.29 548.87 377.23 548.87 359.11 z" stroke-linecap="round"/>
</g>
		<g transform="matrix(1 0 0 1 221.84 129.235)" id="Calque_1">
<path style="stroke: none; stroke-width: 1; stroke-dasharray: none; stroke-linecap: butt; stroke-dashoffset: 0; stroke-linejoin: miter; stroke-miterlimit: 4; is-custom-font: none; font-file-url: none; fill: rgb(37,55,133); fill-rule: nonzero; opacity: 1;" transform=" translate(-618.985, -322.38)" d="M 598.7 359.11 v -95.28 c 0 -3.58 3.35 -5.37 10.06 -5.37 h 4.7 c 6.71 0 10.06 1.79 10.06 5.37 v 95.62 c 0 2.57 0.47 4.42 1.43 5.54 c 0.95 1.12 2.49 1.68 4.61 1.68 c 0.56 0 1.31 -0.11 2.26 -0.34 c 0.95 -0.22 1.7 -0.34 2.26 -0.34 c 1.01 0 1.9 0.84 2.68 2.52 c 0.78 1.68 1.4 3.52 1.84 5.54 c 0.45 2.01 0.67 3.35 0.67 4.03 c 0 5.48 -5.37 8.22 -16.1 8.22 C 606.86 386.29 598.7 377.23 598.7 359.11 z" stroke-linecap="round"/>
</g>
		<g transform="matrix(1 0 0 1 286.355 147.94)" id="Calque_1">
<path style="stroke: none; stroke-width: 1; stroke-dasharray: none; stroke-linecap: butt; stroke-dashoffset: 0; stroke-linejoin: miter; stroke-miterlimit: 4; is-custom-font: none; font-file-url: none; fill: rgb(37,55,133); fill-rule: nonzero; opacity: 1;" transform=" translate(-683.5, -341.085)" d="M 655.82 374.46 c -7.21 -7.88 -10.82 -18.81 -10.82 -32.8 c 0 -15.77 3.61 -27.34 10.82 -34.72 c 7.21 -7.38 17.19 -11.07 29.94 -11.07 c 12.41 0 21.56 4.03 27.43 12.08 c 5.87 8.05 8.81 18.45 8.81 31.2 c 0 1.34 -1.15 3.33 -3.44 5.96 c -2.29 2.63 -4 3.94 -5.12 3.94 h -42.78 c 0.56 6.37 2.46 10.9 5.7 13.59 c 3.24 2.68 7.77 4.03 13.59 4.03 c 3.13 0 5.98 -0.36 8.56 -1.09 c 2.57 -0.73 5.25 -1.65 8.05 -2.77 c 1.79 -0.89 3.02 -1.34 3.69 -1.34 c 1.12 0 2.37 0.81 3.77 2.43 c 1.4 1.62 2.57 3.47 3.52 5.54 c 0.95 2.07 1.43 3.66 1.43 4.78 c 0 2.57 -1.74 4.78 -5.2 6.63 c -3.47 1.85 -7.61 3.22 -12.41 4.11 c -4.81 0.89 -9 1.34 -12.58 1.34 C 674.02 386.29 663.03 382.35 655.82 374.46 z M 697.84 332.44 c 0 -5.14 -1.01 -9.25 -3.02 -12.33 c -2.01 -3.07 -5.03 -4.61 -9.06 -4.61 c -8.28 0 -13.31 5.65 -15.1 16.94 H 697.84 z" stroke-linecap="round"/>
</g>
		<g transform="matrix(1 0 0 1 366.79 147.935)" id="Calque_1">
<path style="stroke: none; stroke-width: 1; stroke-dasharray: none; stroke-linecap: butt; stroke-dashoffset: 0; stroke-linejoin: miter; stroke-miterlimit: 4; is-custom-font: none; font-file-url: none; fill: rgb(37,55,133); fill-rule: nonzero; opacity: 1;" transform=" translate(-763.935, -341.08)" d="M 742.29 383.1 c -5.82 -2.12 -8.72 -4.86 -8.72 -8.22 c 0 -2.24 1.06 -4.95 3.19 -8.14 c 2.12 -3.19 4.03 -4.78 5.7 -4.78 c 0.89 0 2.12 0.45 3.69 1.34 c 2.35 1.01 4.5 1.82 6.46 2.43 c 1.95 0.62 4.22 0.92 6.79 0.92 c 3.13 0 5.54 -0.61 7.21 -1.85 c 1.68 -1.23 2.52 -2.96 2.52 -5.2 c 0 -2.01 -0.62 -3.63 -1.84 -4.86 c -1.23 -1.23 -2.57 -2.18 -4.03 -2.85 c -1.45 -0.67 -4.31 -1.79 -8.56 -3.35 c -5.7 -2.24 -10.32 -5.14 -13.84 -8.72 c -3.52 -3.58 -5.28 -9.06 -5.28 -16.44 c 0 -8.61 2.74 -15.35 8.22 -20.21 c 5.48 -4.86 12.92 -7.3 22.31 -7.3 c 5.93 0 11.6 0.84 17.03 2.52 c 5.42 1.68 8.14 4.08 8.14 7.21 c 0 2.13 -0.84 4.87 -2.52 8.22 c -1.68 3.35 -3.25 5.03 -4.7 5.03 c -0.45 0 -2.07 -0.59 -4.86 -1.76 c -2.8 -1.17 -5.98 -1.76 -9.56 -1.76 c -5.93 0 -8.89 1.96 -8.89 5.87 c 0 2.46 0.98 4.36 2.94 5.7 c 1.96 1.34 5 2.85 9.14 4.53 c 0.67 0.34 1.73 0.78 3.19 1.34 c 1.45 0.56 2.68 1.12 3.69 1.68 c 4.47 2.12 8.02 5.01 10.65 8.64 c 2.63 3.64 3.94 8.47 3.94 14.51 c 0 8.72 -2.91 15.69 -8.72 20.89 c -5.82 5.2 -13.87 7.8 -24.16 7.8 C 754.48 386.29 748.1 385.23 742.29 383.1 z" stroke-linecap="round"/>
</g>
		<g transform="matrix(1 0 0 1 -369.4 -2.335)" id="Calque_1">
<path style="stroke: none; stroke-width: 1; stroke-dasharray: none; stroke-linecap: butt; stroke-dashoffset: 0; stroke-linejoin: miter; stroke-miterlimit: 4; is-custom-font: none; font-file-url: none; fill: rgb(37,55,133); fill-rule: nonzero; opacity: 1;" transform=" translate(-27.745, -190.81)" d="M 53.47 227.59 H 40.49 l -18.54 -24.89 h -8.43 v 24.89 H 2.02 v -73.56 h 9.72 h 12.1 c 9.71 0 15.36 3.97 18.34 7.33 c 3.87 4.27 5.95 10.21 5.95 17.06 c 0 6.74 -2.08 12.69 -5.95 16.95 c -1.79 1.98 -4.56 4.26 -8.53 5.65 L 53.47 227.59 z M 23.83 192.4 c 4.76 0 8.33 -1.39 10.61 -3.97 c 2.78 -2.97 3.27 -7.14 3.27 -10.01 c 0 -2.97 -0.49 -7.14 -3.27 -10.11 c -2.28 -2.58 -5.85 -3.86 -10.61 -3.86 H 13.52 v 27.95 H 23.83 z" stroke-linecap="round"/>
</g>
		<g transform="matrix(1 0 0 1 -289.665 -12.1)" id="Calque_1">
<path style="stroke: none; stroke-width: 1; stroke-dasharray: none; stroke-linecap: butt; stroke-dashoffset: 0; stroke-linejoin: miter; stroke-miterlimit: 4; is-custom-font: none; font-file-url: none; fill: rgb(37,55,133); fill-rule: nonzero; opacity: 1;" transform=" translate(-107.48, -181.045)" d="M 96.92 183.97 h 26.87 v 10.41 H 96.92 v 22.8 h 32.62 v 10.41 H 96.82 h -11.4 v -73.56 h 11.4 h 32.72 v 10.31 H 96.92 V 183.97 z M 106.84 134.5 h 10.41 l -10.41 11.6 H 99.9 L 106.84 134.5 z" stroke-linecap="round"/>
</g>
		<g transform="matrix(1 0 0 1 -215.8352 -2.8021)" id="Calque_1">
<path style="stroke: none; stroke-width: 1; stroke-dasharray: none; stroke-linecap: butt; stroke-dashoffset: 0; stroke-linejoin: miter; stroke-miterlimit: 4; is-custom-font: none; font-file-url: none; fill: rgb(37,55,133); fill-rule: nonzero; opacity: 1;" transform=" translate(-181.3098, -190.3428)" d="M 201.93 212.82 c -2.08 7.14 -8.53 12.79 -16.56 14.38 c -1.49 0.3 -2.97 0.4 -4.46 0.4 c -2.98 0 -5.95 -0.5 -8.72 -1.59 c -4.66 -1.88 -8.72 -4.96 -12.19 -9.42 l 9.12 -7.14 c 2.08 2.77 4.56 4.76 7.23 5.75 c 2.18 0.89 4.56 1.09 6.74 0.59 c 3.77 -0.69 6.84 -3.17 7.73 -6.15 c 0.99 -3.37 -1.29 -6.34 -3.37 -8.33 c -3.27 -3.07 -8.62 -8.32 -9.02 -8.72 l -9.02 -8.53 c -2.77 -2.68 -4.66 -5.65 -5.65 -8.82 c -0.99 -3.07 -1.09 -6.34 -0.2 -9.32 c 0.89 -3.17 2.78 -5.95 5.45 -8.23 c 2.48 -2.08 5.55 -3.57 8.82 -4.17 c 3.57 -0.79 7.34 -0.49 10.91 0.8 c 3.77 1.49 7.14 3.96 10.01 7.43 l -9.02 7.24 c -3.77 -4.56 -7.64 -4.56 -9.72 -4.17 c -2.58 0.5 -4.76 2.18 -5.36 4.27 c -0.4 1.39 -0.3 3.66 2.78 6.64 l 12.29 11.8 c 1.78 1.79 3.96 3.87 5.55 5.36 c 3.17 2.87 5.36 6.15 6.44 9.62 C 202.83 205.88 202.93 209.45 201.93 212.82 z" stroke-linecap="round"/>
</g>
		<g transform="matrix(1 0 0 1 -34.205 -2.335)" id="Calque_1">
<path style="stroke: none; stroke-width: 1; stroke-dasharray: none; stroke-linecap: butt; stroke-dashoffset: 0; stroke-linejoin: miter; stroke-miterlimit: 4; is-custom-font: none; font-file-url: none; fill: rgb(37,55,133); fill-rule: nonzero; opacity: 1;" transform=" translate(-362.94, -190.81)" d="M 388.67 227.59 h -12.99 l -18.54 -24.89 h -8.43 v 24.89 h -11.5 v -73.56 h 9.72 h 12.1 c 9.72 0 15.36 3.97 18.34 7.33 c 3.87 4.27 5.95 10.21 5.95 17.06 c 0 6.74 -2.08 12.69 -5.95 16.95 c -1.79 1.98 -4.56 4.26 -8.53 5.65 L 388.67 227.59 z M 359.03 192.4 c 4.76 0 8.33 -1.39 10.61 -3.97 c 2.78 -2.97 3.27 -7.14 3.27 -10.01 c 0 -2.97 -0.49 -7.14 -3.27 -10.11 c -2.28 -2.58 -5.85 -3.86 -10.61 -3.86 h -10.31 v 27.95 H 359.03 z" stroke-linecap="round"/>
</g>
		<g transform="matrix(1 0 0 1 43.455 -2.335)" id="Calque_1">
<path style="stroke: none; stroke-width: 1; stroke-dasharray: none; stroke-linecap: butt; stroke-dashoffset: 0; stroke-linejoin: miter; stroke-miterlimit: 4; is-custom-font: none; font-file-url: none; fill: rgb(37,55,133); fill-rule: nonzero; opacity: 1;" transform=" translate(-440.6, -190.81)" d="M 427.26 154.03 h 12.1 c 9.71 0 15.36 3.97 18.34 7.24 c 3.97 4.36 5.95 10.21 5.95 17.05 c 0 6.84 -1.98 12.79 -5.95 17.05 c -2.98 3.37 -8.63 7.33 -18.34 7.33 h -10.31 v 24.89 h -11.5 v -73.56 H 427.26 z M 453.33 178.32 c 0 -2.87 -0.59 -7.04 -3.27 -10.01 c -2.38 -2.58 -5.95 -3.96 -10.71 -3.96 h -10.31 v 27.95 h 10.31 c 4.76 0 8.33 -1.29 10.71 -3.87 C 452.74 185.46 453.33 181.29 453.33 178.32 z" stroke-linecap="round"/>
</g>
		<g transform="matrix(1 0 0 1 117.135 -2.335)" id="Calque_1">
<path style="stroke: none; stroke-width: 1; stroke-dasharray: none; stroke-linecap: butt; stroke-dashoffset: 0; stroke-linejoin: miter; stroke-miterlimit: 4; is-custom-font: none; font-file-url: none; fill: rgb(37,55,133); fill-rule: nonzero; opacity: 1;" transform=" translate(-514.28, -190.81)" d="M 540.31 164.34 h -20.23 v 63.25 h -11.6 v -63.25 h -20.23 v -10.31 h 52.05 V 164.34 z" stroke-linecap="round"/>
</g>
		<g transform="matrix(1 0 0 1 179.365 -2.335)" id="Calque_1">
<path style="stroke: none; stroke-width: 1; stroke-dasharray: none; stroke-linecap: butt; stroke-dashoffset: 0; stroke-linejoin: miter; stroke-miterlimit: 4; is-custom-font: none; font-file-url: none; fill: rgb(37,55,133); fill-rule: nonzero; opacity: 1;" transform=" translate(-576.51, -190.81)" d="M 570.76 227.59 v -73.56 h 11.5 v 73.56 H 570.76 z" stroke-linecap="round"/>
</g>
		<g transform="matrix(1 0 0 1 353.155 -2.375)" id="Calque_1">
<path style="stroke: none; stroke-width: 1; stroke-dasharray: none; stroke-linecap: butt; stroke-dashoffset: 0; stroke-linejoin: miter; stroke-miterlimit: 4; is-custom-font: none; font-file-url: none; fill: rgb(37,55,133); fill-rule: nonzero; opacity: 1;" transform=" translate(-750.3, -190.77)" d="M 732.9 180.31 v 47.29 h -11.5 v -77.03 l 46.2 50.66 v -47.19 h 11.6 v 76.93 L 732.9 180.31 z" stroke-linecap="round"/>
</g>
		<g transform="matrix(1 0 0 1 -129.56 13.745)" id="Calque_1">
<path style="stroke: none; stroke-width: 1; stroke-dasharray: none; stroke-linecap: butt; stroke-dashoffset: 0; stroke-linejoin: miter; stroke-miterlimit: 4; is-custom-font: none; font-file-url: none; fill: rgb(231,87,87); fill-rule: nonzero; opacity: 1;" transform=" translate(-267.585, -206.89)" d="M 242.75 227.59 c -0.28 -1.51 -0.44 -3.05 -0.44 -4.62 c 0 -6.74 2.68 -13.09 7.43 -17.85 c 4.76 -4.76 11.1 -7.43 17.85 -7.43 c 6.74 0 13.08 2.68 17.84 7.43 c 4.76 4.76 7.44 11.1 7.44 17.85 c 0 1.57 -0.16 3.11 -0.44 4.62 h 11.64 c 0.19 -1.52 0.3 -3.06 0.3 -4.62 c 0 -4.96 -0.99 -9.82 -2.87 -14.38 c -1.88 -4.36 -4.46 -8.23 -7.83 -11.7 c -3.47 -3.37 -7.34 -5.95 -11.7 -7.83 c -4.56 -1.88 -9.42 -2.87 -14.38 -2.87 c -4.96 0 -9.82 0.99 -14.28 2.87 c -4.46 1.88 -8.33 4.46 -11.7 7.83 c -3.37 3.47 -6.05 7.34 -7.93 11.7 c -1.88 4.56 -2.88 9.42 -2.88 14.38 c 0 1.55 0.11 3.09 0.3 4.62 H 242.75 z" stroke-linecap="round"/>
</g>
		<g transform="matrix(1 0 0 1 254.635 -20.15)" id="Calque_1">
<path style="stroke: none; stroke-width: 1; stroke-dasharray: none; stroke-linecap: butt; stroke-dashoffset: 0; stroke-linejoin: miter; stroke-miterlimit: 4; is-custom-font: none; font-file-url: none; fill: rgb(231,87,87); fill-rule: nonzero; opacity: 1;" transform=" translate(-651.78, -172.995)" d="M 675.69 150.56 c 0.88 2.57 1.36 5.29 1.36 8.09 c 0 6.74 -2.68 13.09 -7.44 17.85 c -4.76 4.76 -11.1 7.43 -17.85 7.43 c -6.74 0 -13.08 -2.68 -17.84 -7.43 c -4.76 -4.76 -7.44 -11.1 -7.44 -17.85 c 0 -2.8 0.49 -5.51 1.36 -8.09 H 615.9 c -0.59 2.64 -0.9 5.35 -0.9 8.09 c 0 4.96 0.99 9.82 2.87 14.28 c 1.88 4.46 4.56 8.33 7.93 11.7 c 3.37 3.37 7.23 6.05 11.7 7.93 c 4.47 1.88 9.32 2.87 14.28 2.87 c 4.96 0 9.82 -0.99 14.38 -2.87 c 4.37 -1.88 8.23 -4.56 11.7 -7.93 c 3.37 -3.37 5.95 -7.24 7.83 -11.7 c 1.88 -4.46 2.87 -9.32 2.87 -14.28 c 0 -2.74 -0.31 -5.44 -0.9 -8.09 H 675.69 z" stroke-linecap="round"/>
</g>
		<g transform="matrix(1 0 0 1 70.3471 -121.985)" id="Calque_1">
<path style="stroke: none; stroke-width: 1; stroke-dasharray: none; stroke-linecap: butt; stroke-dashoffset: 0; stroke-linejoin: miter; stroke-miterlimit: 4; is-custom-font: none; font-file-url: none; fill: rgb(37,55,133); fill-rule: nonzero; opacity: 1;" transform=" translate(-467.4921, -71.16)" d="M 680.87 142.32 c -1.97 0 -3.97 -0.48 -5.82 -1.48 L 466.98 27.84 L 259.96 140.82 c -5.93 3.23 -13.36 1.05 -16.59 -4.88 c -3.24 -5.93 -1.05 -13.36 4.88 -16.59 L 466.95 0 l 219.77 119.34 c 5.93 3.22 8.13 10.65 4.91 16.58 C 689.41 140 685.21 142.32 680.87 142.32 z" stroke-linecap="round"/>
</g>
</g>
</g>
</svg>