<?xml version="1.0" encoding="utf-8"?>
<!-- Generator: Adobe Illustrator 23.0.6, SVG Export Plug-In . SVG Version: 6.00 Build 0)  -->
<svg version="1.1" id="Calque_1" xmlns="http://www.w3.org/2000/svg" xmlns:xlink="http://www.w3.org/1999/xlink" x="0px" y="0px"
	 viewBox="0 0 794.29 386.29" style="enable-background:new 0 0 794.29 386.29;" xml:space="preserve">
<style type="text/css">
	.st0{fill:#253785;}
	.st1{fill:#E75757;}
</style>
<g>
	<g>
		<path class="st0" d="M32.46,382.77c-3.97-2.35-6.96-5.37-8.97-9.06c-0.78,3.58-1.34,5.99-1.68,7.21
			c-0.45,1.68-1.45,2.83-3.02,3.44c-1.57,0.61-3.8,0.92-6.71,0.92h-2.01C3.35,385.28,0,383.5,0,379.92V263.83
			c0-3.58,3.35-5.37,10.07-5.37h4.7c6.71,0,10.06,1.79,10.06,5.37v37.24c4.81-3.47,10.51-5.2,17.11-5.2
			c11.18,0,19.88,4.06,26.09,12.16c6.21,8.11,9.31,19.1,9.31,32.96c0,9.51-1.34,17.67-4.03,24.49c-2.68,6.82-6.4,11.99-11.16,15.52
			c-4.76,3.52-10.15,5.28-16.19,5.28C40.93,386.29,36.43,385.12,32.46,382.77z M52.17,341c0-17-5.2-25.5-15.6-25.5
			c-4.03,0-7.94,1.06-11.74,3.19v37.41c3.8,6.6,8.39,9.9,13.76,9.9C47.64,365.99,52.17,357.66,52.17,341z"/>
		<path class="st0" d="M94.27,279.93v-11.91c0-4.14,4.14-6.21,12.41-6.21c8.27,0,12.41,2.07,12.41,6.21v11.91
			c0,4.25-4.14,6.37-12.41,6.37C98.41,286.31,94.27,284.19,94.27,279.93z M94.27,379.92v-77.67c0-3.58,3.35-5.37,10.07-5.37h4.7
			c6.71,0,10.07,1.79,10.07,5.37v77.67c0,3.58-3.35,5.37-10.07,5.37h-4.7C97.63,385.28,94.27,383.5,94.27,379.92z"/>
		<path class="st0" d="M151.06,381.01c-4.76-3.52-8.47-8.69-11.16-15.52c-2.68-6.82-4.03-14.99-4.03-24.49
			c0-13.87,3.1-24.85,9.31-32.96c6.21-8.11,14.9-12.16,26.09-12.16c6.6,0,12.3,1.74,17.11,5.2v-37.24c0-3.58,3.35-5.37,10.07-5.37
			h4.7c6.71,0,10.07,1.79,10.07,5.37v91.59c0,5.15,0.14,9.06,0.42,11.74c0.28,2.68,0.64,5.65,1.09,8.89c0.34,1.45,0.5,2.68,0.5,3.69
			c0,1.79-2.26,3.13-6.79,4.03c-4.53,0.9-8.53,1.34-11.99,1.34c-2.01,0-3.41-0.81-4.19-2.43c-0.78-1.62-1.37-3.35-1.76-5.2
			c-0.39-1.85-0.65-3.1-0.76-3.78c-2.01,3.69-5.01,6.71-8.97,9.06c-3.97,2.35-8.47,3.52-13.5,3.52
			C161.21,386.29,155.81,384.53,151.06,381.01z M188.38,356.09v-37.41c-3.8-2.12-7.72-3.19-11.74-3.19c-10.4,0-15.6,8.5-15.6,25.5
			c0,16.67,4.53,24.99,13.59,24.99C180,365.99,184.58,362.69,188.38,356.09z"/>
		<path class="st0" d="M241.06,374.63c-6.94-7.77-10.4-18.98-10.4-33.63c0-14.65,3.47-25.83,10.4-33.55
			c6.93-7.72,17.05-11.58,30.36-11.58c13.31,0,23.4,3.86,30.28,11.58c6.88,7.72,10.32,18.9,10.32,33.55
			c0,14.65-3.44,25.86-10.32,33.63c-6.88,7.77-16.97,11.66-30.28,11.66C258.11,386.29,247.99,382.41,241.06,374.63z M283.08,360.21
			c2.52-4.3,3.77-10.71,3.77-19.21c0-8.5-1.26-14.87-3.77-19.12c-2.52-4.25-6.4-6.37-11.66-6.37c-5.26,0-9.17,2.12-11.74,6.37
			c-2.57,4.25-3.86,10.63-3.86,19.12c0,17.11,5.2,25.67,15.6,25.67C276.67,366.66,280.56,364.51,283.08,360.21z"/>
		<path class="st0" d="M329.46,379.92v-53.18c0-4.92-0.14-8.69-0.42-11.32c-0.28-2.63-0.64-5.56-1.09-8.81
			c-0.34-1.56-0.5-2.74-0.5-3.52c0-1.79,2.26-3.13,6.79-4.03c4.53-0.89,8.53-1.34,11.99-1.34c2.01,0,3.41,0.76,4.19,2.26
			c0.78,1.51,1.37,3.16,1.76,4.95c0.39,1.79,0.64,3.02,0.76,3.69c2.68-3.58,6.26-6.6,10.74-9.06c4.47-2.46,9.23-3.69,14.26-3.69
			c8.39,0,14.59,2.21,18.62,6.63c4.03,4.42,6.04,11.27,6.04,20.55v56.87c0,3.58-3.35,5.37-10.07,5.37h-4.7
			c-6.71,0-10.07-1.79-10.07-5.37v-53.18c0-3.47-0.78-6.06-2.35-7.8c-1.57-1.73-4.14-2.6-7.72-2.6c-3.02,0-5.68,0.98-7.97,2.93
			c-2.29,1.96-4.11,4.22-5.45,6.79v53.85c0,3.58-3.35,5.37-10.07,5.37h-4.7C332.81,385.28,329.46,383.5,329.46,379.92z"/>
		<path class="st0" d="M441.01,381.76l-26.67-78.17c-0.45-1.57-0.67-2.57-0.67-3.02c0-2.46,3.41-3.69,10.23-3.69h5.54
			c5.48,0,8.61,1.17,9.39,3.52l9.9,31.03c0.56,1.79,1.62,6.15,3.19,13.08l1.51,7.21h0.67c2.01-9.84,3.58-16.61,4.7-20.3l9.9-31.03
			c0.78-2.35,3.91-3.52,9.39-3.52h4.19c6.71,0,10.06,1.23,10.06,3.69c0,0.78-0.17,1.79-0.5,3.02l-26.67,78.17
			c-0.78,2.35-3.91,3.52-9.39,3.52h-5.37C445.04,385.28,441.91,384.11,441.01,381.76z"/>
		<path class="st0" d="M503.75,279.93v-11.91c0-4.14,4.14-6.21,12.41-6.21c8.27,0,12.41,2.07,12.41,6.21v11.91
			c0,4.25-4.14,6.37-12.41,6.37C507.88,286.31,503.75,284.19,503.75,279.93z M503.75,379.92v-77.67c0-3.58,3.35-5.37,10.07-5.37h4.7
			c6.71,0,10.07,1.79,10.07,5.37v77.67c0,3.58-3.36,5.37-10.07,5.37h-4.7C507.1,385.28,503.75,383.5,503.75,379.92z"/>
		<path class="st0" d="M548.87,359.11v-95.28c0-3.58,3.35-5.37,10.06-5.37h4.7c6.71,0,10.06,1.79,10.06,5.37v95.62
			c0,2.57,0.47,4.42,1.43,5.54c0.95,1.12,2.49,1.68,4.61,1.68c0.56,0,1.31-0.11,2.26-0.34c0.95-0.22,1.7-0.34,2.26-0.34
			c1.01,0,1.9,0.84,2.68,2.52c0.78,1.68,1.4,3.52,1.84,5.54c0.45,2.01,0.67,3.35,0.67,4.03c0,5.48-5.37,8.22-16.1,8.22
			C557.04,386.29,548.87,377.23,548.87,359.11z"/>
		<path class="st0" d="M598.7,359.11v-95.28c0-3.58,3.35-5.37,10.06-5.37h4.7c6.71,0,10.06,1.79,10.06,5.37v95.62
			c0,2.57,0.47,4.42,1.43,5.54c0.95,1.12,2.49,1.68,4.61,1.68c0.56,0,1.31-0.11,2.26-0.34c0.95-0.22,1.7-0.34,2.26-0.34
			c1.01,0,1.9,0.84,2.68,2.52c0.78,1.68,1.4,3.52,1.84,5.54c0.45,2.01,0.67,3.35,0.67,4.03c0,5.48-5.37,8.22-16.1,8.22
			C606.86,386.29,598.7,377.23,598.7,359.11z"/>
		<path class="st0" d="M655.82,374.46c-7.21-7.88-10.82-18.81-10.82-32.8c0-15.77,3.61-27.34,10.82-34.72
			c7.21-7.38,17.19-11.07,29.94-11.07c12.41,0,21.56,4.03,27.43,12.08c5.87,8.05,8.81,18.45,8.81,31.2c0,1.34-1.15,3.33-3.44,5.96
			c-2.29,2.63-4,3.94-5.12,3.94h-42.78c0.56,6.37,2.46,10.9,5.7,13.59c3.24,2.68,7.77,4.03,13.59,4.03c3.13,0,5.98-0.36,8.56-1.09
			c2.57-0.73,5.25-1.65,8.05-2.77c1.79-0.89,3.02-1.34,3.69-1.34c1.12,0,2.37,0.81,3.77,2.43c1.4,1.62,2.57,3.47,3.52,5.54
			c0.95,2.07,1.43,3.66,1.43,4.78c0,2.57-1.74,4.78-5.2,6.63c-3.47,1.85-7.61,3.22-12.41,4.11c-4.81,0.89-9,1.34-12.58,1.34
			C674.02,386.29,663.03,382.35,655.82,374.46z M697.84,332.44c0-5.14-1.01-9.25-3.02-12.33c-2.01-3.07-5.03-4.61-9.06-4.61
			c-8.28,0-13.31,5.65-15.1,16.94H697.84z"/>
		<path class="st0" d="M742.29,383.1c-5.82-2.12-8.72-4.86-8.72-8.22c0-2.24,1.06-4.95,3.19-8.14c2.12-3.19,4.03-4.78,5.7-4.78
			c0.89,0,2.12,0.45,3.69,1.34c2.35,1.01,4.5,1.82,6.46,2.43c1.95,0.62,4.22,0.92,6.79,0.92c3.13,0,5.54-0.61,7.21-1.85
			c1.68-1.23,2.52-2.96,2.52-5.2c0-2.01-0.62-3.63-1.84-4.86c-1.23-1.23-2.57-2.18-4.03-2.85c-1.45-0.67-4.31-1.79-8.56-3.35
			c-5.7-2.24-10.32-5.14-13.84-8.72c-3.52-3.58-5.28-9.06-5.28-16.44c0-8.61,2.74-15.35,8.22-20.21c5.48-4.86,12.92-7.3,22.31-7.3
			c5.93,0,11.6,0.84,17.03,2.52c5.42,1.68,8.14,4.08,8.14,7.21c0,2.13-0.84,4.87-2.52,8.22c-1.68,3.35-3.25,5.03-4.7,5.03
			c-0.45,0-2.07-0.59-4.86-1.76c-2.8-1.17-5.98-1.76-9.56-1.76c-5.93,0-8.89,1.96-8.89,5.87c0,2.46,0.98,4.36,2.94,5.7
			c1.96,1.34,5,2.85,9.14,4.53c0.67,0.34,1.73,0.78,3.19,1.34c1.45,0.56,2.68,1.12,3.69,1.68c4.47,2.12,8.02,5.01,10.65,8.64
			c2.63,3.64,3.94,8.47,3.94,14.51c0,8.72-2.91,15.69-8.72,20.89c-5.82,5.2-13.87,7.8-24.16,7.8
			C754.48,386.29,748.1,385.23,742.29,383.1z"/>
	</g>
	<path class="st0" d="M53.47,227.59H40.49l-18.54-24.89h-8.43v24.89H2.02v-73.56h9.72h12.1c9.71,0,15.36,3.97,18.34,7.33
		c3.87,4.27,5.95,10.21,5.95,17.06c0,6.74-2.08,12.69-5.95,16.95c-1.79,1.98-4.56,4.26-8.53,5.65L53.47,227.59z M23.83,192.4
		c4.76,0,8.33-1.39,10.61-3.97c2.78-2.97,3.27-7.14,3.27-10.01c0-2.97-0.49-7.14-3.27-10.11c-2.28-2.58-5.85-3.86-10.61-3.86H13.52
		v27.95H23.83z"/>
	<path class="st0" d="M96.92,183.97h26.87v10.41H96.92v22.8h32.62v10.41H96.82h-11.4v-73.56h11.4h32.72v10.31H96.92V183.97z
		 M106.84,134.5h10.41l-10.41,11.6H99.9L106.84,134.5z"/>
	<path class="st0" d="M201.93,212.82c-2.08,7.14-8.53,12.79-16.56,14.38c-1.49,0.3-2.97,0.4-4.46,0.4c-2.98,0-5.95-0.5-8.72-1.59
		c-4.66-1.88-8.72-4.96-12.19-9.42l9.12-7.14c2.08,2.77,4.56,4.76,7.23,5.75c2.18,0.89,4.56,1.09,6.74,0.59
		c3.77-0.69,6.84-3.17,7.73-6.15c0.99-3.37-1.29-6.34-3.37-8.33c-3.27-3.07-8.62-8.32-9.02-8.72l-9.02-8.53
		c-2.77-2.68-4.66-5.65-5.65-8.82c-0.99-3.07-1.09-6.34-0.2-9.32c0.89-3.17,2.78-5.95,5.45-8.23c2.48-2.08,5.55-3.57,8.82-4.17
		c3.57-0.79,7.34-0.49,10.91,0.8c3.77,1.49,7.14,3.96,10.01,7.43l-9.02,7.24c-3.77-4.56-7.64-4.56-9.72-4.17
		c-2.58,0.5-4.76,2.18-5.36,4.27c-0.4,1.39-0.3,3.66,2.78,6.64l12.29,11.8c1.78,1.79,3.96,3.87,5.55,5.36
		c3.17,2.87,5.36,6.15,6.44,9.62C202.83,205.88,202.93,209.45,201.93,212.82z"/>
	<path class="st0" d="M388.67,227.59h-12.99l-18.54-24.89h-8.43v24.89h-11.5v-73.56h9.72h12.1c9.72,0,15.36,3.97,18.34,7.33
		c3.87,4.27,5.95,10.21,5.95,17.06c0,6.74-2.08,12.69-5.95,16.95c-1.79,1.98-4.56,4.26-8.53,5.65L388.67,227.59z M359.03,192.4
		c4.76,0,8.33-1.39,10.61-3.97c2.78-2.97,3.27-7.14,3.27-10.01c0-2.97-0.49-7.14-3.27-10.11c-2.28-2.58-5.85-3.86-10.61-3.86h-10.31
		v27.95H359.03z"/>
	<path class="st0" d="M427.26,154.03h12.1c9.71,0,15.36,3.97,18.34,7.24c3.97,4.36,5.95,10.21,5.95,17.05
		c0,6.84-1.98,12.79-5.95,17.05c-2.98,3.37-8.63,7.33-18.34,7.33h-10.31v24.89h-11.5v-73.56H427.26z M453.33,178.32
		c0-2.87-0.59-7.04-3.27-10.01c-2.38-2.58-5.95-3.96-10.71-3.96h-10.31v27.95h10.31c4.76,0,8.33-1.29,10.71-3.87
		C452.74,185.46,453.33,181.29,453.33,178.32z"/>
	<path class="st0" d="M540.31,164.34h-20.23v63.25h-11.6v-63.25h-20.23v-10.31h52.05V164.34z"/>
	<path class="st0" d="M570.76,227.59v-73.56h11.5v73.56H570.76z"/>
	<path class="st0" d="M732.9,180.31v47.29h-11.5v-77.03l46.2,50.66v-47.19h11.6v76.93L732.9,180.31z"/>
	<path class="st1" d="M242.75,227.59c-0.28-1.51-0.44-3.05-0.44-4.62c0-6.74,2.68-13.09,7.43-17.85c4.76-4.76,11.1-7.43,17.85-7.43
		c6.74,0,13.08,2.68,17.84,7.43c4.76,4.76,7.44,11.1,7.44,17.85c0,1.57-0.16,3.11-0.44,4.62h11.64c0.19-1.52,0.3-3.06,0.3-4.62
		c0-4.96-0.99-9.82-2.87-14.38c-1.88-4.36-4.46-8.23-7.83-11.7c-3.47-3.37-7.34-5.95-11.7-7.83c-4.56-1.88-9.42-2.87-14.38-2.87
		c-4.96,0-9.82,0.99-14.28,2.87c-4.46,1.88-8.33,4.46-11.7,7.83c-3.37,3.47-6.05,7.34-7.93,11.7c-1.88,4.56-2.88,9.42-2.88,14.38
		c0,1.55,0.11,3.09,0.3,4.62H242.75z"/>
	<path class="st1" d="M675.69,150.56c0.88,2.57,1.36,5.29,1.36,8.09c0,6.74-2.68,13.09-7.44,17.85c-4.76,4.76-11.1,7.43-17.85,7.43
		c-6.74,0-13.08-2.68-17.84-7.43c-4.76-4.76-7.44-11.1-7.44-17.85c0-2.8,0.49-5.51,1.36-8.09H615.9c-0.59,2.64-0.9,5.35-0.9,8.09
		c0,4.96,0.99,9.82,2.87,14.28c1.88,4.46,4.56,8.33,7.93,11.7c3.37,3.37,7.23,6.05,11.7,7.93c4.47,1.88,9.32,2.87,14.28,2.87
		c4.96,0,9.82-0.99,14.38-2.87c4.37-1.88,8.23-4.56,11.7-7.93c3.37-3.37,5.95-7.24,7.83-11.7c1.88-4.46,2.87-9.32,2.87-14.28
		c0-2.74-0.31-5.44-0.9-8.09H675.69z"/>
	<path class="st0" d="M680.87,142.32c-1.97,0-3.97-0.48-5.82-1.48L466.98,27.84L259.96,140.82c-5.93,3.23-13.36,1.05-16.59-4.88
		c-3.24-5.93-1.05-13.36,4.88-16.59L466.95,0l219.77,119.34c5.93,3.22,8.13,10.65,4.91,16.58
		C689.41,140,685.21,142.32,680.87,142.32z"/>
</g>
</svg>
