<svg xmlns="http://www.w3.org/2000/svg" xmlns:xlink="http://www.w3.org/1999/xlink" enable-background="new -18.585 -19.087 100 100" height="62" version="1.1" width="63" xml:space="preserve" style=""><rect id="backgroundrect" width="100%" height="100%" x="0" y="0" fill="none" stroke="none" class="" style=""/><defs/><g class="currentLayer" style=""><title>Layer 1</title><path clip-rule="evenodd" d="M7.868017153263092,0 c15.688,0 31.377,0 47.065,0 c2.7880000000000003,2.745 2.7880000000000003,2.745 7.15,10.975999999999999 c0.904,13.766 0.19200000000000003,32.971 0.7470000000000001,49.673 c-10.461,1.213 -17.854,0.8300000000000001 -29.377,1.027 c-10.134,0.17300000000000001 -22.024,0.41500000000000004 -32.852,-0.6850000000000002 c-0.37700000000000006,-7.373 -0.5680000000000001,-15.922 -0.31600000000000006,-24.67 c0.23900000000000002,-8.256 -0.9660000000000001,-17.666 0.31600000000000006,-24.328 C1.4430171532630922,7.626 5.548017153263092,4.259 6.921017153263092,1.029 C7.097017153263092,0.536 7.413017153263092,0.19200000000000003 7.868017153263092,0 zM38.509017153263095,4.797 c0.21200000000000002,1.268 -0.14900000000000002,4.859 0,7.196 c1.368,0 2.737,0 4.105,0 c0,-2.513 0,-5.025 0,-7.539 C40.79801715326309,4.524 39.89701715326309,3.946 38.509017153263095,4.797 zM45.457017153263095,11.993 c1.316,-0.279 2.637,0.466 3.16,0 c0,-2.6270000000000002 0,-5.253 0,-7.88 c-1.159,0 -2.316,0 -3.475,0 C45.76701715326309,6.174 45.326017153263095,9.395 45.457017153263095,11.993 zM51.14401715326309,11.993 c0.6880000000000002,0.32000000000000006 2.834,-0.20900000000000002 4.423,0 c-0.561,-2.934 -1.6940000000000002,-5.245 -2.526,-7.88 C49.81301715326309,3.159 51.610017153263094,9 51.14401715326309,11.993 zM12.606017153263092,11.307 c1.053,0 2.107,0 3.159,0 c0,-2.284 0,-4.567 0,-6.853 c-1.052,0 -2.106,0 -3.159,0 C12.606017153263092,6.74 12.606017153263092,9.023 12.606017153263092,11.307 zM18.607017153263094,11.307 c1.2650000000000001,0 2.528,0 3.792,0 c0,-2.284 0,-4.567 0,-6.853 c-1.263,0 -2.527,0 -3.792,0 C18.607017153263094,6.74 18.607017153263094,9.023 18.607017153263094,11.307 zM25.24201715326309,11.307 c1.159,0 2.316,0 3.475,0 c0,-2.284 0,-4.567 0,-6.853 c-1.158,0 -2.316,0 -3.475,0 C25.24201715326309,6.74 25.24201715326309,9.023 25.24201715326309,11.307 zM31.559017153263092,11.65 c1.6,-0.022000000000000006 2.616,0.5880000000000001 4.421,0.3430000000000001 c-0.125,-2.493 0.30300000000000005,-5.58 -0.31400000000000006,-7.539 c-1.369,0 -2.737,0 -4.107,0 C31.559017153263092,6.854 31.559017153263092,9.252 31.559017153263092,11.65 zM5.341017153263092,11.307 c1.474,0 2.947,0 4.423,0 c-0.37800000000000006,-1.988 0.782,-5.646 -0.6320000000000001,-6.51 C7.985017153263092,7.095 6.389017153263092,8.903 5.341017153263092,11.307 zM4.394017153263092,57.222 c18.004,0 38.22,0.461 54.646,-1.027 c-0.030000000000000006,-13.936 -0.47800000000000004,-27.945 -0.9460000000000001,-40.433 c-17.69,0 -35.379,0 -53.068,0 C3.473017153263092,27.901 3.993017153263092,44.106 4.394017153263092,57.222 z" fill-rule="evenodd" id="svg_1" class="" fill-opacity="1" fill="#8393a7"/><path clip-rule="evenodd" d="M14.502017153263091,28.439 c0.99,2.354 1.059,5.704 0.9470000000000001,9.251 c-2.04,-0.18500000000000003 -4.788,0.3970000000000001 -6.317,-0.3420000000000001 c0.14200000000000002,-2.816 -0.32500000000000007,-6.292 0.31600000000000006,-8.567 C10.964017153263093,27.479 13.399017153263092,27.968 14.502017153263091,28.439 z" fill-rule="evenodd" id="svg_2" class="" fill-opacity="1" fill="#8393a7"/><path clip-rule="evenodd" d="M33.771017153263095,29.811 c0.3440000000000001,2.482 0.514,5.152 0.6330000000000001,7.88 c-2.002,0 -4.002,0 -6.003,0 C27.327017153263093,31.875 29.373017153263092,25.578 33.771017153263095,29.811 z" fill-rule="evenodd" id="svg_3" class="" fill-opacity="1" fill="#8393a7"/><path clip-rule="evenodd" d="M53.091017153263095,29.811 c0.459,3.13 0.11100000000000002,4.736 0.6330000000000001,7.88 c-1.791,0 -4.896,0 -6.688000000000001,0 C46.23301715326309,32.333 48.87101715326309,25.645 53.091017153263095,29.811 z" fill-rule="evenodd" id="svg_4" class="" fill-opacity="1" fill="#8393a7"/></g></svg>