<svg xmlns="http://www.w3.org/2000/svg" xmlns:xlink="http://www.w3.org/1999/xlink" xml:space="preserve" version="1.1" style="shape-rendering:geometricPrecision;text-rendering:geometricPrecision;image-rendering:optimizeQuality;" viewBox="0 0 0.435 0.49375" x="0px" y="0px" fill-rule="evenodd" clip-rule="evenodd"><defs><style type="text/css">
   
    .fil0 {fill:black}
   
  </style></defs><g><path class="fil0" d="M0.217 0.317l0 -0.174 0.042 0c0.006,0 0.01,0.002 0.014,0.006 0.004,0.004 0.007,0.011 0.008,0.018l0.021 0.15 -0.085 0zm-0.155 -0.115c0.009,0 0.016,0.007 0.016,0.016 0,0.009 -0.007,0.016 -0.016,0.016l-0.046 0c-0.009,0 -0.016,-0.007 -0.016,-0.016 0,-0.009 0.007,-0.016 0.016,-0.016l0.046 0zm0.357 0c0.009,0 0.016,0.007 0.016,0.016 0,0.009 -0.007,0.016 -0.016,0.016l-0.046 0c-0.009,0 -0.016,-0.007 -0.016,-0.016 0,-0.009 0.007,-0.016 0.016,-0.016l0.046 0zm-0.318 -0.102c0.006,0.006 0.006,0.016 0,0.022 -0.006,0.006 -0.016,0.006 -0.022,0l-0.033 -0.033c-0.006,-0.006 -0.006,-0.016 0,-0.022 0.006,-0.006 0.016,-0.006 0.022,0l0.033 0.033zm0.255 0.022c-0.006,0.006 -0.016,0.006 -0.022,0 -0.006,-0.006 -0.006,-0.016 0,-0.022l0.033 -0.033c0.006,-0.006 0.016,-0.006 0.022,0 0.006,0.006 0.006,0.016 0,0.022l-0.033 0.033zm-0.123 -0.06c0,0.009 -0.007,0.016 -0.016,0.016 -0.008,0 -0.015,-0.007 -0.015,-0.016l0 -0.046c0,-0.009 0.007,-0.016 0.015,-0.016 0.009,0 0.016,0.007 0.016,0.016l0 0.046zm-0.155 0.255l0.023 0 0.022 -0.154c0.002,-0.013 0.007,-0.026 0.016,-0.035l0.001 -0.001c0.009,-0.009 0.021,-0.015 0.035,-0.015l0.084 0c0.014,0 0.026,0.006 0.036,0.015 0.009,0.009 0.015,0.022 0.017,0.036l0.021 0.154 0.024 0c0.008,0 0.015,0.007 0.015,0.015l0 0.047c0,0.009 -0.007,0.016 -0.015,0.016l-0.279 0c-0.009,0 -0.016,-0.007 -0.016,-0.016l0 -0.047c0,-0.008 0.007,-0.015 0.016,-0.015zm0.263 0.031l-0.021 0 -0.205 0 -0.022 0 0 0.015 0.248 0 0 -0.015z"/></g><text x="0" y="15.395" fill="#000000" font-size="5px" font-weight="bold" font-family="'Helvetica Neue', Helvetica, Arial-Unicode, Arial, Sans-serif">Created by Nociconist</text><text x="0" y="20.395" fill="#000000" font-size="5px" font-weight="bold" font-family="'Helvetica Neue', Helvetica, Arial-Unicode, Arial, Sans-serif">from the Noun Project</text></svg>