<svg width="80px" height="80px" viewBox="0 0 80 80" xmlns="http://www.w3.org/2000/svg">
 	<style>
		.fr-artwork-decorative {
			fill: #ECECFF;
		}
		.fr-artwork-minor {
			fill: #E1000F;
		}
		.fr-artwork-major {
			fill: #000091;
		}
	</style>
	<symbol id="artwork-decorative">
        <path d="M5 60c-.5514 0-1-.4486-1-1s.4486-1 1-1 1 .4486 1 1-.4486 1-1 1ZM17 8c-.5514 0-1-.4486-1-1s.4486-1 1-1 1 .4486 1 1-.4486 1-1 1ZM3 26c-.5514 0-1-.4486-1-1s.4486-1 1-1 1 .4486 1 1-.4486 1-1 1Zm74 30c-.5514 0-1-.4486-1-1s.4486-1 1-1 1 .4486 1 1-.4486 1-1 1Zm-2-34c-.5514 0-1-.4486-1-1s.4486-1 1-1 1 .4486 1 1-.4486 1-1 1Z"/>
    </symbol>
    <symbol id="artwork-minor">
        <path d="M 55 48 c 7.1797 0 13 5.8203 13 13 s -5.8203 13 -13 13 s -13 -5.8203 -13 -13 s 5.8203 -13 13 -13 Z m 0 2 c -6.0751 0 -11 4.9249 -11 11 s 4.9249 11 11 11 s 11 -4.9249 11 -11 s -4.9249 -11 -11 -11 Z m 0 4 c 0.5128 0 0.9355 0.386 0.9933 0.8834 L 56 55 v 5 h 5 c 0.5523 0 1 0.4477 1 1 c 0 0.5128 -0.386 0.9355 -0.8834 0.9933 L 61 62 h -5 v 5 c 0 0.5523 -0.4477 1 -1 1 c -0.5128 0 -0.9355 -0.386 -0.9933 -0.8834 L 54 67 v -5 h -5 c -0.5523 0 -1 -0.4477 -1 -1 c 0 -0.5128 0.386 -0.9355 0.8834 -0.9933 L 49 60 h 5 v -5 c 0 -0.5523 0.4477 -1 1 -1 Z" />
    </symbol>
    <symbol id="artwork-major">
        <path d="M 69 18 v 31 c 0 0.5523 -0.4477 1 -1 1 c -0.5128 0 -0.9355 -0.386 -0.9933 -0.8834 L 67 49 V 27 h -9 c -0.5523 0 -1 -0.4477 -1 -1 c 0 -0.5128 0.386 -0.9355 0.8834 -0.9933 L 58 25 h 9 v -6 H 15 v 6 h 37 c 0.5523 0 1 0.4477 1 1 c 0 0.5128 -0.386 0.9355 -0.8834 0.9933 L 52 27 H 15 v 36 h 20 C 36 63 36 64 36 64 L 36 64 c 0 0.5128 -0.386 0.9355 -0.8834 0.9933 L 35 65 H 14 c -0.5128 0 -0.9355 -0.386 -0.9933 -0.8834 L 13 64 V 18 c 0 -0.5128 0.386 -0.9355 0.8834 -0.9933 L 14 17 h 54 c 0.5128 0 0.9355 0.386 0.9933 0.8834 L 69 18 z M 17 22 c 0 0.5514 0.4486 1 1 1 s 1 -0.4486 1 -1 s -0.4486 -1 -1 -1 S 17 21.4486 17 22 z M 21 22 c 0 0.5514 0.4486 1 1 1 s 1 -0.4486 1 -1 s -0.4486 -1 -1 -1 S 21 21.4486 21 22 z M 25 22 c 0 0.5514 0.4486 1 1 1 s 1 -0.4486 1 -1 s -0.4486 -1 -1 -1 S 25 21.4486 25 22 z M 64.1166 22.9933 C 64.614 22.9355 65 22.5128 65 22 c 0 -0.5523 -0.4477 -1 -1 -1 H 34 l -0.1166 0.0067 C 33.386 21.0645 33 21.4872 33 22 c 0 0.5523 0.4477 1 1 1 h 30 L 64.1166 22.9933 z M 40.1166 34.9933 C 40.614 34.9355 41 34.5128 41 34 c 0 -0.5523 -0.4477 -1 -1 -1 H 22 l -0.1166 0.0067 C 21.386 33.0645 21 33.4872 21 34 c 0 0.5523 0.4477 1 1 1 h 18 L 40.1166 34.9933 z M 36.1166 40.9933 C 36.614 40.9355 37 40.5128 37 40 c 0 -0.5523 -0.4477 -1 -1 -1 H 22 l -0.1166 0.0067 C 21.386 39.0645 21 39.4872 21 40 c 0 0.5523 0.4477 1 1 1 h 14 L 36.1166 40.9933 z M 22 45 l -0.1166 0.0067 C 21.386 45.0645 21 45.4872 21 46 c 0 0.5523 0.4477 1 1 1 h 12 l 0.1166 -0.0067 C 34.614 46.9355 35 46.5128 35 46 c 0 -0.5523 -0.4477 -1 -1 -1 H 22 z" />
    </symbol>
  <use class="fr-artwork-decorative" href="#artwork-decorative"/>
  <use class="fr-artwork-minor" href="#artwork-minor"/>
  <use class="fr-artwork-major" href="#artwork-major"/>
</svg>