<svg width="80px" height="80px" viewBox="0 0 80 80" xmlns="http://www.w3.org/2000/svg">
    <style>
        .fr-artwork-decorative {
            fill: #ECECFF;
        }
        .fr-artwork-minor {
            fill: #E1000F;
            position: relative;
            z-index: 1;
        }
        .fr-artwork-major {
            fill: #000091;
            position: relative;
            z-index: -1;
        }
    </style>
    <g id="artwork-minor">
        <path d="M 4167 18.557 H 26.832 V 4.134 C 26.832 1.851 24.99 0 22.707 0 c -2.283 0 -4.124 1.851 -4.124 4.135 v 14.432 H 4.141 c -2.283 0 -4.139 1.851 -4.138 4.135 c -0.001 1.141 0.46 2.187 1.207 2.934 c 0.748 0.749 1.78 1.222 2.92 1.222 h 14.453 V 41.27 c 0 1.142 0.453 2.176 1.201 2.922 c 0.748 0.748 1.777 1.211 2.919 1.211 c 2.282 0 4.129 -1.851 4.129 -4.133 V 26.857 h 14.435 c 2.283 0 4.134 -1.867 4.133 -4.15 C 45.399 20.425 43.548 18.557 41.267 18.557 z"/>
        <!-- <path d="M 21035 292.785 H 334.16 V 220.67 C 334.16 209.255 324.95 200 313.535 200 c -11.415 0 -20.62 9.255 -20.62 20.675 v 72.16 H 220.705 c -11.415 0 -20.695 9.255 -20.69 20.675 c -0.005 5.705 2.3 10.935 6.035 14.67 c 3.74 3.745 8.9 6.11 14.6 6.11 h 72.265 V 406.35 c 0 5.71 2.265 10.88 6.005 14.61 c 3.74 3.74 8.885 6.055 14.595 6.055 c 11.41 0 20.645 -9.255 20.645 -20.665 V 334.285 h 72.175 c 11.415 0 20.67 -9.335 20.665 -20.75 C 426.995 302.125 417.74 292.785 406.335 292.785 z"/> -->
    </g>
    <use class="fr-artwork-minor" href="#artwork-minor"/>
</svg>