<svg width="80px" height="80px" viewBox="0 0 80 80" xmlns="http://www.w3.org/2000/svg">
 	<style>
		.fr-artwork-decorative {
			fill: #ECECFF;
		}
		.fr-artwork-minor {
			fill: #E1000F;
		}
		.fr-artwork-major {
			fill: #000091;
		}
	</style>
	<symbol id="artwork-decorative">
    <path d="M57,78c-0.5514,0-1-0.4486-1-1s0.4486-1,1-1s1,0.4486,1,1S57.5514,78,57,78z M61,6c-0.5514,0-1-0.4486-1-1
	c0-0.55145,0.4486-1,1-1s1,0.44855,1,1C62,5.5514,61.5514,6,61,6z M27,78c-0.5514,0-1-0.4486-1-1s0.4486-1,1-1s1,0.4486,1,1
	S27.5514,78,27,78z"/>
  </symbol>
  <symbol id="artwork-minor">
    <path d="M44.99329,9.88336L45,10v4c0,0.55231-0.44769,1-1,1c-0.51282,0-0.93549-0.38599-0.99329-0.88342L43,14v-4
	c0-0.55231,0.44769-1,1-1C44.51282,9,44.93549,9.38605,44.99329,9.88336z M19,34h-6l-0.11658,0.00671
	C12.38599,34.06451,12,34.48718,12,35c0,0.55231,0.44769,1,1,1h6l0.11658-0.00671C19.61401,35.93549,20,35.51282,20,35
	C20,34.44769,19.55231,34,19,34z M43,37c0,1.65692-1.34308,3-3,3s-3-1.34308-3-3s1.34308-3,3-3S43,35.34308,43,37z M41,37
	c0-0.55231-0.44769-1-1-1s-1,0.44769-1,1s0.44769,1,1,1S41,37.55231,41,37z M19,38h-6l-0.11658,0.00671
	C12.38599,38.06451,12,38.48718,12,39c0,0.55231,0.44769,1,1,1h6l0.11658-0.00671C19.61401,39.93549,20,39.51282,20,39
	C20,38.44769,19.55231,38,19,38z M31,34h-6l-0.11658,0.00671C24.38599,34.06451,24,34.48718,24,35c0,0.55231,0.44769,1,1,1h6
	l0.11658-0.00671C31.61401,35.93549,32,35.51282,32,35C32,34.44769,31.55231,34,31,34z M31,38h-6l-0.11658,0.00671
	C24.38599,38.06451,24,38.48718,24,39c0,0.55231,0.44769,1,1,1h6l0.11658-0.00671C31.61401,39.93549,32,39.51282,32,39
	C32,38.44769,31.55231,38,31,38z M55,34h-6l-0.11658,0.00671C48.38599,34.06451,48,34.48718,48,35c0,0.55231,0.44769,1,1,1h6
	l0.11658-0.00671C55.61401,35.93549,56,35.51282,56,35C56,34.44769,55.55231,34,55,34z M55,38h-6l-0.11658,0.00671
	C48.38599,38.06451,48,38.48718,48,39c0,0.55231,0.44769,1,1,1h6l0.11658-0.00671C55.61401,39.93549,56,39.51282,56,39
	C56,38.44769,55.55231,38,55,38z M61,36h6l0.11658-0.00671C67.61401,35.93549,68,35.51282,68,35c0-0.55231-0.44769-1-1-1h-6
	l-0.11658,0.00671C60.38599,34.06451,60,34.48718,60,35C60,35.55231,60.44769,36,61,36z M67,38h-6l-0.11658,0.00671
	C60.38599,38.06451,60,38.48718,60,39c0,0.55231,0.44769,1,1,1h6l0.11658-0.00671C67.61401,39.93549,68,39.51282,68,39
	C68,38.44769,67.55231,38,67,38z"/>
	<path d="M 67 48 c 7.1797 0 13 5.8203 13 13 s -5.8203 13 -13 13 s -13 -5.8203 -13 -13 s 5.8203 -13 13 -13 Z m 0 2 c -6.0751 0 -11 4.9249 -11 11 s 4.9249 11 11 11 s 11 -4.9249 11 -11 s -4.9249 -11 -11 -11 Z m 0 4 c 0.5128 0 0.9355 0.386 0.9933 0.8834 L 68 55 v 5 h 5 c 0.5523 0 1 0.4477 1 1 c 0 0.5128 -0.386 0.9355 -0.8834 0.9933 L 73 62 h -5 v 5 c 0 0.5523 -0.4477 1 -1 1 c -0.5128 0 -0.9355 -0.386 -0.9933 -0.8834 L 66 67 v -5 h -5 c -0.5523 0 -1 -0.4477 -1 -1 c 0 -0.5128 0.386 -0.9355 0.8834 -0.9933 L 61 60 h 5 v -5 c 0 -0.5523 0.4477 -1 1 -1 Z" />
  </symbol>
  <symbol id="artwork-major">
    <path d="M 39.0067 14.1166 L 39 14 v -4 c 0 -0.5523 0.4477 -1 1 -1 c 0.5128 0 0.9355 0.3861 0.9933 0.8834 L 41 10 v 4 c 0 0.5523 -0.4477 1 -1 1 C 39.4872 15 39.0645 14.614 39.0067 14.1166 z M 77 26 H 64 v -5 l -0.0067 -0.1166 C 63.9355 20.386 63.5128 20 63 20 c -0.5523 0 -1 0.4477 -1 1 v 5 H 18 v -4 h 35 l 0.1166 -0.0067 C 53.614 21.9355 54 21.5128 54 21 c 0 -0.5523 -0.4477 -1 -1 -1 H 41 v -3 l -0.0067 -0.1166 C 40.9355 16.386 40.5128 16 40 16 c -0.5523 0 -1 0.4477 -1 1 v 3 H 17 l -0.1166 0.0067 C 16.386 20.0645 16 20.4872 16 21 v 5 H 3 l -0.1166 0.0067 C 2.3861 26.0645 2 26.4872 2 27 c 0 0.5523 0.4477 1 1 1 h 74 l 0.1166 -0.0067 C 77.614 27.9355 78 27.5128 78 27 C 78 26.4477 77.5523 26 77 26 z M 25 66 c 0.5523 0 1 -0.4477 1 -1 V 45 l -0.0067 -0.1166 C 25.9355 44.386 25.5128 44 25 44 c -0.5523 0 -1 0.4477 -1 1 v 20 l 0.0067 0.1166 C 24.0645 65.614 24.4872 66 25 66 z M 21 48 c -0.5523 0 -1 0.4477 -1 1 v 19 h -8 V 49 l -0.0067 -0.1166 C 11.9355 48.386 11.5128 48 11 48 c -0.5523 0 -1 0.4477 -1 1 v 19 H 7 l -0.1166 0.0067 C 6.3861 68.0645 6 68.4872 6 69 c 0 0.5523 0.4477 1 1 1 h 14 c 0.069 0 0.1364 -0.007 0.2015 -0.0203 C 21.6572 69.8864 22 69.4832 22 69 V 49 l -0.0067 -0.1166 C 21.9355 48.386 21.5128 48 21 48 z M 15 62 c 0.5523 0 1 -0.4477 1 -1 V 45 l -0.0067 -0.1166 C 15.9355 44.386 15.5128 44 15 44 c -0.5523 0 -1 0.4477 -1 1 v 16 l 0.0067 0.1166 C 14.0645 61.614 14.4872 62 15 62 z M 57 22 h 2 l 0.1166 -0.0067 C 59.614 21.9355 60 21.5128 60 21 c 0 -0.5523 -0.4477 -1 -1 -1 h -2 l -0.1166 0.0067 C 56.386 20.0645 56 20.4872 56 21 C 56 21.5523 56.4477 22 57 22 z M 7 66 c 0.5523 0 1 -0.4477 1 -1 V 31 l -0.0067 -0.1166 C 7.9355 30.386 7.5128 30 7 30 c -0.5523 0 -1 0.4477 -1 1 v 34 l 0.0067 0.1166 C 6.0645 65.614 6.4872 66 7 66 z M 33 48 h 14 c 0.5128 0 0.9355 0.386 0.9933 0.8834 L 48 49 v 15 h 3 c 0.5523 0 1 0.4477 1 1 c 0 0.5128 -0.386 0.9355 -0.8834 0.9933 L 51 66 H 29 c -0.5523 0 -1 -0.4477 -1 -1 c 0 -0.5128 0.386 -0.9355 0.8834 -0.9933 L 29 64 h 3 V 49 c 0 -0.5128 0.386 -0.9355 0.8834 -0.9933 L 33 48 z M 34 64 h 5 v -9 c 0 -0.5523 0.4477 -1 1 -1 c 0.5128 0 0.9355 0.386 0.9933 0.8834 L 41 55 v 9 h 5 V 49.999 H 34 V 64 z M 45 46 l 0.1166 -0.0067 C 45.614 45.9355 46 45.5128 46 45 c 0 -0.5523 -0.4477 -1 -1 -1 H 35 l -0.1166 0.0067 C 34.386 44.0645 34 44.4872 34 45 c 0 0.5523 0.4477 1 1 1 H 45 z M 56 50 L 56 50 V 45 c 0 -0.5523 -0.4477 -1 -1 -1 c -0.5128 0 -0.9355 0.386 -0.9933 0.8834 L 54 45 v 5 c 0 0.5523 0.4477 1 1 1 C 56 51 56 50 56 50 z z M 66 47 L 66 47 V 45 c 0 -0.5523 -0.4477 -1 -1 -1 c -0.5128 0 -0.9355 0.386 -0.9933 0.8834 L 64 45 v 1 c 0 0.5523 0.4477 1 1 1 C 65 47 66 47 66 46 z M 52 68 H 25 l -0.1166 0.0067 C 24.386 68.0645 24 68.4872 24 69 c 0 0.5523 0.4477 1 1 1 h 26 c 0.0395 0 0.0784 -0.0023 0.1167 -0.0067 c 0.459 -0.0534 0.8233 -0.4176 0.8833 -0.9933 C 52 69 52 69 52 69 C 52 68 51 68 51 68 z M 73 30 c -0.5523 0 -1 0.4477 -1 1 v 16 l 0 -1 C 72 46 72 47 73 47 c 0.5523 0 1 -0.4477 1 -1 V 31 l -0.0067 -0.1166 C 73.9355 30.386 73.5128 30 73 30 z"/>
  </symbol>
  <use class="fr-artwork-decorative" href="#artwork-decorative"/>
  <use class="fr-artwork-minor" href="#artwork-minor"/>
  <use class="fr-artwork-major" href="#artwork-major"/>
</svg>
