<svg width="80px" height="80px" viewBox="0 0 80 80" xmlns="http://www.w3.org/2000/svg">
 	<style>
		.fr-artwork-decorative {
			fill: #ECECFF;
		}
		.fr-artwork-minor {
			fill: #E1000F;
		}
		.fr-artwork-major {
			fill: #000091;
		}
	</style>
	<symbol id="artwork-decorative">
        <path d="M5 60c-.5514 0-1-.4486-1-1s.4486-1 1-1 1 .4486 1 1-.4486 1-1 1ZM17 8c-.5514 0-1-.4486-1-1s.4486-1 1-1 1 .4486 1 1-.4486 1-1 1ZM3 26c-.5514 0-1-.4486-1-1s.4486-1 1-1 1 .4486 1 1-.4486 1-1 1Zm74 30c-.5514 0-1-.4486-1-1s.4486-1 1-1 1 .4486 1 1-.4486 1-1 1Zm-2-34c-.5514 0-1-.4486-1-1s.4486-1 1-1 1 .4486 1 1-.4486 1-1 1Z"/>
    </symbol>
    <symbol id="artwork-minor">
        <path d="M 37 25 c -4.9708 0 -9 4.0292 -9 9 c 0 3.9131 2.5122 7.2092 6 8.449 V 52 l 0.0201 0.3497 C 34.1935 53.842 35.4615 55 37 55 c 1.6569 0 3 -1.3431 3 -3 v -9.551 c 3.4878 -1.2398 6 -4.5359 6 -8.449 C 46 29.0292 41.9708 25 37 25 z M 37 37 c -1.6569 0 -3 -1.3431 -3 -3 s 1.3431 -3 3 -3 s 3 1.3431 3 3 S 38.6569 37 37 37 z" />
        <path d="M 55 48 c 7.1797 0 13 5.8203 13 13 s -5.8203 13 -13 13 s -13 -5.8203 -13 -13 s 5.8203 -13 13 -13 Z m 0 2 c -6.0751 0 -11 4.9249 -11 11 s 4.9249 11 11 11 s 11 -4.9249 11 -11 s -4.9249 -11 -11 -11 Z m 0 4 c 0.5128 0 0.9355 0.386 0.9933 0.8834 L 56 55 v 5 h 5 c 0.5523 0 1 0.4477 1 1 c 0 0.5128 -0.386 0.9355 -0.8834 0.9933 L 61 62 h -5 v 5 c 0 0.5523 -0.4477 1 -1 1 c -0.5128 0 -0.9355 -0.386 -0.9933 -0.8834 L 54 67 v -5 h -5 c -0.5523 0 -1 -0.4477 -1 -1 c 0 -0.5128 0.386 -0.9355 0.8834 -0.9933 L 49 60 h 5 v -5 c 0 -0.5523 0.4477 -1 1 -1 Z" />
    </symbol>
    <symbol id="artwork-major">
        <path d="M 55 12 c 0.5128 0 0.9355 0.386 0.9933 0.8834 L 56 13 v 32 c 0 0.5523 -0.4477 1 -1 1 c -0.5128 0 -0.9355 -0.386 -0.9933 -0.8834 L 54 45 V 14 H 18 v 52 h 21 c 0.5128 0 0.9355 0.386 0.9933 0.8834 L 40 67 c 0 0.5128 -0.386 0.9355 -0.8834 0.9933 L 39 68 H 17 c -0.5128 0 -0.9355 -0.386 -0.9933 -0.8834 L 16 67 V 13 c 0 -0.5128 0.386 -0.9355 0.8834 -0.9933 L 17 12 h 38 Z m -6 24 Z m 10 -24 c 0.5128 0 0.9355 0.386 0.9933 0.8834 L 60 13 v 32 c 0 0.5523 -0.4477 1 -1 1 c -0.5128 0 -0.9355 -0.386 -0.9933 -0.8834 L 58 45 V 13 c 0 -0.5523 0.4477 -1 1 -1 Z" />
    </symbol>
  <use class="fr-artwork-decorative" href="#artwork-decorative"/>
  <use class="fr-artwork-minor" href="#artwork-minor"/>
  <use class="fr-artwork-major" href="#artwork-major"/>
</svg>

