<svg width="80px" height="80px" viewBox="0 0 80 80" xmlns="http://www.w3.org/2000/svg">
 	<style>
		.fr-artwork-decorative {
			fill: #ECECFF;
		}
		.fr-artwork-minor {
			fill: #E1000F;
		}
		.fr-artwork-major {
			fill: #000091;
		}
	</style>
	<symbol id="artwork-decorative">
		<path d="M76,70c-0.5514,0-1-0.4486-1-1s0.4486-1,1-1s1,0.4486,1,1S76.5514,70,76,70z M39,4c-0.5514,0-1-0.4486-1-1
		c0-0.55145,0.4486-1,1-1s1,0.44855,1,1C40,3.5514,39.5514,4,39,4z M4,62c-0.5514,0-1-0.4486-1-1s0.4486-1,1-1s1,0.4486,1,1
		S4.5514,62,4,62z" />
  	</symbol>
	<symbol id="artwork-minor">
		<path d="M65.9487,57.6838L64,51.8377v-3.662c0.0639,-0.088,0.1212,-0.182,0.1708,-0.2813l1.5186,-3.037c0.2605,-0.5208,0.2809,-1.1293,0.0561,-1.6665L61.8274,33.828c-0.2036,-0.4867,-0.5913,-0.8732,-1.0786,-1.0753c-1.0202,-0.4233,-2.1904,0.0607,-2.6136,1.0809l-3.8837,9.3613c-0.2224,0.5359,-0.201,1.1419,0.0584,1.6609l1.5194,3.0386c0.0496,0.0993,0.1069,0.1933,0.1708,0.2813v3.662l-1.9487,5.8461l-0.0305,0.1127c-0.1024,0.4901,0.1765,0.99,0.663,1.1522l0.1127,0.0305c0.4901,0.1025,0.99,-0.1764,1.1522,-0.663L57.72,53h4.559l1.701,5.103L62.696,69h-5.393l-0.3598,-3.0545l-0.0204,-0.1151c-0.1155,-0.4871,-0.5805,-0.821,-1.0898,-0.761c-0.5485,0.0646,-0.9407,0.5616,-0.8761,1.1101l0.464,3.9375l0.02,0.1139C55.5463,70.6767,55.946,71,56.414,71h7.172l0.1155,-0.0066c0.455,-0.0525,0.8229,-0.4116,0.8776,-0.8764l1.414,-12L66,58.0074C66.0008,57.8977,65.9835,57.7883,65.9487,57.6838zM62,51h-4v-2h4V51zM62.382,47h-4.764l-1.5193,-3.0387L59,36.968V42l0.0067,0.1166C59.0645,42.614,59.4872,43,60,43c0.5523,0,1,-0.4477,1,-1v-4.9683l2.9005,6.9313L62.382,47z" />
	</symbol>
	<symbol id="artwork-major">
		<path d="M55.99329,11.88342L56,12v20c0,0.55231-0.44769,1-1,1c-0.51282,0-0.93549-0.38599-0.99329-0.88342L54,32V13H18
		v52h31c0.51282,0,0.93549,0.38599,0.99329,0.88342L50,66c0,0.51282-0.38599,0.93549-0.88342,0.99329L49,67H17
		c-0.51282,0-0.93549-0.38599-0.99329-0.88342L16,66V12c0-0.51282,0.38599-0.93549,0.88342-0.99329L17,11h38
		C55.51282,11,55.93549,11.38599,55.99329,11.88342z M23,19h16l0.11658-0.00671C39.61401,18.93549,40,18.51282,40,18
		c0-0.55231-0.44769-1-1-1H23l-0.11658,0.00671C22.38599,17.06451,22,17.48718,22,18C22,18.55231,22.44769,19,23,19z M23,25h26
		l0.11658-0.00671C49.61401,24.93549,50,24.51282,50,24c0-0.55231-0.44769-1-1-1H23l-0.11658,0.00671
		C22.38599,23.06451,22,23.48718,22,24C22,24.55231,22.44769,25,23,25z M23,31h20l0.11658-0.00671
		C43.61401,30.93549,44,30.51282,44,30c0-0.55231-0.44769-1-1-1H23l-0.11658,0.00671C22.38599,29.06451,22,29.48718,22,30
		C22,30.55231,22.44769,31,23,31z M49.11658,36.99329C49.61401,36.93549,50,36.51282,50,36c0-0.55231-0.44769-1-1-1H23
		l-0.11658,0.00671C22.38599,35.06451,22,35.48718,22,36c0,0.55231,0.44769,1,1,1h26L49.11658,36.99329z M59.99329,19.88342
		C59.93549,19.38599,59.51282,19,59,19c-0.55231,0-1,0.44769-1,1v8l0.00671,0.11658C58.06451,28.61401,58.48718,29,59,29
		c0.55231,0,1-0.44769,1-1v-8L59.99329,19.88342z M51,69H25l-0.11658,0.00671C24.38599,69.06451,24,69.48718,24,70
		c0,0.55231,0.44769,1,1,1h26l0.11658-0.00671C51.61401,70.93549,52,70.51282,52,70C52,69.44769,51.55231,69,51,69z M23,41
		l-0.11658,0.00671C22.38599,41.06451,22,41.48718,22,42c0,0.55231,0.44769,1,1,1h20l0.11658-0.00671
		C43.61401,42.93549,44,42.51282,44,42c0-0.55231-0.44769-1-1-1H23z" />
	</symbol>
	<use class="fr-artwork-decorative" href="#artwork-decorative" />
	<use class="fr-artwork-minor" href="#artwork-minor" />
	<use class="fr-artwork-major" href="#artwork-major" />
</svg>
