<?xml version="1.0" ?><svg data-name="Layer 1" id="Layer_1" viewBox="0 0 100 100" xmlns="http://www.w3.org/2000/svg"><title/><path d="M74.27,52.41v3.75a.6.6,0,0,0,.59.59H82v4.17H74.86a.59.59,0,0,0-.59.59v3.75a.6.6,0,0,0,.59.59H82V70H74.86a.6.6,0,0,0-.59.6v3.75a.6.6,0,0,0,.59.59H82v5.69H68.54V37.49L82,48.56v3.26H74.86A.59.59,0,0,0,74.27,52.41ZM28.84,46.83H18v5h4.57a.59.59,0,0,1,.6.59v3.75a.6.6,0,0,1-.6.59H18v4.17h4.57a.59.59,0,0,1,.6.59v3.75a.6.6,0,0,1-.6.59H18V70h4.57a.6.6,0,0,1,.6.6v3.75a.6.6,0,0,1-.6.59H18v5.69H28.84Zm35.7,33.81H32.84V21.34a2,2,0,0,1,2-2H62.56a2,2,0,0,1,2,2v59.3ZM45.82,63.05a1.18,1.18,0,0,0-1.19-1.18H40a1.18,1.18,0,0,0-1.19,1.18v4.66A1.19,1.19,0,0,0,40,68.9h4.65a1.19,1.19,0,0,0,1.19-1.19Zm0-11.56a1.19,1.19,0,0,0-1.19-1.19H40a1.19,1.19,0,0,0-1.19,1.19v4.65A1.19,1.19,0,0,0,40,57.33h4.65a1.19,1.19,0,0,0,1.19-1.19Zm0-11.57a1.19,1.19,0,0,0-1.19-1.19H40a1.19,1.19,0,0,0-1.19,1.19v4.66A1.19,1.19,0,0,0,40,45.77h4.65a1.19,1.19,0,0,0,1.19-1.19Zm0-11.57a1.18,1.18,0,0,0-1.19-1.18H40a1.18,1.18,0,0,0-1.19,1.18V33A1.19,1.19,0,0,0,40,34.2h4.65A1.19,1.19,0,0,0,45.82,33ZM58.6,63.05a1.19,1.19,0,0,0-1.19-1.18H52.75a1.18,1.18,0,0,0-1.19,1.18v4.66a1.19,1.19,0,0,0,1.19,1.19h4.66a1.19,1.19,0,0,0,1.19-1.19Zm0-11.56a1.19,1.19,0,0,0-1.19-1.19H52.75a1.19,1.19,0,0,0-1.19,1.19v4.65a1.19,1.19,0,0,0,1.19,1.19h4.66a1.19,1.19,0,0,0,1.19-1.19Zm0-11.57a1.19,1.19,0,0,0-1.19-1.19H52.75a1.19,1.19,0,0,0-1.19,1.19v4.66a1.19,1.19,0,0,0,1.19,1.19h4.66a1.2,1.2,0,0,0,1.19-1.19Zm0-11.57a1.19,1.19,0,0,0-1.19-1.18H52.75a1.18,1.18,0,0,0-1.19,1.18V33a1.19,1.19,0,0,0,1.19,1.19h4.66A1.19,1.19,0,0,0,58.6,33Z"/></svg>