<svg height="61" width="64" xmlns="http://www.w3.org/2000/svg"><rect fill="none" height="100%" width="100%"/><path d="m56.27 33.06999985v3.75a.6.6 0 0 0 .59.59h7.14v4.17h-7.14a.59.59 0 0 0 -.59.59v3.75a.6.6 0 0 0 .59.59h7.14v4.15h-7.14a.6.6 0 0 0 -.59.6v3.75a.6.6 0 0 0 .59.59h7.14v5.69h-13.46v-43.14l13.46 11.07v3.26h-7.14a.59.59 0 0 0 -.59.59zm-45.43-5.58h-10.84v5h4.57a.59.59 0 0 1 .6.59v3.75a.6.6 0 0 1 -.6.59h-4.57v4.17h4.57a.59.59 0 0 1 .6.59v3.75a.6.6 0 0 1 -.6.59h-4.57v4.14h4.57a.6.6 0 0 1 .6.6v3.75a.6.6 0 0 1 -.6.59h-4.57v5.69h10.84zm35.7 33.81h-31.7v-59.3a2 2 0 0 1 2-2h27.72a2 2 0 0 1 2 2v59.3zm-18.72-17.59a1.18 1.18 0 0 0 -1.19-1.18h-4.63a1.18 1.18 0 0 0 -1.19 1.18v4.66a1.19 1.19 0 0 0 1.19 1.19h4.65a1.19 1.19 0 0 0 1.19-1.19zm0-11.56a1.19 1.19 0 0 0 -1.19-1.19h-4.63a1.19 1.19 0 0 0 -1.19 1.19v4.65a1.19 1.19 0 0 0 1.19 1.19h4.65a1.19 1.19 0 0 0 1.19-1.19zm0-11.57a1.19 1.19 0 0 0 -1.19-1.19h-4.63a1.19 1.19 0 0 0 -1.19 1.19v4.66a1.19 1.19 0 0 0 1.19 1.19h4.65a1.19 1.19 0 0 0 1.19-1.19zm0-11.57a1.18 1.18 0 0 0 -1.19-1.18h-4.63a1.18 1.18 0 0 0 -1.19 1.18v4.65a1.19 1.19 0 0 0 1.19 1.2h4.65a1.19 1.19 0 0 0 1.17-1.2zm12.78 34.7a1.19 1.19 0 0 0 -1.19-1.18h-4.66a1.18 1.18 0 0 0 -1.19 1.18v4.66a1.19 1.19 0 0 0 1.19 1.19h4.66a1.19 1.19 0 0 0 1.19-1.19zm0-11.56a1.19 1.19 0 0 0 -1.19-1.19h-4.66a1.19 1.19 0 0 0 -1.19 1.19v4.65a1.19 1.19 0 0 0 1.19 1.19h4.66a1.19 1.19 0 0 0 1.19-1.19zm0-11.57a1.19 1.19 0 0 0 -1.19-1.19h-4.66a1.19 1.19 0 0 0 -1.19 1.19v4.66a1.19 1.19 0 0 0 1.19 1.19h4.66a1.2 1.2 0 0 0 1.19-1.19zm0-11.57a1.19 1.19 0 0 0 -1.19-1.18h-4.66a1.18 1.18 0 0 0 -1.19 1.18v4.65a1.19 1.19 0 0 0 1.19 1.19h4.66a1.19 1.19 0 0 0 1.19-1.19z" fill="#ffa100"/></svg>