<svg xmlns="http://www.w3.org/2000/svg" data-name="Layer 1" width="64" height="61" style=""><rect id="backgroundrect" width="100%" height="100%" x="0" y="0" fill="none" stroke="none" class="" style=""/><title/><g class="currentLayer" style=""><title>Layer 1</title><path d="M56.269999999999996,33.069999847412106 v3.75 a0.6000000000000001,0.6000000000000001 0 0 0 0.5900000000000001,0.5900000000000001 H64 v4.17 H56.86 a0.5900000000000001,0.5900000000000001 0 0 0 -0.5900000000000001,0.5900000000000001 v3.75 a0.6000000000000001,0.6000000000000001 0 0 0 0.5900000000000001,0.5900000000000001 H64 V50.65999984741211 H56.86 a0.6000000000000001,0.6000000000000001 0 0 0 -0.5900000000000001,0.6000000000000001 v3.75 a0.6000000000000001,0.6000000000000001 0 0 0 0.5900000000000001,0.5900000000000001 H64 v5.69 H50.540000000000006 V18.14999984741211 L64,29.21999984741211 v3.26 H56.86 A0.5900000000000001,0.5900000000000001 0 0 0 56.269999999999996,33.069999847412106 zM10.84,27.489999847412108 H0 v5 h4.57 a0.5900000000000001,0.5900000000000001 0 0 1 0.6000000000000001,0.5900000000000001 v3.75 a0.6000000000000001,0.6000000000000001 0 0 1 -0.6000000000000001,0.5900000000000001 H0 v4.17 h4.57 a0.5900000000000001,0.5900000000000001 0 0 1 0.6000000000000001,0.5900000000000001 v3.75 a0.6000000000000001,0.6000000000000001 0 0 1 -0.6000000000000001,0.5900000000000001 H0 V50.65999984741211 h4.57 a0.6000000000000001,0.6000000000000001 0 0 1 0.6000000000000001,0.6000000000000001 v3.75 a0.6000000000000001,0.6000000000000001 0 0 1 -0.6000000000000001,0.5900000000000001 H0 v5.69 H10.84 zm35.7,33.81 H14.840000000000003 V1.9999998474121092 a2,2 0 0 1 2,-2 H44.56 a2,2 0 0 1 2,2 v59.3 zM27.82,43.70999984741211 a1.18,1.18 0 0 0 -1.19,-1.18 H22 a1.18,1.18 0 0 0 -1.19,1.18 v4.66 A1.19,1.19 0 0 0 22,49.559999847412115 h4.65 a1.19,1.19 0 0 0 1.19,-1.19 zm0,-11.56 a1.19,1.19 0 0 0 -1.19,-1.19 H22 a1.19,1.19 0 0 0 -1.19,1.19 v4.65 A1.19,1.19 0 0 0 22,37.98999984741211 h4.65 a1.19,1.19 0 0 0 1.19,-1.19 zm0,-11.57 a1.19,1.19 0 0 0 -1.19,-1.19 H22 a1.19,1.19 0 0 0 -1.19,1.19 v4.66 A1.19,1.19 0 0 0 22,26.429999847412113 h4.65 a1.19,1.19 0 0 0 1.19,-1.19 zm0,-11.57 a1.18,1.18 0 0 0 -1.19,-1.18 H22 a1.18,1.18 0 0 0 -1.19,1.18 V13.65999984741211 A1.19,1.19 0 0 0 22,14.859999847412112 h4.65 A1.19,1.19 0 0 0 27.82,13.65999984741211 zM40.6,43.70999984741211 a1.19,1.19 0 0 0 -1.19,-1.18 H34.75 a1.18,1.18 0 0 0 -1.19,1.18 v4.66 a1.19,1.19 0 0 0 1.19,1.19 h4.66 a1.19,1.19 0 0 0 1.19,-1.19 zm0,-11.56 a1.19,1.19 0 0 0 -1.19,-1.19 H34.75 a1.19,1.19 0 0 0 -1.19,1.19 v4.65 a1.19,1.19 0 0 0 1.19,1.19 h4.66 a1.19,1.19 0 0 0 1.19,-1.19 zm0,-11.57 a1.19,1.19 0 0 0 -1.19,-1.19 H34.75 a1.19,1.19 0 0 0 -1.19,1.19 v4.66 a1.19,1.19 0 0 0 1.19,1.19 h4.66 a1.2,1.2 0 0 0 1.19,-1.19 zm0,-11.57 a1.19,1.19 0 0 0 -1.19,-1.18 H34.75 a1.18,1.18 0 0 0 -1.19,1.18 V13.65999984741211 a1.19,1.19 0 0 0 1.19,1.19 h4.66 A1.19,1.19 0 0 0 40.6,13.65999984741211 z" id="svg_1" class="" fill="#e84141" fill-opacity="1"/></g></svg>