<svg xmlns="http://www.w3.org/2000/svg" viewBox="0 0 606 684.65"><defs><style>.cls-1,.cls-3{fill:#e7e7e7;}.cls-1,.cls-2,.cls-3{stroke:#fff;stroke-width:2.5px;}.cls-1,.cls-2{stroke-miterlimit:10;}.cls-2{fill:#ff6f4c;}.cls-3{stroke-linecap:round;stroke-linejoin:round;}</style></defs><g id="Calque_3" data-name="Calque 3"><polygon class="cls-1" points="557.76 191.78 556.56 192.78 551.86 208.08 546.56 216.78 546.46 223.78 543.36 226.38 542.36 227.18 532.96 219.68 527.26 222.18 521.76 218.08 515.36 219.98 507.46 215.18 498.36 221.58 496.86 218.78 493.86 219.98 493.66 216.38 487.46 211.18 489.46 201.58 475.06 190.88 477.76 188.18 485.56 184.38 488.96 184.98 491.16 182.38 497.56 183.08 497.46 186.38 502.06 191.78 508.56 190.98 509.76 187.88 515.76 185.68 518.46 187.58 525.26 186.48 531.16 182.28 532.96 185.18 539.76 187.08 551.66 178.48 553.36 177.98 551.96 189.28 557.76 191.78"/><path class="cls-1" d="M452.16,154.48l-1.3,6.6,3.6,5.1.5,4.6-9.6,2.5,2.5,2.7-2.6,2.6.8,3.2h-5.3l-3.7-1.3-2.8,1.7c-2.2-.8-4.2-1.7-6.4-2.5l-2.9-2.3-.4-6.8-3.5-.6-7.3,1-10.6,8.5v3.7l-10.1-1.3-3.7-5-2.9-1.9-3.9-9.4,2.9-2.5.5-2.2,8.6-11.4-2.8-1.5,1-3-1.9-2.8,6.1-2.5-3.6-9,1.4-3,9-4.5,6,2.1,1.1-3.2,7.5,1.1,11.1,7.4,22.5,2.1,2.5,10.1-1.1,4.6,2.9,1.5-.7,4.4Z"/><path class="cls-1" d="M449.46,209l-6.2,2.8.1,5.4-4.3-.6-5.2,4.4-6.9,1.1-2.5,2.2-3.3-1.6-14.1,1.8-5.7-12.3-4-4.6-2.2,2.5-2.9-9.3-5-6.3-4.1-1.6-.4-9.6,3.3-.9,3.3-5.5,3.7,5,10.1,1.3v-3.7l10.6-8.5,7.3-1,3.5.6.4,6.8,2.9,2.3c2.2.8,4.2,1.7,6.4,2.5l2.8-1.7,3.7,1.3-.7,3.8,2.7,5.9,6.3,3.3.6,11.1Z"/><polygon class="cls-1" points="498.56 223.28 496.06 226.88 492.86 226.38 490.46 229.18 490.16 238.48 486.66 239.68 484.16 237.68 476.86 241.98 475.46 244.78 470.06 246.98 470.06 243.78 466.76 241.98 456.36 239.78 453.76 234.38 456.96 231.68 455.76 228.18 453.76 225.68 450.46 225.38 450.86 222.18 447.96 220.98 447.36 217.98 443.36 217.18 443.26 211.78 449.46 208.98 449.66 205.88 449.06 194.78 442.76 191.48 440.06 185.58 440.76 181.78 446.06 181.78 445.26 178.58 447.86 175.98 445.36 173.28 454.96 170.78 458.76 176.58 477.76 188.18 475.06 190.88 489.46 201.58 487.46 211.18 493.66 216.38 493.86 219.98 496.86 218.78 498.36 221.58 498.56 223.28"/><polygon class="cls-1" points="483.06 265.28 481.76 266.78 479.76 276.08 472.76 283.58 471.56 288.18 454.66 289.78 444.76 294.58 438.56 287.48 432.36 285.38 430.86 282.38 424.46 280.48 421.76 277.68 421.76 276.68 422.16 273.08 417.96 271.78 416.56 264.98 416.66 264.98 415.26 261.98 416.76 252.88 424.26 241.18 422.26 238.68 425.46 236.28 425.86 232.08 422.36 227.68 424.46 224.28 426.96 222.08 433.86 220.98 439.06 216.58 443.36 217.18 447.36 217.98 447.96 220.98 450.86 222.18 450.46 225.38 453.76 225.68 455.76 228.18 456.96 231.68 453.76 234.38 456.36 239.78 466.76 241.98 470.06 243.78 470.06 246.98 475.46 244.78 478.56 242.98 480.86 246.38 481.06 249.98 475.76 254.48 478.66 256.18 483.06 265.28"/><polygon class="cls-1" points="480.96 312.18 477.76 317.78 478.66 323.78 475.56 324.98 470.16 321.28 464.06 322.68 457.46 321.08 450.86 344.48 444.46 335.88 442.66 338.48 439.86 336.78 437.36 338.68 434.96 336.58 432.26 338.78 431.96 342.08 425.56 346.48 423.16 344.08 414.26 345.68 408.46 342.08 408.46 338.68 412.56 333.48 413.16 327.38 411.26 324.68 402.46 321.38 394.96 306.18 402.76 309.38 415.46 302.88 414.66 299.78 416.86 297.28 412.36 289.58 414.66 287.58 414.36 280.98 417.56 279.88 420.46 277.98 421.76 277.68 424.46 280.48 430.86 282.38 432.36 285.38 438.56 287.48 444.76 294.58 454.66 289.78 471.56 288.18 472.06 291.58 481.26 296.48 475.66 300.68 478.46 302.48 480.96 312.18"/><polygon class="cls-1" points="530.66 426.68 530.26 433.18 526.76 431.98 512.56 436.28 511.56 439.38 505.46 440.78 504.36 444.28 497.76 443.28 491.66 438.88 488.36 439.48 487.36 419.78 483.96 421.68 474.76 419.48 471.76 420.68 472.96 413.68 469.26 404.78 463.76 401.88 453.76 405.28 451.36 400.68 451.46 395.68 451.26 394.38 456.26 389.98 454.16 387.18 456.96 384.38 464.66 382.68 467.56 377.18 467.16 369.08 473.96 371.38 477.26 365.58 480.46 364.88 492.96 381.88 500.26 393.78 507.16 393.98 507.56 390.78 518.16 393.18 521.16 400.28 518.56 406.38 519.76 412.48 525.46 414.18 523.76 418.48 525.76 423.18 530.66 426.68"/><polygon class="cls-1" points="451.46 395.68 451.36 400.68 445.86 403.68 442.16 409.18 438.36 409.98 435.86 407.38 432.86 408.48 432.06 402.28 425.36 399.78 418.36 403.18 415.16 403.68 412.66 401.28 409.56 402.28 412.86 394.28 409.86 385.78 404.66 381.68 399.46 372.98 401.86 365.88 399.06 362.78 405.16 357.48 403.46 343.48 404.06 340.08 408.46 338.68 408.46 342.08 414.26 345.68 423.16 344.08 425.56 346.48 431.96 342.08 434.26 345.48 428.86 349.28 427.06 358.98 432.86 366.58 430.96 373.08 433.46 374.98 432.06 377.78 433.36 381.18 438.56 385.78 445.16 388.18 446.16 391.48 451.26 394.38 451.46 395.68"/><polygon class="cls-1" points="456.86 436.48 452.96 441.58 453.96 449.58 450.56 456.18 448.26 472.28 448.36 476.48 441.66 472.68 438.56 472.68 435.66 475.18 435.56 471.58 427.66 476.58 418.86 470.88 415.76 464.18 411.06 454.88 408.76 444.78 416.26 437.48 422.86 435.48 426.66 428.78 430.56 428.38 429.76 425.18 432.76 422.68 434.36 416.78 437.26 418.18 437.26 414.68 438.36 409.98 442.16 409.18 445.86 403.68 451.36 400.68 453.76 405.28 454.26 416.88 458.46 429.58 456.86 436.48"/><polygon class="cls-1" points="438.36 409.98 437.26 414.68 437.26 418.18 434.36 416.78 432.76 422.68 429.76 425.18 430.56 428.38 426.66 428.78 422.86 435.48 416.26 437.48 408.76 444.78 398.56 436.08 395.46 435.78 395.26 439.08 388.06 437.68 386.36 431.28 383.86 429.38 379.96 420.38 383.66 420.18 380.76 418.88 377.06 409.18 370.96 407.48 370.86 402.98 381.66 399.38 391.16 399.48 397.06 403.18 409.56 402.28 412.66 401.28 415.16 403.68 418.36 403.18 425.36 399.78 432.06 402.28 432.86 408.48 435.86 407.38 438.36 409.98"/><polygon class="cls-1" points="505.16 511.88 504.96 512.28 497.46 516.98 493.86 517.28 480.36 511.98 476.46 512.68 471.36 510.08 465.26 503.68 453.56 500.38 458.66 494.88 451.56 487.68 451.36 481.48 448.36 476.48 448.26 472.28 454.86 473.08 458.76 477.88 463.43 475.78 461.24 473.79 460.61 469.15 463.41 467.23 466.57 469.11 468.62 472.44 467.28 474.05 468.56 473.48 471.26 475.08 474.06 472.68 474.66 479.08 485.16 479.98 485.26 483.28 491.06 485.78 493.56 491.88 492.16 495.28 496.36 501.18 494.46 503.98 498.26 505.08 505.16 511.88"/><polygon class="cls-2" points="368.76 137.58 369.36 140.78 366.86 142.68 357.86 145.98 354.96 144.18 352.76 146.58 344.96 145.48 332.86 138.28 330.26 140.08 319.96 137.58 312.86 139.68 306.56 138.48 304.86 134.78 309.26 131.98 305.36 122.48 306.86 113.48 305.36 103.68 308.76 98.48 313.36 102.58 316.96 101.28 333.06 103.68 347.46 111.28 357.06 103.58 368.66 101.98 369.06 113.38 368.16 118.38 370.66 120.48 367.76 121.68 365.06 128.08 362.16 129.98 365.36 135.08 361.96 134.78 362.86 138.08 365.46 136.48 368.76 137.58"/><polygon class="cls-1" points="309.26 131.98 304.86 134.78 300.36 145.48 296.06 145.48 293.56 148.28 295.46 154.78 288.76 162.58 289.06 165.68 282.26 167.18 279.06 165.48 273.16 168.98 266.36 170.18 263.76 173.08 259.86 170.78 261.86 168.18 253.06 157.58 245.96 156.98 245.76 153.48 246.56 150.98 243.86 146.28 245.46 142.98 242.46 132.38 244.96 130.08 241.76 130.08 241.36 120.28 241.36 120.18 243.16 119.58 242.96 119.48 250.36 116.58 258.86 122.18 262.66 121.28 268.16 124.68 266.16 127.48 268.46 129.78 274.46 132.48 276.06 129.48 285.26 126.68 290.66 118.68 305.36 122.48 309.26 131.98"/><path class="cls-3" d="M345.26,147.78l-1.9,2.6h-.1c-.8.6-1.6,1.1-2.3,1.6-1,.7-2,1.5-3,2.1l-2.9-1.2-3.7,1.6-4,2.8h-.1l-6.1-6.8-10.2-4-10.6-1,4.5-10.7,1.7,3.7,6.3,1.2,7.1-2.1,10.3,2.5,2.6-1.8,12.1,7.2Z"/><polygon class="cls-3" points="333.26 163.68 332.76 168.28 328.66 166.58 328.56 166.58 325.06 160.78 327.26 157.28 327.36 157.28 331.36 154.48 332.86 156.58 332.76 157.78 329.86 159.68 333.26 163.68"/><polygon class="cls-3" points="345.46 167.58 344.26 172.28 341.66 169.68 338.56 170.68 332.76 168.28 333.26 163.68 339.16 163.58 337.16 161.48 345.16 164.38 345.46 167.58"/><path class="cls-3" d="M343.66,159l1.5,5.3v.1l-8-2.9-.8-3.1-3.6-.6.1-1.2-1.5-2.1,3.7-1.6,2.9,1.2c1-.6,2-1.4,3-2.1.7-.5,1.5-1,2.3-1.6l1.9,5.8Z"/><polygon class="cls-3" points="344.76 173.28 340.36 192.78 336.56 198.08 332.36 197.48 329.26 199.38 327.56 196.38 325.36 199.58 317.66 200.38 317.56 200.38 314.46 188.48 319.66 178.78 318.96 175.58 320.66 172.68 328.56 166.58 328.66 166.58 332.76 168.28 338.56 170.68 341.66 169.68 344.26 172.28 344.76 173.28"/><polygon class="cls-1" points="263.96 217.28 264.36 223.48 257.36 235.38 253.76 236.58 253.06 240.48 253.06 240.58 244.46 245.58 241.26 245.28 241.86 248.88 234.96 245.98 226.66 245.98 220.86 242.28 217.36 243.68 215.06 241.48 214.86 237.58 207.36 237.68 206.76 234.68 206.66 234.68 204.96 228.48 211.16 219.78 209.56 215.88 215.16 210.78 213.76 207.48 218.76 203.08 218.46 195.28 223.26 192.18 226.66 192.28 239.06 185.68 242.16 187.38 243.86 196.88 252.06 202.48 255.26 201.28 258.76 205.28 262.36 206.08 264.76 210.28 264.26 212.38 262.06 214.68 263.96 217.28"/><polygon class="cls-1" points="364.06 229.28 365.36 232.58 363.56 235.18 357.66 238.98 360.96 242.08 363.46 249.88 360.36 250.68 358.66 253.38 348.46 255.18 344.16 249.88 328.96 246.38 328.06 243.38 310.96 241.68 308.96 244.18 305.66 243.48 304.36 239.28 301.76 237.68 298.36 239.08 296.46 232.68 298.36 229.28 295.56 221.18 295.66 221.18 295.36 218.08 302.16 214.88 311.66 214.28 317.06 202.08 317.66 200.38 325.36 199.58 327.56 196.38 329.26 199.38 332.36 197.48 336.56 198.08 337.26 201.48 341.96 206.28 341.36 209.38 338.46 211.08 348.76 211.88 361.26 208.88 368.86 217.28 369.26 223.78 364.06 229.28"/><polygon class="cls-3" points="386.06 182.38 382.76 183.28 383.16 192.88 365.96 196.28 365.66 202.78 361.26 208.88 348.76 211.88 338.46 211.08 341.36 209.38 341.96 206.28 337.26 201.48 336.56 198.08 340.36 192.78 344.76 173.28 344.26 172.28 345.46 167.58 345.16 164.38 345.16 164.28 343.66 158.98 345.16 156.18 343.26 150.38 343.36 150.38 345.26 147.78 344.96 145.48 352.76 146.58 354.96 144.18 357.86 145.98 366.86 142.68 369.86 143.48 371.86 146.28 371.16 149.48 375.56 154.08 385.96 160.88 385.46 163.08 382.56 165.58 386.46 174.98 389.36 176.88 386.06 182.38"/><polygon class="cls-1" points="425.46 236.28 422.26 238.68 424.26 241.18 416.76 252.88 415.26 261.98 416.66 264.98 416.56 264.98 410.36 265.48 408.76 262.28 405.66 263.28 404.56 259.18 398.06 260.18 391.86 256.88 387.56 250.58 382.36 255.28 375.66 255.28 367.26 249.98 363.46 249.98 363.46 249.88 360.96 242.08 357.66 238.98 363.56 235.18 365.36 232.58 364.06 229.28 369.26 223.78 368.86 217.28 361.26 208.88 365.66 202.78 365.96 196.28 383.16 192.88 387.26 194.48 392.26 200.78 395.16 210.08 397.36 207.58 401.36 212.18 407.06 224.48 421.16 222.68 424.46 224.28 422.36 227.68 425.86 232.08 425.46 236.28"/><polygon class="cls-1" points="223.36 188.78 223.36 192.08 223.26 192.18 218.46 195.28 218.76 203.08 213.76 207.48 215.16 210.78 209.56 215.88 211.16 219.78 204.96 228.48 206.66 234.68 200.96 232.68 194.36 235.88 190.96 235.38 181.16 231.28 178.76 233.48 167.06 229.58 171.06 219.88 177.26 217.38 175.06 197.88 176.86 195.28 176.96 181.58 186.56 182.58 186.66 182.58 190.36 186.68 193.06 184.88 195.86 186.78 203.46 183.18 213.66 183.18 214.46 180.08 217.46 180.38 219.66 187.08 223.36 188.78"/><polygon class="cls-1" points="234.96 245.98 234.16 248.78 232.26 259.18 225.76 276.38 225.86 276.38 218.36 283.18 215.86 280.48 204.96 280.78 198.66 281.68 194.56 286.98 180.76 287.88 168.76 283.58 168.36 280.28 165.26 278.68 168.36 273.68 167.46 270.58 163.46 265.28 160.06 264.38 163.26 261.88 179.36 259.48 179.06 252.88 169.46 249.18 171.56 246.48 174.76 246.88 166.46 231.88 167.06 229.58 178.76 233.48 181.16 231.28 190.96 235.38 194.36 235.88 200.96 232.68 206.66 234.68 206.76 234.68 207.36 237.68 214.86 237.58 215.06 241.48 217.36 243.68 220.86 242.28 226.66 245.98 234.96 245.98"/><polygon class="cls-1" points="231.66 347.38 230.66 350.58 230.56 350.58 229.76 351.38 225.66 350.88 219.26 353.78 218.96 357.08 215.86 358.88 211.86 353.68 192.26 346.08 185.66 338.78 185.66 334.58 195.86 329.58 193.06 327.38 193.36 319.08 187.96 298.88 183.26 294.28 180.76 287.88 194.56 286.98 198.66 281.68 204.96 280.78 215.86 280.48 218.36 283.18 222.16 293.18 221.26 296.58 224.26 297.88 219.26 313.68 222.26 312.78 223.96 316.18 220.06 322.38 220.76 328.88 223.06 331.08 223.06 334.28 230.16 334.48 226.56 343.98 231.66 347.38"/><polygon class="cls-1" points="265.86 358.68 265.16 362.28 262.26 363.48 257.76 372.48 254.66 373.08 250.86 377.38 250.86 377.48 244.56 384.28 242.16 390.28 233.36 396.88 232.46 403.28 227.86 409.78 221.76 410.58 219.46 412.78 212.36 405.68 205.66 404.28 207.56 400.98 205.06 398.68 207.66 396.78 205.96 393.78 207.96 390.88 205.16 389.08 204.86 385.68 199.26 382.18 201.76 379.88 198.16 373.48 207.26 369.78 209.76 372.08 212.86 371.88 215.86 358.88 218.96 357.08 219.26 353.78 225.66 350.88 229.76 351.38 230.56 350.58 230.66 350.58 240.86 353.88 244.16 352.98 242.56 350.28 245.06 348.18 249.66 352.58 253.96 350.98 255.36 348.18 260.76 348.98 260.56 354.68 265.86 358.68"/><polygon class="cls-1" points="261.86 472.48 261.86 475.78 264.56 477.28 259.66 483.48 261.16 486.58 257.86 486.28 253.96 491.58 250.96 493.08 241.26 491.88 235.66 495.18 226.36 494.38 224.76 497.18 220.56 496.48 219.86 493.58 223.86 487.68 210.76 484.48 210.26 479.28 215.36 474.78 213.66 472.08 217.06 469.48 217.66 459.48 227.26 449.68 223.96 448.18 225.16 444.58 228.26 445.48 229.56 442.68 233.06 442.88 236.16 449.98 246.16 449.48 249.36 447.18 251.76 449.18 258.66 447.98 260.36 454.88 266.36 451.78 271.16 456.48 267.36 459.98 270.36 470.28 261.86 472.48"/><polygon class="cls-1" points="422.16 273.08 421.76 276.68 421.76 277.68 420.46 277.98 417.46 278.28 417.56 279.88 414.36 280.98 414.66 287.58 412.36 289.58 416.86 297.28 414.66 299.78 415.46 302.88 402.76 309.38 394.96 306.18 388.26 312.98 383.36 308.78 380.16 310.68 373.06 310.58 366.56 303.38 368.06 293.48 368.36 286.88 365.76 284.68 365.46 277.98 361.96 269.48 358.96 267.08 360.86 260.68 358.66 253.38 360.36 250.68 363.46 249.88 363.46 249.98 367.26 249.98 375.66 255.28 382.36 255.28 387.56 250.58 391.86 256.88 398.06 260.18 404.56 259.18 405.66 263.28 408.76 262.28 410.36 265.48 416.56 264.98 417.96 271.78 422.16 273.08"/><polygon class="cls-1" points="368.36 286.88 368.06 293.48 366.56 303.38 361.96 303.38 356.66 307.58 347.16 310.88 344.66 312.98 346.56 318.98 344.66 321.68 334.76 322.78 330.86 329.38 330.86 329.48 325.36 329.28 327.06 325.28 326.06 315.28 320.86 306.48 322.36 303.48 319.76 300.88 322.56 295.18 319.96 282.08 307.06 280.28 310.06 274.08 313.26 274.18 313.96 271.08 324.86 268.78 322.56 262.18 329.16 257.58 323.36 248.98 328.96 246.38 344.16 249.88 348.46 255.18 358.66 253.38 360.86 260.68 358.96 267.08 361.96 269.48 365.46 277.98 365.76 284.68 368.36 286.88"/><path class="cls-1" d="M413.16,327.38l-.6,6.1-4.1,5.2-4.4,1.4-.6,3.4,1.7,14-6.1,5.3-4.1-4.7-7.2-.5-1.4-3.6-14.8-.5-1.8-2.8-3.7.5-5-5,1.4-3.2-2.6-2-12.5,9.1-2.9-1.4-4-9.4c-2.8-1.8-5.5-3.6-8.3-5.5l-1.3-4.3v-.1l3.9-6.6,9.9-1.1,1.9-2.7-1.9-6,2.5-2.1,9.5-3.3,5.3-4.2h4.6l6.5,7.2,7.1.1,3.2-1.9,4.9,4.2,6.7-6.8,7.5,15.2,8.8,3.3Z"/><path class="cls-1" d="M336.06,370.48l5,6.2-2.7,2.7-3.1-.9-2.5,2.9-12.6-5.8-7.9,3.8-.7-6.7-5.3-3.3-7.2-.5-.1-3.3-3.2-1.6.9-3.9-1.9-5.8-7.5-11,3.4-6-1.3-2.9,3.1-3.3,12.9-1.1,2.2-2.8,14.8,3,3-.9,5.5.2,1.3,4.3c2.8,1.9,5.5,3.7,8.3,5.5l4,9.4-.5,4.6,2.5,7.6Z"/><polygon class="cls-1" points="412.86 394.28 409.56 402.28 397.06 403.18 391.16 399.48 381.66 399.38 370.86 402.98 366.76 407.68 359.46 401.58 351.96 401.28 350.26 398.38 341.86 394.58 340.46 385.68 342.36 382.88 341.06 376.68 336.06 370.48 346.46 360.88 343.96 353.28 344.46 348.68 347.36 350.08 359.86 340.98 362.46 342.98 361.06 346.18 366.06 351.18 369.76 350.68 371.56 353.48 386.36 353.98 387.76 357.58 394.96 358.08 399.06 362.78 401.86 365.88 399.46 372.98 404.66 381.68 409.86 385.78 412.86 394.28"/><polygon class="cls-1" points="327.06 325.28 325.36 329.28 322.36 330.18 307.56 327.18 305.36 329.98 292.46 331.08 289.36 334.38 287.36 331.68 280.86 332.88 278.06 331.58 279.76 328.48 276.86 327.08 273.96 320.88 270.66 320.88 265.56 316.08 266.36 309.48 263.96 306.08 270.36 305.58 269.26 302.58 272.86 289.18 278.66 286.18 281.26 288.08 284.16 284.08 286.96 281.78 285.86 276.28 292.66 272.68 295.36 274.08 297.16 271.18 304.26 270.18 310.06 274.08 307.06 280.28 319.96 282.08 322.56 295.18 319.76 300.88 322.36 303.48 320.86 306.48 326.06 315.28 327.06 325.28"/><polygon class="cls-1" points="312.26 379.38 302.36 383.78 297.06 389.08 290.56 390.48 285.26 394.88 282.46 393.68 280.76 396.68 274.26 394.18 276.46 391.18 268.46 384.88 257.86 386.08 257.86 380.78 250.86 377.38 254.66 373.08 257.76 372.48 262.26 363.48 265.16 362.28 265.86 358.68 260.56 354.68 260.76 348.98 260.76 345.08 264.16 339.38 270.56 336.38 271.86 332.98 275.66 333.98 277.06 331.28 278.06 331.58 280.86 332.88 287.36 331.68 289.36 334.38 290.66 337.28 287.26 343.28 294.76 354.28 296.66 360.08 295.76 363.98 298.96 365.58 299.06 368.88 306.26 369.38 311.56 372.68 312.26 379.38"/><polygon class="cls-1" points="342.66 401.28 335.66 399.08 334.96 402.98 326.36 413.68 328.46 416.18 325.86 418.28 325.56 422.18 322.06 423.38 323.76 427.18 320.06 429.28 312.46 429.18 306.56 432.08 298.96 425.28 289.86 426.18 286.06 418.28 282.36 417.48 282.16 414.18 279.56 412.48 281.86 410.38 279.86 407.18 283.86 401.98 280.76 396.68 282.46 393.68 285.26 394.88 290.56 390.48 297.06 389.08 302.36 383.78 312.26 379.38 320.16 375.58 332.76 381.38 335.26 378.48 338.36 379.38 341.06 376.68 342.36 382.88 340.46 385.68 341.86 394.58 342.66 401.28"/><polygon class="cls-1" points="383.86 429.38 382.66 430.48 375.06 436.88 373.06 434.28 365.36 452.18 362.46 446.38 362.96 442.98 360.36 441.28 358.96 436.48 353.06 432.08 347.76 436.78 344.36 446.88 340.06 452.38 332.96 450.68 327.06 454.28 323.46 448.68 325.36 442.18 321.16 435.48 320.06 429.28 323.76 427.18 322.06 423.38 325.56 422.18 325.86 418.28 328.46 416.18 326.36 413.68 334.96 402.98 335.66 399.08 342.66 401.28 341.86 394.58 350.26 398.38 351.96 401.28 359.46 401.58 366.76 407.68 370.86 402.98 370.96 407.48 377.06 409.18 380.76 418.88 383.66 420.18 379.96 420.38 383.86 429.38"/><polygon class="cls-1" points="327.06 454.28 325.26 455.98 318.56 457.48 309.96 463.08 310.86 473.38 303.96 474.18 295.56 480.48 292.56 477.88 282.76 480.58 282.26 476.28 279.56 477.88 276.46 476.68 271.36 472.28 273.86 469.68 270.36 470.28 267.36 459.98 271.16 456.48 276.36 449.28 283.26 445.38 282.46 441.38 287.56 437.78 289.16 431.78 289.86 426.18 298.96 425.28 306.56 432.08 312.46 429.18 320.06 429.28 321.16 435.48 325.36 442.18 323.46 448.68 327.06 454.28"/><polygon class="cls-1" points="316.16 486.48 305.76 490.08 302.86 488.88 299.36 490.08 301.46 492.58 300.36 495.58 294.86 499.18 294.36 502.28 281.26 507.18 283.76 509.78 277.16 512.58 275.36 509.98 264.16 510.98 261.86 503.28 256.26 498.68 259.86 493.48 253.96 491.58 257.86 486.28 261.16 486.58 259.66 483.48 264.56 477.28 261.86 475.78 261.86 472.48 270.36 470.28 273.86 469.68 271.36 472.28 276.46 476.68 279.56 477.88 282.26 476.28 282.76 480.58 292.56 477.88 295.56 480.48 303.96 474.18 310.86 473.38 310.96 473.38 310.46 476.68 313.96 479.78 311.26 482.48 316.16 486.48"/><polygon class="cls-1" points="384.26 500.88 384.66 502.48 380.36 503.68 377.06 509.58 370.06 508.18 369.86 517.98 363.46 517.88 362.06 514.78 349.56 513.28 344.76 507.58 340.06 494.58 334.56 489.88 323.06 483.28 316.16 486.48 311.26 482.48 313.96 479.78 310.46 476.68 310.96 473.38 310.86 473.38 309.96 463.08 318.56 457.48 325.26 455.98 327.06 454.28 332.96 450.68 340.06 452.38 344.36 446.88 347.76 436.78 353.06 432.08 358.96 436.48 360.36 441.28 362.96 442.98 362.46 446.38 365.36 452.18 365.36 452.28 370.16 457.28 373.36 467.18 372.76 476.98 374.46 479.68 385.06 484.68 382.76 489.08 379.66 490.38 389.16 494.98 384.26 500.88"/><polygon class="cls-1" points="413.56 481.38 415.16 484.68 408.16 486.78 398.36 484.18 398.16 487.98 393.86 488.58 385.06 484.68 374.46 479.68 372.76 476.98 373.36 467.18 370.16 457.28 365.36 452.28 365.36 452.18 373.06 434.28 375.06 436.88 382.66 430.48 383.86 429.38 386.36 431.28 388.06 437.68 395.26 439.08 395.46 435.78 398.56 436.08 408.76 444.78 411.06 454.88 415.76 464.18 414.56 466.48 410.46 469.48 414.96 478.08 413.56 481.38"/><path class="cls-1" d="M355.86,522.78l-6.8-2.4.8,10.8-1,3.4-3.8,2.3-13.4-1.6-3.3.6-1.2,3.7-7.1-1-2-2.6-1.1-3.2-16.1-10.5.9-6-2.7-2.3-.2-3.2-2.9-1.4-1.6-7.1.5-3.1,5.5-3.6,1.1-3-2.1-2.5,3.5-1.2,2.9,1.2,10.4-3.6,6.9-3.2,11.5,6.6,5.5,4.7,4.7,13,4.8,5.7,12.5,1.5,1.4,3.1C361,519.48,358.46,521.08,355.86,522.78Z"/><polygon class="cls-1" points="274.36 525.98 267.06 532.78 266.26 539.28 253.56 536.48 249.56 542.48 246.06 543.78 232.16 541.28 230.56 537.88 224.36 538.58 221.46 528.78 217.86 527.28 215.56 523.38 211.16 523.98 211.16 523.88 203.76 523.58 201.96 520.48 206.76 508.08 206.16 500.88 216.66 497.88 217.36 501.18 220.26 499.78 220.56 496.48 224.76 497.18 226.36 494.38 235.66 495.18 241.26 491.88 250.96 493.08 253.96 491.58 259.86 493.48 256.26 498.68 261.86 503.28 264.16 510.98 274.36 525.98"/><polygon class="cls-1" points="279.76 328.48 278.06 331.58 277.06 331.28 275.66 333.98 271.86 332.98 270.56 336.38 264.16 339.38 260.76 345.08 260.76 348.98 255.36 348.18 253.96 350.98 249.66 352.58 245.06 348.18 242.56 350.28 244.16 352.98 240.86 353.88 230.66 350.58 231.66 347.38 226.56 343.98 230.16 334.48 223.06 334.28 223.06 331.08 220.76 328.88 220.06 322.38 223.96 316.18 222.26 312.78 219.26 313.68 224.26 297.88 221.26 296.58 222.16 293.18 218.36 283.18 225.86 276.38 231.96 279.98 232.26 283.58 235.56 283.28 236.96 290.18 240.16 291.78 251.36 291.28 249.76 287.98 255.76 291.38 256.06 294.88 263.96 306.08 266.36 309.48 265.56 316.08 270.66 320.88 273.96 320.88 276.86 327.08 279.76 328.48"/><polygon class="cls-3" points="317.66 200.38 317.06 202.08 311.66 214.28 302.16 214.88 295.36 218.08 295.66 221.18 295.56 221.18 291.86 219.08 285.76 222.98 271.36 210.88 264.26 212.38 264.76 210.28 262.36 206.08 261.16 197.58 269.56 191.88 269.06 186.68 269.16 181.58 263.86 176.78 263.76 173.08 266.36 170.18 273.16 168.98 279.06 165.48 282.26 167.18 289.06 165.68 288.76 162.58 295.46 154.78 299.56 162.28 300.16 174.48 307.06 180.48 308.46 186.78 310.96 189.28 314.46 188.48 317.56 200.38 317.66 200.38"/><polygon class="cls-3" points="261.16 197.58 262.36 206.08 258.76 205.28 255.26 201.28 252.06 202.48 243.86 196.88 242.16 187.38 239.06 185.68 226.66 192.28 223.26 192.18 223.36 192.08 223.36 188.78 219.66 187.08 217.46 180.38 214.46 180.08 213.66 183.18 203.46 183.18 195.86 186.78 193.06 184.88 190.36 186.68 186.66 182.58 190.66 177.58 192.76 169.98 188.16 165.28 194.16 161.98 195.16 159.08 198.26 160.48 205.36 157.88 210.96 161.28 213.76 159.28 220.26 160.58 223.56 160.18 231.56 154.08 239.46 152.28 245.76 153.48 245.96 156.98 253.06 157.58 261.86 168.18 259.86 170.78 263.76 173.08 263.86 176.78 269.16 181.58 269.06 186.68 269.56 191.88 261.16 197.58"/><polygon class="cls-3" points="322.56 262.18 324.86 268.78 313.96 271.08 313.26 274.18 310.06 274.08 304.26 270.18 297.16 271.18 295.36 274.08 292.66 272.68 285.86 276.28 281.16 268.78 278.16 270.18 275.56 268.08 276.86 257.88 273.06 252.08 273.86 248.98 267.06 245.28 264.56 247.28 264.86 241.18 253.06 240.58 253.06 240.48 253.76 236.58 257.36 235.38 264.36 223.48 263.96 217.28 262.06 214.68 264.26 212.38 271.36 210.88 285.76 222.98 291.86 219.08 295.56 221.18 298.36 229.28 296.46 232.68 298.36 239.08 301.76 237.68 304.36 239.28 305.66 243.48 308.96 244.18 310.96 241.68 328.06 243.38 328.96 246.38 323.36 248.98 329.16 257.58 322.56 262.18"/><polygon class="cls-3" points="320.66 172.68 318.96 175.58 319.66 178.78 314.46 188.48 310.96 189.28 308.46 186.78 307.06 180.48 300.16 174.48 299.56 162.28 295.46 154.78 293.56 148.28 296.06 145.48 300.36 145.48 310.96 146.48 321.16 150.48 327.26 157.28 325.06 160.78 328.56 166.58 320.66 172.68"/><polygon class="cls-3" points="286.96 281.78 284.16 284.08 281.26 288.08 278.66 286.18 272.86 289.18 269.26 302.58 270.36 305.58 263.96 306.08 256.06 294.88 255.76 291.38 249.76 287.98 251.36 291.28 240.16 291.78 236.96 290.18 235.56 283.28 232.26 283.58 231.96 279.98 225.86 276.38 225.76 276.38 232.26 259.18 234.16 248.78 234.96 245.98 241.86 248.88 241.26 245.28 244.46 245.58 253.06 240.58 264.86 241.18 264.56 247.28 267.06 245.28 273.86 248.98 273.06 252.08 276.86 257.88 275.56 268.08 278.16 270.18 281.16 268.78 285.86 276.28 286.96 281.78"/><polygon class="cls-3" points="413.96 82.28 413.96 82.18 396.36 77.48 390.56 79.48 387.86 77.58 384.96 80.08 370.86 80.68 367.16 77.78 371.16 65.78 369.06 63.18 365.76 62.78 366.46 59.68 362.16 53.78 365.66 51.98 361.26 46.08 354.66 44.98 355.76 38.18 354.36 35.28 352.46 37.78 339.36 37.28 334.76 32.58 335.56 29.38 329.36 26.48 321.86 12.08 340.06 7.58 343.26 9.48 346.06 16.18 344.96 22.68 346.36 25.68 350.06 25.68 353.26 31.48 356.66 32.98 362.86 28.68 369.46 28.08 373.76 33.08 373.26 36.38 376.76 45.88 380.26 47.18 383.56 44.68 384.76 47.78 390.86 49.18 393.36 59.38 395.76 57.18 401.96 58.68 408.76 57.38 413.26 62.98 416.46 62.28 414.16 69.48 417.56 75.48 413.96 82.28"/><polygon class="cls-3" points="417.66 94.18 419.26 97.58 413.56 105.68 410.46 106.08 410.86 122.08 409.76 125.28 403.76 123.18 394.76 127.68 393.36 130.68 396.96 139.68 390.86 142.18 392.76 144.98 391.76 147.98 394.56 149.48 385.96 160.88 375.56 154.08 371.16 149.48 371.86 146.28 369.86 143.48 366.86 142.68 369.36 140.78 368.76 137.58 365.46 136.48 362.86 138.08 361.96 134.78 365.36 135.08 362.16 129.98 365.06 128.08 367.76 121.68 370.66 120.48 368.16 118.38 369.06 113.38 368.66 101.98 366.06 93.98 370.36 84.98 370.86 80.68 384.96 80.08 387.86 77.58 390.56 79.48 396.36 77.48 413.96 82.18 413.76 82.58 417.96 83.98 418.26 83.78 419.26 90.28 417.66 94.18"/><polygon class="cls-3" points="470.66 105.78 468.66 107.18 466.36 110.18 459.96 107.88 457.76 110.18 458.76 119.98 455.16 125.68 456.66 128.48 451.96 132.58 451.96 132.68 429.46 130.58 418.36 123.18 410.86 122.08 410.46 106.08 413.56 105.68 419.26 97.58 417.66 94.18 419.26 90.28 418.26 83.78 421.46 83.08 427.56 85.08 437.36 80.68 439.26 73.48 443.86 68.58 446.86 70.48 443.96 76.08 443.96 80.68 447.16 87.18 446.06 94.48 452.76 94.28 460.26 100.98 467.06 102.58 467.06 106.18 470.66 105.78"/><polygon class="cls-3" points="491.46 148.68 488.96 164.08 490.36 173.78 488.56 176.98 491.36 179.28 491.16 182.38 488.96 184.98 485.56 184.38 477.76 188.18 458.76 176.58 454.96 170.78 454.46 166.18 450.86 161.08 452.16 154.48 455.56 153.28 456.26 148.88 453.36 147.38 454.46 142.78 451.96 132.68 451.96 132.58 456.66 128.48 455.16 125.68 458.76 119.98 457.76 110.18 459.96 107.88 466.36 110.18 468.66 107.18 470.66 105.78 474.56 113.98 474.86 113.98 476.26 119.98 482.36 117.58 487.26 123.08 488.66 126.08 486.96 132.68 492.46 145.58 491.46 148.68"/><polygon class="cls-3" points="553.36 177.98 551.66 178.48 539.76 187.08 532.96 185.18 531.16 182.28 525.26 186.48 518.46 187.58 515.76 185.68 509.76 187.88 508.56 190.98 502.06 191.78 497.46 186.38 497.56 183.08 491.16 182.38 491.36 179.28 488.56 176.98 490.36 173.78 488.96 164.08 491.46 148.68 492.46 145.58 486.96 132.68 488.66 126.08 487.26 123.08 482.36 117.58 476.26 119.98 474.86 113.98 480.86 113.08 482.26 109.98 489.96 109.98 493.96 113.38 496.66 123.98 499.46 125.78 500.76 129.78 499.06 133.18 500.16 139.48 496.86 139.68 501.86 148.08 514.76 152.58 514.26 155.78 517.36 161.58 526.86 163.28 532.86 167.48 548.96 173.58 551.26 176.58 553.36 177.98"/><polygon class="cls-3" points="574.26 139.48 572.76 144.18 571.16 147.08 561.06 147.38 550.96 142.18 549.96 139.08 544.46 151.18 550.56 153.98 548.76 156.78 551.36 158.58 552.96 155.78 556.06 156.18 561.06 159.98 557.66 174.98 555.16 176.88 551.26 176.58 548.96 173.58 532.86 167.48 526.86 163.28 517.36 161.58 514.26 155.78 514.76 152.58 501.86 148.08 496.86 139.68 500.16 139.48 499.06 133.18 500.76 129.78 499.46 125.78 496.66 123.98 493.96 113.38 499.66 115.98 502.86 115.78 507.76 111.98 520.26 114.78 523.56 117.08 525.46 123.68 534.46 133.98 537.56 134.68 537.86 131.48 541.06 129.68 544.46 131.28 546.96 135.68 549.76 134.28 557.56 135.58 564.66 130.98 574.06 139.38 574.26 139.48"/><polygon class="cls-3" points="600.16 143.38 595.76 155.28 583.96 170.68 582.36 188.28 575.76 203.58 571.16 201.38 570.76 198.38 561.26 191.98 557.76 191.78 551.96 189.28 553.36 177.98 551.26 176.58 555.16 176.88 557.66 174.98 561.06 159.98 556.06 156.18 552.96 155.78 551.36 158.58 548.76 156.78 550.56 153.98 544.46 151.18 549.96 139.08 550.96 142.18 561.06 147.38 571.16 147.08 572.76 144.18 574.26 139.48 574.26 139.38 590.56 139.98 600.16 143.38"/><polygon class="cls-3" points="578.06 241.48 575.56 243.78 575.36 247.28 572.06 247.38 571.56 250.88 568.56 251.98 559.96 251.88 560.86 248.58 557.56 247.88 557.96 247.68 555.56 241.98 552.46 242.18 551.96 232.08 543.36 226.38 546.46 223.78 546.56 216.78 551.86 208.08 556.56 192.78 557.76 191.78 561.26 191.98 570.76 198.38 571.16 201.38 575.76 203.58 575.66 203.88 577.86 215.48 574.86 232.78 578.06 241.48"/><polygon class="cls-3" points="542.56 244.58 542.46 244.58 535.76 243.78 535.26 246.88 531.66 247.38 529.56 249.78 526.46 248.88 520.16 250.98 516.86 256.28 491.76 267.78 485.66 267.68 483.06 265.28 478.66 256.18 475.76 254.48 481.06 249.98 480.86 246.38 478.56 242.98 475.46 244.78 476.86 241.98 484.16 237.68 486.66 239.68 490.16 238.48 490.46 229.18 492.86 226.38 496.06 226.88 498.56 223.28 498.36 221.58 507.46 215.18 515.36 219.98 521.76 218.08 527.26 222.18 532.96 219.68 542.36 227.18 539.76 233.48 542.56 244.58"/><polygon class="cls-3" points="557.96 247.68 553.56 248.18 553.56 248.38 553.26 248.38 549.16 252.88 547.86 250.38 549.36 247.58 542.56 244.58 539.76 233.48 542.36 227.18 543.36 226.38 551.96 232.08 552.46 242.18 555.56 241.98 557.96 247.68"/><polygon class="cls-3" points="550.16 262.88 550.36 266.08 537.26 282.38 527.56 288.98 528.46 299.88 515.36 311.98 514.36 315.48 510.96 311.98 514.96 303.58 517.36 300.98 512.56 296.48 509.36 295.88 502.96 284.58 499.46 285.48 497.76 282.58 495.56 285.08 494.26 282.18 497.56 276.38 491.76 267.78 516.86 256.28 520.16 250.98 526.46 248.88 529.56 249.78 531.66 247.38 535.26 246.88 535.76 243.78 542.46 244.58 542.56 244.58 549.36 247.58 547.86 250.38 549.16 252.88 548.96 253.18 547.86 256.48 552.76 260.58 550.16 262.88"/><polygon class="cls-3" points="514.96 303.58 510.96 311.98 514.36 315.48 511.36 325.58 511.56 325.68 506.26 333.08 500.16 336.68 495.76 336.88 495.26 333.78 491.56 331.98 487.06 336.88 483.76 337.08 483.66 333.68 480.36 333.68 475.56 324.98 478.66 323.78 477.76 317.78 480.96 312.18 478.46 302.48 475.66 300.68 481.26 296.48 472.06 291.58 471.56 288.18 472.76 283.58 479.76 276.08 481.76 266.78 483.06 265.28 485.66 267.68 491.76 267.78 497.56 276.38 494.26 282.18 495.56 285.08 497.76 282.58 499.46 285.48 502.96 284.58 509.36 295.88 512.56 296.48 517.36 300.98 514.96 303.58"/><polygon class="cls-3" points="467.56 377.18 464.66 382.68 456.96 384.38 454.16 387.18 456.26 389.98 451.26 394.38 446.16 391.48 445.16 388.18 438.56 385.78 433.36 381.18 432.06 377.78 433.46 374.98 430.96 373.08 432.86 366.58 427.06 358.98 428.86 349.28 434.26 345.48 431.96 342.08 432.26 338.78 434.96 336.58 437.36 338.68 439.86 336.78 442.66 338.48 444.46 335.88 450.86 344.48 449.16 353.48 452.66 363.88 455.86 363.28 459.96 369.68 467.16 369.08 467.56 377.18"/><polygon class="cls-3" points="515.46 327.98 514.06 335.78 507.76 339.78 507.16 345.38 507.16 345.48 507.46 345.38 504.36 348.68 501.06 348.68 501.96 359.08 501.96 359.18 499.36 374.38 492.96 381.88 480.46 364.88 477.26 365.58 473.96 371.38 467.16 369.08 459.96 369.68 455.86 363.28 452.66 363.88 449.16 353.48 450.86 344.48 457.46 321.08 464.06 322.68 470.16 321.28 475.56 324.98 480.36 333.68 483.66 333.68 483.76 337.08 487.06 336.88 491.56 331.98 495.26 333.78 495.76 336.88 500.16 336.68 506.26 333.08 511.56 325.68 515.46 327.98"/><polygon class="cls-3" points="559.56 355.08 558.56 358.58 549.26 367.58 549.06 367.78 549.06 367.98 546.56 369.68 539.76 367.18 537.26 365.08 537.86 361.68 535.06 359.88 524.56 375.58 519.36 371.58 515.76 370.58 512.76 372.38 509.46 370.48 508.06 367.68 504.96 366.68 501.96 359.18 501.96 359.08 501.06 348.68 504.36 348.68 507.46 345.38 514.96 344.38 522.86 338.38 520.16 334.88 523.26 328.38 527.26 329.98 532.86 325.28 542.26 324.68 546.06 325.38 545.56 328.58 549.66 334.68 547.06 341.58 555.86 349.88 559.56 355.08"/><polygon class="cls-3" points="565.86 398.18 567.16 401.18 564.96 405.18 543.26 414.48 536.46 415.88 534.26 418.08 525.46 414.18 519.76 412.48 518.56 406.38 521.16 400.28 518.16 393.18 507.56 390.78 507.16 393.98 500.26 393.78 492.96 381.88 499.36 374.38 501.96 359.18 504.96 366.68 508.06 367.68 509.46 370.48 512.76 372.38 515.76 370.58 519.36 371.58 524.56 375.58 535.06 359.88 537.86 361.68 537.26 365.08 539.76 367.18 546.56 369.68 549.06 367.98 549.56 371.38 552.86 374.38 559.06 376.88 558.36 380.38 560.76 386.58 569.06 392.28 565.86 398.18"/><polygon class="cls-3" points="566.86 442.48 562.86 442.38 560.76 444.78 560.66 444.88 560.56 445.08 553.86 448.78 543.66 460.28 531.26 456.48 527.06 461.18 526.26 465.48 522.36 460.38 518.56 461.28 512.66 465.78 511.06 475.48 506.66 474.18 510.56 479.68 506.36 478.48 499.66 480.08 499.86 474.78 488.66 468.48 486.96 465.38 490.56 459.78 495.26 461.38 498.06 458.48 494.66 455.98 497.46 448.38 503.96 447.98 504.36 444.28 505.46 440.78 511.56 439.38 512.56 436.28 526.76 431.98 530.26 433.18 530.66 426.68 525.76 423.18 523.76 418.48 525.46 414.18 534.26 418.08 536.46 415.88 543.26 414.48 543.36 414.48 545.86 420.38 548.96 420.48 549.96 427.88 555.76 431.58 562.56 431.98 566.86 442.48"/><polygon class="cls-3" points="497.46 448.38 494.66 455.98 498.06 458.48 495.26 461.38 490.56 459.78 486.96 465.38 488.66 468.48 499.86 474.78 499.66 480.08 498.56 480.38 495.86 480.48 491.06 485.78 485.26 483.28 485.16 479.98 474.66 479.08 474.06 472.68 471.26 475.08 468.56 473.48 467.28 474.05 468.62 472.44 466.57 469.11 463.41 467.23 460.61 469.15 461.24 473.79 463.43 475.78 458.76 477.88 454.86 473.08 448.26 472.28 450.56 456.18 453.96 449.58 452.96 441.58 456.86 436.48 458.46 429.58 454.26 416.88 453.76 405.28 463.76 401.88 469.26 404.78 472.96 413.68 471.76 420.68 474.76 419.48 483.96 421.68 487.36 419.78 488.36 439.48 491.66 438.88 497.76 443.28 504.36 444.28 503.96 447.98 497.46 448.38"/><polygon class="cls-1" points="556.66 496.78 550.86 501.08 552.26 503.98 548.86 505.68 537.96 506.08 536.56 509.98 529.96 505.98 518.56 515.58 514.06 510.08 511.06 512.08 505.16 511.88 498.26 505.08 494.46 503.98 496.36 501.18 492.16 495.28 493.56 491.88 491.06 485.78 495.86 480.48 498.56 480.38 499.66 480.08 506.36 478.48 510.56 479.68 506.66 474.18 511.06 475.48 512.66 465.78 518.56 461.28 522.36 460.38 526.26 465.48 527.06 461.18 531.26 456.48 543.66 460.28 553.86 448.78 560.56 445.08 559.06 451.68 556.56 453.78 560.96 459.88 558.86 465.38 559.06 465.58 552.16 473.28 549.96 479.28 554.76 488.88 562.56 497.58 556.66 496.78"/><polygon class="cls-3" points="601.06 481.88 598.86 486.78 591.86 496.48 591.36 504.58 575.06 513.48 573.96 518.08 567.46 521.18 564.86 525.78 562.36 521.28 563.26 518.08 556.96 515.08 555.06 508.88 548.86 505.68 552.26 503.98 550.86 501.08 556.66 496.78 562.56 497.58 554.76 488.88 549.96 479.28 552.16 473.28 559.06 465.58 565.96 473.88 572.96 475.28 583.26 480.78 596.56 475.98 601.06 481.88"/><polygon class="cls-3" points="324.76 589.38 316.46 589.58 314.96 592.48 305.06 595.48 293.16 589.78 289.46 589.98 288.26 593.18 281.86 584.78 274.76 585.18 269.26 580.28 258.16 577.38 257.06 574.18 261.36 568.18 264.56 567.18 264.56 560.48 268.86 556.08 271.96 554.88 278.96 559.48 278.56 553.08 284.66 551.28 281.16 545.98 284.36 544.68 288.26 550.88 291.36 550.38 292.06 547.18 298.46 549.58 300.66 547.08 303.16 553.28 312.96 557.58 315.36 563.48 315.56 566.98 313.16 569.48 315.86 572.28 314.56 575.68 310.86 576.38 311.86 582.78 315.66 584.48 319.26 583.08 324.76 589.38"/><polygon class="cls-3" points="376.26 604.88 366.56 602.38 359.56 603.58 350.46 608.38 350.46 611.68 343.36 612.18 338.26 608.18 327.56 605.78 324.06 605.98 319.06 610.38 315.46 610.18 312.76 603.88 302.96 600.88 305.06 595.48 314.96 592.48 316.46 589.58 324.76 589.38 334.46 584.98 332.86 578.28 335.86 576.68 351.06 577.78 360.36 571.68 369.26 577.08 369.76 596.88 376.26 604.88"/><polygon class="cls-3" points="318.06 535.98 317.56 536.88 311.66 538.78 310.16 535.88 300.66 547.08 298.46 549.58 292.06 547.18 291.36 550.38 288.26 550.88 284.36 544.68 281.16 545.98 284.66 551.28 278.56 553.08 278.96 559.48 271.96 554.88 268.86 556.08 264.56 560.48 264.56 567.18 261.36 568.18 257.06 574.18 258.16 577.38 250.56 574.78 247.76 576.28 248.16 583.68 245.66 586.08 238.56 585.68 237.86 576.98 244.06 573.28 247.06 567.38 246.06 564.38 242.66 564.68 243.26 560.68 238.16 556.28 246.06 543.78 249.56 542.48 253.56 536.48 266.26 539.28 267.06 532.78 274.36 525.98 264.16 510.98 275.36 509.98 277.16 512.58 283.76 509.78 281.26 507.18 294.36 502.28 295.96 509.38 298.86 510.78 299.06 513.98 301.76 516.28 300.86 522.28 316.96 532.78 318.06 535.98"/><polygon class="cls-3" points="244.06 573.28 237.86 576.98 238.56 585.68 227.56 585.88 224.76 583.48 210.96 585.38 198.46 574.28 198.46 574.18 199.86 564.48 201.66 561.38 205.36 560.48 204.96 557.08 213.96 546.78 213.06 543.28 216.06 541.68 215.56 533.58 212.36 533.58 213.96 530.48 211.16 523.98 215.56 523.38 217.86 527.28 221.46 528.78 224.36 538.58 230.56 537.88 232.16 541.28 246.06 543.78 238.16 556.28 243.26 560.68 242.66 564.68 246.06 564.38 247.06 567.38 244.06 573.28"/><polygon class="cls-3" points="564.86 525.78 562.56 529.78 556.56 530.58 549.56 539.68 553.56 541.58 551.06 547.58 546.86 547.28 543.86 549.98 537.46 551.38 537.36 554.58 529.06 553.28 526.76 559.48 525.46 556.28 518.86 554.48 508.86 557.38 509.16 554.28 502.26 550.28 502.76 546.48 505.56 544.28 503.06 537.28 504.36 534.28 507.46 533.68 501.16 523.48 503.46 517.58 507.16 516.58 504.96 512.28 505.16 511.88 511.06 512.08 514.06 510.08 518.56 515.58 529.96 505.98 536.56 509.98 537.96 506.08 548.86 505.68 555.06 508.88 556.96 515.08 563.26 518.08 562.36 521.28 564.86 525.78"/><path class="cls-3" d="M468.37,537.21l-1.83.15,2.32,2.82,14.9-1.7,4.4,9.8,10.9,2.7,3.1-.9.1.2.5-3.8,2.8-2.2-2.5-7,1.3-3,3.1-.6-6.3-10.2,2.3-5.9,3.7-1-2.2-4.3-7.5,4.7-3.6.3-13.5-5.3-3.9.7-5.1-2.6-6.1-6.4-11.7-3.3-4.4,4.7L447,517l-3.6-1-4.8,5.4,1.2,3-6.5,2-4.3,6.7,16,.5,2.3,2.7-.6,3.1,4.1,1,10.9-1.2-2.4-2.6,1.4-2.8,1.66.11-1.51-2.45,1.54-3.42,4.44,1.2,1,5,2.79-.41Z"/><polygon class="cls-3" points="458.66 494.88 453.56 500.38 449.16 505.08 446.96 516.98 443.36 515.98 438.56 521.38 439.76 524.38 433.26 526.38 428.96 533.08 428.66 533.08 425.36 532.28 422.16 526.88 422.16 526.78 426.76 520.58 425.16 517.28 418.26 509.78 414.86 509.48 414.66 506.18 407.06 504.58 408.06 501.58 405.96 498.58 401.56 499.28 396.86 503.68 396.66 506.88 390.76 504.08 388.26 505.88 387.86 502.68 384.66 502.58 384.66 502.48 384.26 500.88 389.16 494.98 379.66 490.38 382.76 489.08 385.06 484.68 393.86 488.58 398.16 487.98 398.36 484.18 408.16 486.78 415.16 484.68 413.56 481.38 414.96 478.08 410.46 469.48 414.56 466.48 415.76 464.18 418.86 470.88 427.66 476.58 435.56 471.58 435.66 475.18 438.56 472.68 441.66 472.68 448.36 476.48 451.36 481.48 451.56 487.68 458.66 494.88"/><path class="cls-3" d="M426.76,520.58l-4.6,6.2-.1-.1-9.5,2.7-12.3,8.9-7.4,8.2h-7.6l-6.1,4.5-1.9-2.2-15.6-5.3-1.2-3.2-4.2,5.9-3.5.9-1.5-3.3-2.8,1.9-4-5.7.6-3.1,3.8-2.3,1-3.4-.8-10.8,6.8,2.4c2.6-1.7,5.1-3.3,7.6-4.9l6.4.1.2-9.8,7,1.4,3.3-5.9,4.3-1.2v.1l3.2.1.4,3.2,2.5-1.8,5.9,2.8.2-3.2,4.7-4.4,4.4-.7,2.1,3-1,3,7.6,1.6.2,3.3,3.4.3,6.9,7.5Z"/><polygon class="cls-3" points="379.16 550.98 376.16 554.08 369.76 566.08 369.26 577.08 360.36 571.68 351.06 577.78 335.86 576.68 332.86 578.28 334.46 584.98 324.76 589.38 319.26 583.08 315.66 584.48 311.86 582.78 310.86 576.38 314.56 575.68 315.86 572.28 313.16 569.48 315.56 566.98 315.36 563.48 312.96 557.58 303.16 553.28 300.66 547.08 310.16 535.88 311.66 538.78 317.56 536.88 318.06 535.98 320.06 538.58 327.16 539.58 328.36 535.88 331.66 535.28 345.06 536.88 344.46 539.98 348.46 545.68 351.26 543.78 352.76 547.08 356.26 546.18 360.46 540.28 361.66 543.48 377.26 548.78 379.16 550.98"/><polygon class="cls-3" points="79.46 258.88 75.06 260.18 71.46 259.18 70.56 255.38 73.76 254.98 79.46 258.88"/><polygon class="cls-1" points="572.56 659.28 576.26 659.58 569.66 676.18 566.26 674.78 564.86 671.68 552.26 667.78 546.96 662.88 547.16 659.48 552.66 655.78 541.96 653.68 544.96 645.78 543.96 639.38 535.86 642.18 539.16 632.78 542.06 630.98 533.26 626.08 532.06 619.88 537.86 615.68 533.56 610.88 530.66 612.08 531.26 609.08 546.56 611.38 547.96 615.28 554.66 619.08 561.36 625.68 562.06 629.28 564.96 630.58 569.06 642.88 573.46 643.48 577.06 641.58 577.86 650.98 575.46 657.08 572.56 659.28"/><polygon class="cls-1" points="577.06 634.28 576.96 641.28 577.06 641.58 573.46 643.48 569.06 642.88 564.96 630.58 562.06 629.28 561.36 625.68 554.66 619.08 547.96 615.28 546.56 611.38 531.26 609.08 531.26 608.78 535.66 603.18 535.36 599.28 537.86 596.08 541.06 595.78 541.96 592.58 553.96 587.78 557.96 582.38 567.56 583.88 567.06 564.28 569.76 561.98 572.96 563.18 574.86 573.48 574.26 585.38 578.86 591.78 583.06 620.88 577.06 634.28"/><polygon class="cls-3" points="162.36 364.78 160.86 368.38 153.66 355.88 155.56 352.78 161.26 356.48 162.36 364.78"/><polygon class="cls-3" points="159.46 342.28 156.16 343.68 151.16 339.18 151.26 339.18 151.16 339.08 153.36 338.48 159.46 342.28"/><path class="cls-3" d="M213.06,543.28l3-1.6-.5-8.1h-3.2l1.6-3.1-2.8-6.5v-.1l-7.4-.3-9.7,1.7-3.6-1.3-5.5,2.1-2.3-2.2-2.7,1.7-2.8-2.6-11,2.3-1.9,2.5-2.8-1.7-3,1.6-1.4-3.2-12.3,2.8-5.7-2.7-.1.1-5.2,7.1-7,5.1,6.5,3.1.5,3.5,2.5-2.4,7.5,1.5,1.6,3.2-2.1,6.7-3,2.6,1.5,3.2,4.3,1,.6-4,3.3-1,.2,3.7,6.6,3.5,10.9,4.2,7-.3,2.9,5.2,8.8,7.2,2.7-1.8,2.6,1.6,6.6-3.4h.2l1.4-9.7,1.8-3.1,3.7-.9-.4-3.4,9-10.3Zm-4.6,1.5,2.4-1.3.1,3Z"/><polygon class="cls-3" points="219.86 493.58 220.56 496.48 220.26 499.78 217.36 501.18 216.66 497.88 206.16 500.88 206.76 508.08 201.96 520.48 203.76 523.58 194.06 525.28 190.46 523.98 184.96 526.08 182.66 523.88 179.96 525.58 177.16 522.98 166.16 525.28 164.26 527.78 161.46 526.08 158.46 527.68 157.06 524.48 144.76 527.28 139.06 524.58 143.26 516.68 155.66 460.48 164.46 456.58 168.66 458.08 167.06 463.98 186.36 463.18 185.86 466.48 198.26 474.98 198.96 480.28 206.16 480.28 207.96 476.28 210.26 479.28 210.76 484.48 223.86 487.68 219.86 493.58"/><polygon class="cls-3" points="289.86 426.18 289.16 431.78 287.56 437.78 282.46 441.38 283.26 445.38 276.36 449.28 271.16 456.48 266.36 451.78 260.36 454.88 258.66 447.98 251.76 449.18 249.36 447.18 246.16 449.48 236.16 449.98 233.06 442.88 231.96 441.38 232.96 438.08 230.36 435.18 227.96 438.78 216.96 436.28 219.26 433.98 219.46 427.48 222.66 421.38 221.36 418.28 217.06 418.88 219.36 413.28 219.46 412.78 221.76 410.58 227.86 409.78 232.46 403.28 233.36 396.88 242.16 390.28 244.56 384.28 250.86 377.48 250.86 377.38 257.86 380.78 257.86 386.08 268.46 384.88 276.46 391.18 274.26 394.18 280.76 396.68 283.86 401.98 279.86 407.18 281.86 410.38 279.56 412.48 282.16 414.18 282.36 417.48 286.06 418.28 289.86 426.18"/><polygon class="cls-3" points="233.06 442.88 229.56 442.68 228.26 445.48 225.16 444.58 223.96 448.18 227.26 449.68 217.66 459.48 217.06 469.48 213.66 472.08 215.36 474.78 210.26 479.28 207.96 476.28 206.16 480.28 198.96 480.28 198.26 474.98 185.86 466.48 186.36 463.18 167.06 463.98 168.66 458.08 164.46 456.58 155.66 460.48 155.56 455.18 159.16 447.38 166.36 448.38 166.06 445.18 161.06 439.38 156.56 448.18 163.56 391.88 166.86 385.38 167.86 388.48 179.96 400.38 182.76 409.18 185.16 405.38 184.46 402.28 191.06 401.28 191.86 404.48 199.06 406.48 199.66 412.88 206.56 417.78 217.06 418.88 221.36 418.28 222.66 421.38 219.46 427.48 219.26 433.98 216.96 436.28 227.96 438.78 230.36 435.18 232.96 438.08 231.96 441.38 233.06 442.88"/><polygon class="cls-3" points="219.46 412.78 219.36 413.28 217.06 418.88 206.56 417.78 199.66 412.88 199.06 406.48 191.86 404.48 191.06 401.28 184.46 402.28 184.46 402.18 182.16 393.88 170.46 381.28 161.66 375.78 160.16 370.98 165.56 367.28 168.86 360.88 167.06 354.88 170.16 354.28 165.56 345.38 162.26 344.28 167.36 333.48 177.26 329.68 175.76 332.98 182.96 332.68 185.66 334.58 185.66 338.78 192.26 346.08 211.86 353.68 215.86 358.88 212.86 371.88 209.76 372.08 207.26 369.78 198.16 373.48 201.76 379.88 199.26 382.18 204.86 385.68 205.16 389.08 207.96 390.88 205.96 393.78 207.66 396.78 205.06 398.68 207.56 400.98 205.66 404.28 212.36 405.68 219.46 412.78"/><polygon class="cls-3" points="195.86 329.58 185.66 334.58 182.96 332.68 175.76 332.98 177.26 329.68 167.36 333.48 164.16 332.98 163.36 336.08 158.06 331.78 151.46 330.48 149.66 326.58 144.26 325.28 135.16 317.78 132.76 309.88 121.06 296.18 120.66 291.18 129.36 281.88 136.16 288.88 149.26 294.48 149.56 283.78 153.36 283.48 153.36 287.08 155.96 288.98 158.66 286.58 158.16 283.28 161.66 282.38 163.36 279.68 168.76 283.58 180.76 287.88 183.26 294.28 187.96 298.88 193.36 319.08 193.06 327.38 195.86 329.58"/><polygon class="cls-3" points="168.36 280.28 168.76 283.58 163.36 279.68 161.66 282.38 158.16 283.28 158.66 286.58 155.96 288.98 153.36 287.08 153.36 283.48 149.56 283.78 149.26 294.48 136.16 288.88 129.36 281.88 123.96 276.28 117.36 273.88 120.76 272.38 121.46 264.98 129.06 262.08 120.96 262.78 115.36 266.88 113.06 264.58 106.26 263.48 103.66 256.48 108.66 251.68 125.86 246.58 126.26 239.78 132.16 235.98 146.96 235.48 148.76 232.38 158.86 227.98 166.46 231.88 174.76 246.88 171.56 246.48 169.46 249.18 179.06 252.88 179.36 259.48 163.26 261.88 160.06 264.38 163.46 265.28 167.46 270.58 168.36 273.68 165.26 278.68 168.36 280.28"/><polygon class="cls-3" points="128.56 232.58 125.26 233.38 126.26 239.78 125.86 246.58 108.66 251.68 106.86 248.78 110.26 248.58 107.16 246.78 93.26 247.98 87.86 243.68 94.86 244.58 97.16 241.88 94.76 239.08 90.66 238.48 88.96 241.28 85.46 235.88 86.86 242.48 84.16 240.38 80.56 241.28 77.46 243.98 78.86 247.18 76.46 244.58 77.26 240.38 74.96 237.28 74.66 234.08 77.36 232.68 74.36 234.08 70.26 232.28 68.56 229.38 70.96 226.98 67.66 226.28 66.96 222.88 67.46 229.48 64.46 230.98 61.66 229.28 60.86 220.58 63.96 221.58 66.76 218.38 66.66 212.28 57.56 210.78 53.76 204.68 53.16 200.68 60.86 197.08 74.96 200.78 83.76 197.38 98.26 204.68 101.56 203.68 103.66 210.38 110.56 201.98 114.56 202.88 116.26 206.08 119.46 204.78 120.66 209.68 124.66 209.78 120.76 210.88 121.36 214.08 127.06 217.18 128.26 219.98 126.56 222.88 129.26 224.88 128.16 228.48 125.46 230.78 128.56 232.58"/><path class="cls-3" d="M369.06,63.18l-3.3-.4.7-3.1-4.3-5.9,3.5-1.8-4.4-5.9-6.6-1.1,1.1-6.8-1.4-2.9-1.9,2.5-13.1-.5-4.6-4.7.8-3.2-6.2-2.9-7.5-14.4L306.46,17l-6.5,5.6-.1,20.2,3.3,3.9-3.1-2-.7,6.7.5,4.2,2.5,1.9,13.8,1.2,1,3.4,8.1,6.4,13.4-2.8-2.9,6.4,1.9,3.6,2.8-3.5,9.4,3.9.9-3.1,3.2,5.2,2.6-2,1,3.6,9.6-2,4-12Z"/><polygon class="cls-3" points="370.36 84.98 366.06 93.98 368.66 101.98 357.06 103.58 347.46 111.28 333.06 103.68 316.96 101.28 313.36 102.58 308.76 98.48 304.86 88.98 290.86 76.98 290.76 76.98 298.06 66.98 301.26 68.58 297.86 62.38 298.26 59.08 302.36 57.48 316.16 58.68 317.16 62.08 325.26 68.48 338.66 65.68 335.76 72.08 337.66 75.68 340.46 72.18 349.86 76.08 350.76 72.98 353.96 78.18 356.56 76.18 357.56 79.78 367.16 77.78 370.86 80.68 370.36 84.98"/><polygon class="cls-3" points="305.36 103.68 306.86 113.48 305.36 122.48 290.66 118.68 285.26 126.68 276.06 129.48 274.46 132.48 268.46 129.78 266.16 127.48 268.16 124.68 262.66 121.28 258.86 122.18 250.36 116.58 242.96 119.48 233.06 117.18 231.16 114.68 237.66 100.58 253.56 91.98 278.36 85.78 290.56 77.28 290.86 76.98 304.86 88.98 308.76 98.48 305.36 103.68"/><polygon class="cls-3" points="246.56 150.98 245.76 153.48 239.46 152.28 231.56 154.08 223.56 160.18 220.26 160.58 213.76 159.28 210.96 161.28 205.36 157.88 198.26 160.48 195.16 159.08 194.16 161.98 188.16 165.28 177.26 162.98 175.26 160.18 180.26 154.28 178.56 151.68 187.66 146.18 185.16 136.98 187.36 134.08 177.96 130.58 177.26 123.18 177.26 123.08 183.06 120.48 193.76 124.28 207.76 125.78 217.26 129.78 228.06 126.78 233.56 121.98 241.26 120.28 241.36 120.28 241.76 130.08 244.96 130.08 242.46 132.38 245.46 142.98 243.86 146.28 246.56 150.98"/><polygon class="cls-3" points="192.76 169.98 190.66 177.58 186.66 182.58 186.56 182.58 176.96 181.58 170.76 179.08 162.86 184.38 159.86 183.38 154.46 172.58 162.46 171.78 163.56 168.38 160.76 170.18 157.86 168.78 153.16 158.28 155.66 151.88 156.26 145.08 154.06 141.98 155.56 130.68 145.96 120.48 143.16 108.98 145.26 106.68 144.66 101.18 141.06 99.08 141.26 95.98 153.96 101.18 161.36 100.68 164.16 98.68 171.46 99.48 172.56 102.48 169.86 111.28 177.06 123.18 177.26 123.18 177.96 130.58 187.36 134.08 185.16 136.98 187.66 146.18 178.56 151.68 180.26 154.28 175.26 160.18 177.26 162.98 188.16 165.28 192.76 169.98"/><polygon class="cls-3" points="177.26 217.38 171.06 219.88 167.06 229.58 166.46 231.88 158.86 227.98 148.76 232.38 146.96 235.48 132.16 235.98 126.26 239.78 125.26 233.38 128.56 232.58 125.46 230.78 128.16 228.48 129.26 224.88 126.56 222.88 128.26 219.98 127.06 217.18 121.36 214.08 120.76 210.88 124.66 209.78 120.66 209.68 119.46 204.78 124.96 196.88 135.06 193.98 136.86 183.88 136.76 177.58 136.36 177.28 133.76 171.48 138.26 167.18 141.86 166.28 141.56 172.68 154.46 172.58 159.86 183.38 162.86 184.38 170.76 179.08 176.96 181.58 176.86 195.28 175.06 197.88 177.26 217.38"/><polygon class="cls-3" points="136.86 183.88 135.06 193.98 124.96 196.88 119.46 204.78 116.26 206.08 114.56 202.88 110.56 201.98 103.66 210.38 101.56 203.68 98.26 204.68 83.76 197.38 74.96 200.78 60.86 197.08 63.16 192.38 60.36 182.08 63.16 172.68 59.16 167.48 58.96 164.28 62.46 163.78 62.76 156.88 67.86 152.68 69.46 155.48 79.46 151.38 80.06 155.38 85.36 151.78 83.86 159.18 85.76 155.78 89.16 155.48 88.46 158.58 91.76 159.28 96.86 168.08 96.86 171.58 101.46 174.58 102.46 178.68 114.46 168.68 118.56 168.28 119.66 171.28 123.16 169.68 124.26 173.18 128.76 172.78 128.86 170.68 129.06 170.68 129.06 172.48 130.76 175.18 133.96 175.48 134.06 175.68 136.66 177.78 136.36 177.28 136.76 177.58 136.86 183.88"/><polygon class="cls-3" points="133.96 175.48 130.76 175.18 129.06 172.48 129.06 170.68 132.06 170.68 133.96 175.48"/><polygon class="cls-3" points="66.76 218.38 63.96 221.58 60.86 220.58 60.56 224.08 56.36 225.78 53.16 224.98 53.86 221.88 50.96 222.88 50.46 219.68 50.46 222.88 47.36 223.58 42.06 216.98 36.86 218.78 33.56 216.58 33.86 213.08 35.76 212.88 34.16 209.68 33.86 213.08 32.66 213.28 33.56 216.58 33.56 217.08 29.46 221.68 21.16 220.98 22.46 214.88 18.26 207.88 7.56 203.88 9.26 201.08 23.36 199.68 26.16 201.18 27.96 198.38 26.96 194.78 20.86 191.18 17.76 190.98 15.76 193.98 13.06 188.18 14.76 184.08 16.66 186.78 23.16 188.08 27.36 186.88 28.86 189.68 35.56 191.28 28.56 188.28 32.06 187.58 28.76 186.18 29.26 182.88 22.56 184.48 23.16 180.68 27.36 178.68 13.56 182.88 10.56 181.48 7.56 182.78 5.56 180.18 7.06 170.08 9.26 167.48 18.66 168.28 15.76 166.78 27.16 160.58 28.86 163.58 45.06 158.78 45.16 166.08 46.96 162.48 49.46 165.48 50.16 161.68 53.36 160.98 58.76 164.28 58.96 164.28 59.16 167.48 63.16 172.68 60.36 182.08 63.16 192.38 60.86 197.08 53.16 200.68 53.76 204.68 57.56 210.78 66.66 212.28 66.76 218.38"/><path class="cls-1" d="M530.76,555.28h-.2l-.1.1h-.1v.1l-.1.1v.4a.1.1,0,0,1,.1.1c.1,0,.1,0,.2.1h.3V556l-.1.1h-.1c-.1,0-.1,0-.1-.1h-.1v-.5h.1a.1.1,0,0,1,.1-.1h.1l.1.1v-.1C530.86,555.28,530.86,555.28,530.76,555.28Z"/><path class="cls-1" d="M531.56,555.38v.1h0v.7h.2v-.6l.1-.1c.1-.1.1-.1.2-.1h0v.1h.1v.7h.2v-.7l-.1-.1c0-.1-.1-.1-.2-.1h0c-.1,0-.1,0-.2.1a.1.1,0,1,1-.2,0l-.1-.1h-.2a.1.1,0,0,1-.1.1v.1h0v-.2h-.2v.9h.2v-.6a.1.1,0,0,1,.1-.1.1.1,0,0,1,.1-.1Z"/><path class="cls-1" d="M532.76,555.28h-.1a.1.1,0,0,0-.1.1v.1c.1,0,.1,0,.2-.1h.1a.1.1,0,0,1,.1.1h.1v.1h0v.1h-.3c-.1,0-.1.1-.2.1h0v.3c.1,0,.1.1.2.1h.2a.1.1,0,0,1,.1-.1h0v.1h.2v-.7h-.1a.1.1,0,0,0-.1-.1c0-.1-.1-.1-.2-.1Zm.3.5v.2H533v.1h-.2V556h-.1v-.1a.1.1,0,0,1,.1-.1h.3Z"/><path class="cls-1" d="M534.16,555.58c0-.1-.1-.1-.1-.2a.1.1,0,0,0-.1-.1h-.2a.1.1,0,0,0-.1.1h-.1v-.1h-.1v1.3h.1v-.5a.35.35,0,0,0,.2.1h.2l.1-.1V556a.1.1,0,0,0,.1-.1.1.1,0,0,0,.1-.1C534.26,555.68,534.26,555.58,534.16,555.58Zm-.3-.2.1.1h0a.1.1,0,0,1,.1.1v.3a.1.1,0,0,1-.1.1l-.1.1h0c-.1,0-.1,0-.2-.1h-.1v-.5h.1a.1.1,0,0,0,.1-.1Z"/><polygon class="cls-3" points="339.16 163.58 333.26 163.68 329.86 159.68 332.76 157.78 336.36 158.38 337.16 161.48 339.16 163.58"/></g></svg>